<svg width="73" height="110" viewBox="0 0 73 110" fill="none" xmlns="http://www.w3.org/2000/svg">
<path fill-rule="evenodd" clip-rule="evenodd" d="M34.5053 12.0946C31.5853 9.23461 28.0853 5.99461 26.7053 4.88461L24.2053 2.86461L27.0953 3.34461C28.0855 3.38208 28.7491 3.47971 29.2901 3.5593C29.7598 3.62841 30.137 3.68391 30.5553 3.67461C31.2848 3.65336 31.6531 3.68729 32.1576 3.73377C32.3655 3.75291 32.5964 3.77419 32.8853 3.79461C32.9222 3.7975 32.9591 3.80037 32.9961 3.80324C34.1133 3.89 35.3336 3.98477 39.2053 4.89461C41.9553 5.54461 46.6753 7.23461 49.7053 8.64461C52.7353 10.0646 56.9853 13.0346 59.1553 15.2546C61.3253 17.4746 63.8753 21.0946 64.8153 23.2946C65.7653 25.4946 67.2453 32.1346 68.1253 38.0446C68.9953 43.9546 69.7053 52.2846 69.7053 56.5446C69.7153 60.8046 69.1353 66.5446 68.4253 69.2946C67.7153 72.0446 65.0553 77.6746 62.5053 81.7946C59.9553 85.9246 55.6953 91.4246 53.0353 94.0246C50.3753 96.6246 47.0853 99.5546 45.7053 100.515C44.3353 101.485 40.9553 103.115 38.2053 104.125C35.4553 105.145 31.6253 106.355 29.7053 106.815C27.7853 107.275 23.7253 107.415 20.7053 107.135C17.6853 106.855 12.9553 105.925 5.20528 103.535L8.20528 102.015C9.85528 101.185 13.9653 98.4246 17.3353 95.8946C20.7053 93.3646 25.5153 88.8246 28.0253 85.7946C31.6153 81.4846 33.9353 79.7546 38.8253 77.7946C42.2553 76.4246 45.1953 74.7346 45.3753 74.0446C45.5553 73.3546 44.8153 72.7946 43.7053 72.7946C42.6053 72.7946 40.5853 73.3546 39.2153 74.0446C37.8453 74.7346 36.3853 74.9546 35.9653 74.5446C35.5453 74.1246 36.2353 72.7746 37.4953 71.5446C38.7453 70.3046 40.1453 67.4946 40.6053 65.2946C41.0653 63.0946 41.1553 60.0246 40.8153 58.4746C40.2853 56.0346 39.8653 55.7446 37.7053 56.3446C36.3353 56.7246 34.5753 57.0946 33.8153 57.1646C33.0453 57.2346 32.2553 56.7346 32.0653 56.0446C31.8653 55.3546 33.0553 54.1246 34.7053 53.2946C36.3553 52.4646 38.5253 50.5546 39.5253 49.0446C40.5253 47.5346 41.8653 44.4946 42.5053 42.2946C43.1453 40.0946 43.6753 35.3746 43.6753 31.7946C43.6753 27.4046 43.0453 23.9946 41.7353 21.2946C40.6753 19.0946 37.4153 14.9546 34.5053 12.0946ZM52.0853 38.5946C51.0553 38.8146 49.7553 39.4246 49.2053 39.9546C48.6553 40.4846 48.0953 41.5646 47.9553 42.3546C47.8153 43.1446 48.6053 44.2446 49.7053 44.7946C51.2653 45.5746 52.1453 45.3546 53.7053 43.7946C54.8053 42.6946 55.7553 41.1446 55.8053 40.3546C55.8653 39.5646 55.4753 38.7546 54.9453 38.5546C54.4053 38.3646 53.1253 38.3746 52.0853 38.5946Z" fill="white"/>
<path fill-rule="evenodd" clip-rule="evenodd" d="M19.3553 0.704612C18.9953 1.30461 21.2353 3.90461 24.3953 6.54461C27.5353 9.15461 31.8253 13.0946 33.9353 15.2946C36.0453 17.4946 38.4353 20.7546 39.2353 22.5446C40.0453 24.3346 40.7153 28.6046 40.7253 32.0446C40.7353 35.4846 40.0353 40.3146 39.1753 42.7946C38.3153 45.2746 36.6153 48.3046 35.4053 49.5446C34.1953 50.7746 32.1253 51.7946 30.9553 52.2946C29.7553 52.7946 29.1153 54.0946 28.9553 55.5346C28.7553 57.4246 30.0653 58.6746 31.9553 59.5346C33.8753 60.4146 35.3053 60.4946 36.7053 59.7946C38.4653 58.9146 38.7053 59.1246 38.6853 61.5446C38.6853 63.0546 36.7853 67.4446 34.4853 71.2946C32.1853 75.1446 28.2453 80.9546 25.7553 84.2146C23.2553 87.4746 18.5053 92.0246 15.2053 94.3246C11.9053 96.6246 7.05528 99.3646 4.41528 100.405C1.78528 101.445 -0.194724 102.745 0.0152771 103.295C0.215276 103.845 3.04528 105.385 6.29528 106.705C10.4953 108.425 14.8053 109.245 21.2053 109.575C29.0753 109.965 31.1453 109.695 37.7053 107.385C41.9053 105.915 47.2253 103.105 49.7753 101.025C52.2953 98.9746 56.1953 95.0446 58.4453 92.2946C60.6953 89.5446 64.1553 84.5946 66.1253 81.2946C68.1053 77.9846 70.3853 72.2746 71.2053 68.5446C72.0353 64.8346 72.6953 59.2046 72.6753 56.0446C72.6553 52.8846 71.8253 44.8946 70.8253 38.2946C69.8153 31.6946 68.0953 24.2746 66.9953 21.7946C65.8953 19.3146 62.5653 15.0046 59.6053 12.2146C56.1353 8.95461 52.0553 6.31461 48.2053 4.84461C44.9053 3.58461 38.8353 2.12461 34.7053 1.60461C30.5853 1.08461 25.5853 0.414611 23.6053 0.134612C21.5153 -0.175387 19.7353 0.0646127 19.3553 0.704612ZM34.5053 12.0946C31.5853 9.23461 28.0853 5.99461 26.7053 4.88461L24.2053 2.86461L27.0953 3.34461C28.0855 3.38208 28.7491 3.47971 29.2901 3.5593C29.7598 3.62841 30.137 3.68391 30.5553 3.67461C31.2848 3.65336 31.6531 3.68729 32.1576 3.73377C32.3655 3.75291 32.5964 3.77419 32.8853 3.79461L32.9961 3.80324C34.1133 3.89 35.3336 3.98477 39.2053 4.89461C41.9553 5.54461 46.6753 7.23461 49.7053 8.64461C52.7353 10.0646 56.9853 13.0346 59.1553 15.2546C61.3253 17.4746 63.8753 21.0946 64.8153 23.2946C65.7653 25.4946 67.2453 32.1346 68.1253 38.0446C68.9953 43.9546 69.7053 52.2846 69.7053 56.5446C69.7153 60.8046 69.1353 66.5446 68.4253 69.2946C67.7153 72.0446 65.0553 77.6746 62.5053 81.7946C59.9553 85.9246 55.6953 91.4246 53.0353 94.0246C50.3753 96.6246 47.0853 99.5546 45.7053 100.515C44.3353 101.485 40.9553 103.115 38.2053 104.125C35.4553 105.145 31.6253 106.355 29.7053 106.815C27.7853 107.275 23.7253 107.415 20.7053 107.135C17.6853 106.855 12.9553 105.925 5.20528 103.535L8.20528 102.015C9.85528 101.185 13.9653 98.4246 17.3353 95.8946C20.7053 93.3646 25.5153 88.8246 28.0253 85.7946C31.6153 81.4846 33.9353 79.7546 38.8253 77.7946C42.2553 76.4246 45.1953 74.7346 45.3753 74.0446C45.5553 73.3546 44.8153 72.7946 43.7053 72.7946C42.6053 72.7946 40.5853 73.3546 39.2153 74.0446C37.8453 74.7346 36.3853 74.9546 35.9653 74.5446C35.5453 74.1246 36.2353 72.7746 37.4953 71.5446C38.7453 70.3046 40.1453 67.4946 40.6053 65.2946C41.0653 63.0946 41.1553 60.0246 40.8153 58.4746C40.2853 56.0346 39.8653 55.7446 37.7053 56.3446C36.3353 56.7246 34.5753 57.0946 33.8153 57.1646C33.0453 57.2346 32.2553 56.7346 32.0653 56.0446C31.8653 55.3546 33.0553 54.1246 34.7053 53.2946C36.3553 52.4646 38.5253 50.5546 39.5253 49.0446C40.5253 47.5346 41.8653 44.4946 42.5053 42.2946C43.1453 40.0946 43.6753 35.3746 43.6753 31.7946C43.6753 27.4046 43.0453 23.9946 41.7353 21.2946C40.6753 19.0946 37.4153 14.9546 34.5053 12.0946Z" fill="black"/>
<path fill-rule="evenodd" clip-rule="evenodd" d="M49.2053 39.9546C49.7553 39.4246 51.0553 38.8146 52.0853 38.5946C53.1253 38.3746 54.4053 38.3646 54.9453 38.5546C55.4753 38.7546 55.8653 39.5646 55.8053 40.3546C55.7553 41.1446 54.8053 42.6946 53.7053 43.7946C52.1453 45.3546 51.2653 45.5746 49.7053 44.7946C48.6053 44.2446 47.8153 43.1446 47.9553 42.3546C48.0953 41.5646 48.6553 40.4846 49.2053 39.9546Z" fill="black"/>
</svg>
