<svg width="99" height="67" viewBox="0 0 99 67" fill="none" xmlns="http://www.w3.org/2000/svg">
<path fill-rule="evenodd" clip-rule="evenodd" d="M59.9001 3.46C57.6401 5.75 55.2701 7.07 52.9601 7.34C50.7201 7.61 47.3001 6.87 43.4601 5.3C40.1601 3.95 36.5901 2.62 35.5201 2.33C34.1701 1.97 33.5001 2.37 33.3201 3.66C33.1701 4.67 30.8501 7.75 28.1601 10.5C25.4701 13.25 18.0401 18.88 11.6501 23C5.27014 27.13 0.0201404 31.06 0.000140356 31.75C-0.0198596 32.44 2.10014 34.79 4.71014 36.98C7.32014 39.16 12.1601 42.64 15.4601 44.7C18.7601 46.76 22.9601 49.8 24.7901 51.47C26.6201 53.14 30.0001 55.75 32.2901 57.27C34.5801 58.79 38.9401 60.54 41.9601 61.15C44.9901 61.76 49.9301 63.11 52.9601 64.15C55.9901 65.18 60.1501 66.02 62.2101 66.02C64.2701 66.01 68.3201 65.13 71.2101 64.07C75.4401 62.52 77.8701 60.58 83.7101 54.07C87.7001 49.63 91.5901 44.76 92.3701 43.25C93.1501 41.74 94.2701 38.36 94.8701 35.75C95.5801 32.68 96.4901 31 97.4601 31C98.2901 31 98.9601 30.55 98.9601 30C98.9601 29.45 98.1701 28.1 97.2101 26.99C96.2501 25.89 95.1201 24.99 94.7101 24.99C94.3001 25 92.0501 23.72 89.7101 22.17C87.3701 20.61 82.6801 15.77 79.2801 11.42C75.8701 7.06 71.7101 2.71 70.0301 1.75C68.3401 0.79 66.1501 0 65.1501 0C64.1601 0 61.8001 1.56 59.9001 3.46Z" fill="black"/>
<path fill-rule="evenodd" clip-rule="evenodd" d="M62.3601 5.1C61.3101 6.26 59.2201 7.84 57.7101 8.6C56.2001 9.37 52.8201 10.07 50.2101 10.15C47.1301 10.24 43.7501 9.5 40.5801 8.04L35.7001 5.78C28.5001 14.01 21.8301 19.38 15.9601 23.24C10.1801 27.04 5.58014 30.45 5.72014 30.82C5.86014 31.2 7.88014 32.01 10.2201 32.63C13.4601 33.5 16.4601 33.46 22.9601 32.46C27.6301 31.74 35.5101 30.49 40.4601 29.67C45.4101 28.85 54.4101 27.58 60.4601 26.86C66.5101 26.14 75.3101 25.53 80.0201 25.52L88.5701 25.5C79.9601 16.71 75.1001 11.64 72.2101 8.58C69.3201 5.51 66.3501 3 65.6101 3C64.8601 3 63.4001 3.95 62.3601 5.1ZM90.9501 33.47C90.1301 34.4 86.3101 36.65 82.4601 38.47C78.6101 40.29 72.7601 42.49 69.4601 43.37C66.1601 44.25 60.4201 44.97 56.7101 44.98C53.0001 44.99 45.3501 43.91 39.7101 42.58C34.0701 41.25 27.4301 39.89 24.9601 39.55C22.4801 39.2 18.6601 38.44 16.4601 37.85C14.2601 37.26 11.8301 36.94 11.0601 37.14C10.2901 37.34 12.7601 39.51 16.5601 41.97C20.3501 44.42 25.4801 48.2 27.9601 50.35C30.4301 52.51 34.8201 55.34 37.7101 56.64C40.6001 57.94 43.7501 59.01 44.7101 59.01C45.6701 59.02 49.2701 59.92 52.7101 61.01C56.1501 62.11 60.7601 63 62.9601 63C65.1601 63 68.6501 62.3 70.7101 61.45C72.7701 60.6 75.9601 58.46 77.8001 56.7C79.6301 54.94 83.2801 50.8 85.9101 47.5C88.5301 44.2 91.2301 39.7 91.9001 37.5C92.5701 35.3 92.9701 33.11 92.7801 32.64C92.5901 32.17 91.7701 32.54 90.9501 33.47Z" fill="#F7F7F7"/>
</svg>
