<svg width="86" height="63" viewBox="0 0 86 63" fill="none" xmlns="http://www.w3.org/2000/svg">
<path fill-rule="evenodd" clip-rule="evenodd" d="M37.2003 2C35.4103 3.1 33.5003 4.9 32.9503 6C32.4003 7.1 31.9503 8.9 31.9503 10C31.9503 11.81 31.7003 11.88 29.3403 10.75C26.9003 9.58 26.5003 9.76 23.0903 13.6C21.0903 15.86 17.6503 19.04 15.4503 20.66C13.2503 22.29 8.86027 24.94 5.70027 26.56C2.48027 28.21 -0.0297339 30.16 0.000266126 31C0.0202661 31.83 1.71027 33.99 3.75027 35.81C5.78027 37.62 10.1503 40.43 13.4503 42.04C16.7503 43.65 22.3703 45.68 25.9503 46.56C29.5303 47.44 33.6903 48.68 35.2003 49.33C37.0703 50.12 38.1303 51.46 38.5103 53.5C38.8103 55.15 39.2003 57.85 39.3803 59.5C39.5503 61.15 40.0903 62.61 40.5703 62.73C41.0603 62.86 42.1203 62.56 42.9503 62.05C44.2003 61.29 44.2403 60.71 43.2003 58.57C42.5103 57.16 41.9503 54.65 41.9503 53C41.9503 50.83 42.5103 49.86 43.9503 49.5C45.0503 49.23 45.7303 48.55 45.4503 48C45.1703 47.45 44.0503 47 42.9503 47C41.8503 47 40.7203 46.55 40.4503 46C40.1803 45.45 39.2703 39.94 38.4503 33.75C37.6203 27.56 36.9503 21.82 36.9603 21C36.9803 19.81 37.1303 19.78 37.7203 20.84C38.2503 21.82 38.9903 21.92 40.4503 21.2C41.5503 20.66 43.6903 19.72 45.2003 19.11C47.6903 18.1 47.8703 17.7 47.1403 14.75C46.7003 12.96 45.4603 10.28 44.3903 8.78C43.3203 7.29 42.0003 6.2 41.4503 6.36C40.9003 6.53 39.9003 7.75 39.2403 9.08C38.5703 10.41 37.7203 13.3 37.3403 15.5C36.7103 19.17 36.5903 19.3 35.9003 17C35.4903 15.62 35.0903 12.93 35.0203 11C34.9303 8.44 35.5703 6.89 37.3803 5.25C38.7503 4.01 40.7803 3 41.9103 3C43.2103 3 44.5403 4.17 45.5703 6.25C46.4703 8.04 48.0703 13.55 49.1303 18.5C50.1903 23.45 51.6703 29.75 52.4303 32.5C53.1803 35.25 54.0403 40.88 54.3403 45C54.6503 49.13 54.9103 53.74 54.9203 55.25C54.9403 57.02 55.4903 58 56.4503 58C57.6403 58 57.8503 57.06 57.4503 53.5C56.9603 49.07 57.0203 48.96 61.4103 46.25C63.8603 44.74 67.7203 42.37 69.9803 41C72.2403 39.62 75.4703 37.15 77.1603 35.5C78.8403 33.85 80.6103 31.26 81.0903 29.75C81.5603 28.24 82.6203 27 83.4503 27C84.2803 27 85.1703 26.33 85.4503 25.5C85.7836 24.5 84.7836 23.5 82.4503 22.5C80.5303 21.68 78.3903 21 77.7003 21C77.0103 21.01 74.6503 19.81 72.4503 18.34C70.2503 16.87 66.9903 14.39 65.2003 12.83C63.4103 11.28 60.8203 9.77 59.4503 9.5C57.5303 9.12 56.2803 9.76 54.0803 12.25L51.2103 15.5C49.4903 8.52 48.0903 5.04 46.9703 3.25C45.6603 1.14 44.1603 0 42.7003 0C41.4603 0.01 38.9903 0.91 37.2003 2Z" fill="black"/>
<path fill-rule="evenodd" clip-rule="evenodd" d="M40.5703 13.76C40.1903 15.82 40.0103 17.59 40.1703 17.7C40.3203 17.81 41.4603 17.7 42.7003 17.45C44.8003 17.03 44.8703 16.79 43.7003 13.86C43.0103 12.13 42.1803 10.56 41.8503 10.37C41.5203 10.18 40.9403 11.7 40.5703 13.76ZM54.4603 15.25L51.6703 18.5C54.9603 31.67 56.2603 37.82 56.6803 40.66L57.4503 45.82C63.6503 41.56 67.4803 39.03 69.9503 37.45C72.4203 35.87 75.4503 33.43 76.6603 32.04C77.8803 30.64 78.8903 29.16 78.9103 28.75C78.9303 28.34 74.3403 28.3 68.7003 28.67C63.0603 29.03 57.5503 29.02 56.4503 28.64C54.9603 28.13 54.7503 27.7 55.6403 26.94C56.3003 26.39 60.1303 25.9 64.1403 25.85C68.1603 25.81 73.4803 25.43 75.9503 25.01C78.4203 24.59 79.4403 24.19 78.2003 24.13C76.9603 24.06 75.1603 23.6 74.2003 23.12C73.2403 22.64 69.4103 19.94 65.7003 17.12C61.9903 14.3 58.5703 12 58.1103 12C57.6403 12 56.0003 13.46 54.4603 15.25ZM22.4503 18.12C19.7003 20.91 14.4203 24.84 10.7103 26.85C7.00027 28.86 3.96027 30.95 3.95027 31.5C3.95027 32.16 9.16027 32.23 19.2003 31.7C27.5903 31.26 34.5803 30.81 34.7403 30.7C34.9003 30.59 34.7103 27.8 34.3203 24.5C33.7603 19.77 33.0103 17.92 30.7803 15.75C29.2203 14.24 27.8403 13.01 27.7003 13.03C27.5603 13.04 25.2003 15.33 22.4503 18.12ZM25.4503 34.18C21.6003 34.69 16.0903 34.97 13.2003 34.8C10.3103 34.64 7.95027 34.84 7.95027 35.25C7.95027 35.66 10.7603 37.3 14.2003 38.89C17.6403 40.48 23.1503 42.5 26.4503 43.36C29.7503 44.23 33.5003 45.29 34.7803 45.72C37.0503 46.48 37.0903 46.37 36.4703 42C36.1103 39.52 35.6303 36.49 35.3903 35.25C35.1503 34.01 34.3903 33.06 33.7003 33.13C33.0103 33.2 29.3003 33.67 25.4503 34.18Z" fill="white"/>
</svg>
