<svg width="192" height="190" viewBox="0 0 192 190" fill="none" xmlns="http://www.w3.org/2000/svg">
<path fill-rule="evenodd" clip-rule="evenodd" d="M81.35 3.25C81.7 5.04 82.53 11 83.21 16.5C83.89 22 84.45 30.11 84.47 34.53C84.5 41.87 84.22 43 81.25 47.78C78.07 52.89 77.92 52.99 74.25 52.34C72.19 51.98 69.04 51.08 67.25 50.34C65.46 49.6 62.76 47.47 61.25 45.61C59.74 43.74 57.06 38.45 55.31 33.86C53.56 29.26 51.19 24.26 50.06 22.75C48.93 21.24 47.25 20 46.32 20C45.4 20 43.84 21.01 42.84 22.25C41.85 23.49 41.03 26.07 41.02 28C41.01 29.92 41.36 32.85 41.81 34.5C42.26 36.15 45.41 40.76 48.81 44.75C52.22 48.74 55.94 54.14 57.09 56.75C58.24 59.36 59.02 62.85 58.84 64.5C58.61 66.54 58.02 67.4 57 67.17C56.18 67 52.58 66.43 49 65.91C45.43 65.39 38.23 64.86 33 64.73C24.99 64.54 22.6 64.07 17.75 61.75C13.49 59.71 11.09 57.7 8.5 54C6.58 51.25 4.33 49 3.5 49C2.68 49 2 49.45 2 50C2 50.55 2.63 52.24 3.4 53.75C4.16 55.26 5.75 57.4 6.93 58.5C8.1 59.6 9.07 60.95 9.07 61.5C9.08 62.05 10.3 63.93 11.79 65.67C13.28 67.42 17.43 70.28 21 72.04C24.58 73.79 28.4 76.02 29.5 76.99C30.6 77.96 34.43 80.18 38 81.93C41.58 83.68 45.88 86.33 47.56 87.81C49.25 89.29 50.94 91.29 51.31 92.25C51.69 93.21 51.44 95.16 50.75 96.57C50.06 97.98 48.6 99.3 47.5 99.51C46.4 99.72 43.47 100.14 41 100.44C38.53 100.74 33.8 101.22 30.5 101.52C27.2 101.82 23.49 102.27 22.25 102.53C21.01 102.79 20 103.45 20 104C20 104.55 21.35 105.45 23 106C24.65 106.55 26.02 107.34 26.04 107.75C26.07 108.16 25.51 109.03 24.79 109.68C24.08 110.33 21.48 111.42 19 112.12C15.17 113.19 13.57 113.12 8.25 111.69C4.81 110.76 1.55 110.22 1 110.5C0.45 110.78 0 111.45 0 112C0 112.55 2.14 113.49 4.75 114.09C7.36 114.69 11.3 116.15 13.5 117.34C17.18 119.33 18.75 119.48 33.25 119.25L49 119C55.43 125.43 55.99 126.7 55.96 130.25C55.93 132.59 55.5 136.53 55 139C54.33 142.32 52.91 144.68 49.6 148C47.13 150.47 44.64 153.74 44.06 155.25C43.48 156.76 42.99 159.91 42.98 162.25C42.97 164.59 43.42 167.96 43.98 169.75C44.54 171.54 45.68 173 46.5 173C47.46 173 48.7 170.77 49.97 166.75C51.05 163.31 53.46 158.47 55.32 156C57.19 153.53 60.73 148.35 63.2 144.5C65.66 140.65 69.22 136.39 71.09 135.03C72.97 133.67 75.85 132.57 77.5 132.57C79.15 132.57 81.85 133.11 83.5 133.77C85.9 134.73 87.04 136.32 89.2 141.73C90.69 145.46 92.79 151.65 93.87 155.5C94.95 159.35 97.03 167.68 98.49 174C99.95 180.32 101.33 186.29 101.57 187.25C101.85 188.38 102.97 189.01 104.75 189.02C107.44 189.03 107.55 188.82 109.72 178.27C110.95 172.35 112.22 165.7 112.55 163.5C112.88 161.3 113.46 153.87 113.83 147C114.2 140.12 114.95 133.77 115.5 132.87C116.05 131.98 117.96 130.07 119.75 128.62C121.81 126.96 123.82 126.16 125.25 126.44C126.49 126.68 129.3 128.27 131.5 129.97C133.7 131.67 135.84 133.05 136.25 133.03C136.66 133.02 138.46 134.25 140.25 135.78C142.04 137.3 144.81 139.22 146.4 140.03C148 140.84 150.47 143.23 151.9 145.34C153.33 147.45 155.4 149.75 156.5 150.45C157.6 151.15 160.53 154.72 163 158.37C165.68 162.31 168.21 165 169.25 165C170.55 165 171.26 163.71 172 160C172.55 157.25 173 152.3 173 149C173 145.22 172.01 139.95 170.33 134.75C168.15 128.03 166.8 125.66 163.08 121.99C160.56 119.5 156.25 116 153.5 114.21C150.75 112.42 146.25 110.31 143.5 109.53C140.74 108.75 137.49 106.97 136.25 105.56C135.01 104.15 134.23 102.55 134.5 102C134.78 101.45 136.69 100.73 138.75 100.41C140.81 100.09 144.4 98.85 146.72 97.66C149.03 96.47 153.31 93.35 156.22 90.71L161.5 85.92C173.51 85.98 178.24 86.48 179.75 87.06C181.26 87.65 184.64 87.88 187.25 87.56C190.55 87.17 192 86.54 192 85.5C192 84.67 190.76 83.08 189.25 81.95C187.74 80.82 184.7 79.41 182.5 78.83C180.3 78.24 171.53 77.79 163 77.82C152.93 77.86 144.96 78.43 140.25 79.44C136.26 80.3 132.1 81 131 81C129.6 81 128.59 79.87 127.62 77.25C126.47 74.11 126.45 71.71 127.53 62.5C128.23 56.45 129.83 48.8 131.08 45.5C132.32 42.2 134.86 36.8 136.72 33.5C138.57 30.2 140.9 25.7 141.9 23.5C142.9 21.3 144 18.49 144.36 17.25C144.89 15.39 144.61 15 142.75 15.02C141.51 15.04 138.53 16.05 136.11 17.27C133.7 18.5 130.18 21.3 128.29 23.5C126.4 25.7 122.14 33.13 118.82 40C115.51 46.88 111.6 53.98 110.15 55.8C108.69 57.61 106.82 59.09 106 59.08C105.18 59.08 102.89 56.7 100.91 53.79C98.94 50.88 97.02 46.7 96.63 44.5C96.25 42.3 95.53 35.55 95.03 29.5C94.54 23.45 93.4 16.47 92.52 14C91.63 11.52 89.57 7.36 87.95 4.75C85.92 1.49 84.33 0 82.86 0C80.99 0 80.81 0.4 81.35 3.25Z" fill="black"/>
<path fill-rule="evenodd" clip-rule="evenodd" d="M84.74 10.25C84.96 13.14 85.57 17.98 86.08 21C86.59 24.02 87.01 30.1 87.01 34.5C87 41.45 86.61 43.22 84.04 48C82.41 51.02 81.05 54.17 81.02 55C80.98 56.04 82.73 56.86 86.73 57.69C89.9 58.34 94.41 59.12 96.75 59.44C99.09 59.75 101 59.77 101 59.5C101 59.23 99.76 57.34 98.25 55.31C96.7 53.23 94.94 48.96 94.22 45.56C93.51 42.23 92.57 34.55 92.11 28.5C91.41 19.13 90.82 16.58 88.14 11.25C86.41 7.81 84.85 5 84.66 5C84.48 5 84.51 7.36 84.74 10.25ZM136.6 20.04C134.45 21.12 131.16 24.14 129.29 26.75C127.41 29.36 124.73 33.98 123.33 37C121.93 40.02 119.5 45.2 117.94 48.5C116.37 51.8 113.27 56.41 111.05 58.75C108.06 61.88 107.33 63.23 108.25 63.88C108.94 64.36 110.4 65.01 111.5 65.32C112.6 65.63 115.07 67.6 117 69.7C118.93 71.8 121.18 74.55 122 75.81C123.39 77.93 123.52 77.35 123.78 67.8C123.93 62.13 124.72 55.25 125.53 52.5C126.35 49.75 128.25 44.58 129.76 41C131.26 37.42 134.41 31.12 136.75 27C139.1 22.88 141.01 19.16 141.01 18.75C141 18.34 140.89 18.02 140.75 18.04C140.61 18.07 138.74 18.97 136.6 20.04ZM45.39 24.14C44.79 24.89 44.04 26.63 43.73 28C43.43 29.38 43.59 31.96 44.09 33.75C44.59 35.54 47.97 40.49 51.61 44.75C55.24 49.01 58.87 54.08 59.66 56C60.46 57.92 61.2 61.75 61.3 64.5L61.5 69.5C56.08 70 51.8 69.62 48.5 68.99C45.2 68.35 38.22 67.7 33 67.54C25.99 67.33 22.19 66.69 18.5 65.1C15.75 63.92 13.27 62.95 13 62.94C12.73 62.94 13.4 63.91 14.5 65.1C15.6 66.3 19.31 68.56 22.75 70.14C26.19 71.71 29.23 73.45 29.5 74C29.77 74.55 33.71 76.85 38.25 79.1C42.79 81.36 47.94 84.62 49.7 86.35L52.89 89.5C55.34 83.3 56.04 81.39 56.02 81.25C56.01 81.11 57.85 77.96 60.1 74.25C62.36 70.54 65.62 66.03 67.35 64.24C69.08 62.45 71.76 60.42 73.29 59.74C74.82 59.06 76.07 58.05 76.06 57.5C76.05 56.95 73.33 55.71 70.02 54.75C65.12 53.32 63.24 52.12 59.88 48.25C57.61 45.64 55.41 42.6 54.99 41.5C54.56 40.4 53.38 36.88 52.36 33.69C51.34 30.49 49.6 26.73 48.5 25.33C46.87 23.26 46.3 23.04 45.39 24.14ZM80 60.93C78.08 61.28 74.72 62.68 72.54 64.04C70.04 65.59 66.8 69.27 63.76 74C61.1 78.13 58.26 83.53 57.44 86C56.62 88.47 55.91 93.2 55.87 96.5C55.8 101.27 56.4 103.73 58.79 108.5C60.44 111.8 63.56 116.53 65.72 119C67.89 121.47 71.2 124.25 73.08 125.16C74.96 126.08 79.2 128.05 82.5 129.54C85.8 131.03 90.75 132.71 93.5 133.27C97.44 134.08 99.67 133.96 104 132.73C107.09 131.84 111.8 129.37 114.75 127.08C118.88 123.87 120.8 121.35 123.75 115.25C127.12 108.28 127.5 106.7 127.5 99.5C127.5 92.1 127.21 90.98 123.65 84.5C121.53 80.65 118.26 75.59 116.4 73.25C114.37 70.72 110.88 68 107.75 66.52C104.86 65.16 99.12 63.35 95 62.51C90.87 61.67 86.6 60.82 85.5 60.63C84.4 60.44 81.92 60.57 80 60.93ZM150.5 80.97C146.1 81.37 140.29 82.27 137.59 82.97C134.89 83.68 131.29 84.03 129.59 83.77L126.5 83.28C129.09 88.88 130.1 92.86 130.42 95.75C130.98 100.8 131.08 100.96 133.25 99.86C134.49 99.23 137.97 98.08 141 97.3C145.12 96.24 148.38 94.32 153.97 89.69C161.39 83.54 161.48 83.5 167.97 83.42C171.56 83.37 176.07 83.74 178 84.25C179.93 84.75 182.85 85.01 184.5 84.83L187.5 84.5C182.45 81.77 177.88 81.1 170 80.76C163.68 80.48 154.9 80.58 150.5 80.97ZM50.37 100.9C49.89 101.35 44.78 102.27 39 102.95C33.22 103.63 28.16 104.37 27.75 104.59C27.34 104.82 27.56 105.89 28.25 106.97C29.31 108.65 29.2 109.17 27.5 110.42C26.4 111.22 23.82 112.7 21.76 113.69C19.71 114.69 18.02 115.84 18.01 116.25C18.01 116.66 25.31 117 34.25 116.99C47.08 116.99 50.97 117.3 52.75 118.49C53.99 119.32 55.75 121.46 56.67 123.25C57.89 125.61 58.28 128.56 58.1 134C57.9 139.84 57.37 142.16 55.68 144.5C54.48 146.15 52.04 148.74 50.25 150.25C48.28 151.91 46.77 154.28 46.43 156.25C46.11 158.04 46.02 161.07 46.22 163L46.59 166.5C49.84 159.53 53.2 154.25 56.14 150.28C59.09 146.3 62.74 141.01 64.25 138.53C66.06 135.55 68.46 133.28 71.25 131.89C75.13 129.96 75.33 129.69 73.5 128.77C72.4 128.22 69.76 126.58 67.62 125.13C65.47 123.67 61.58 119.17 58.86 115C56.17 110.88 53.64 105.98 53.24 104.13C52.83 102.27 52.21 100.6 51.87 100.42C51.52 100.23 50.84 100.45 50.37 100.9ZM130.83 104.67C130.52 105.13 129.69 107.3 128.99 109.5C128.3 111.7 126.66 115.64 125.36 118.25L123 123C126.49 123.96 130.65 126.31 134.5 128.84C138.35 131.37 142.4 134.25 143.5 135.24C144.6 136.23 145.84 137.03 146.25 137.02C146.66 137.01 150.38 140.38 154.5 144.5C158.63 148.63 162.63 153.24 163.4 154.75C164.16 156.26 165.71 158.4 166.84 159.5L168.88 161.5C170.52 153.36 170.73 149.09 170.4 146.75C170.07 144.41 168.84 139.4 167.65 135.6C166.18 130.89 164.23 127.29 161.5 124.23C159.3 121.77 155.03 118.29 152 116.5C148.97 114.7 144.03 112.51 141 111.63C136.93 110.45 134.96 109.22 133.45 106.93C132.32 105.23 131.14 104.21 130.83 104.67ZM106.5 135.15C102.84 136.53 99.95 136.89 95.75 136.52C92.59 136.23 90 136.22 90 136.5C90 136.78 90.73 138.46 91.63 140.25C92.52 142.04 95.68 153.18 98.64 165C101.61 176.82 104.02 186.61 104.02 186.75C104.01 186.89 104.34 187 104.75 187.01C105.16 187.01 106.07 183.97 106.78 180.26C107.48 176.54 108.76 169.9 109.63 165.5C110.5 161.1 111.3 151.99 111.41 145.25C111.52 138.51 111.59 133.06 111.56 133.13C111.53 133.21 109.25 134.11 106.5 135.15Z" fill="white"/>
<path fill-rule="evenodd" clip-rule="evenodd" d="M72.98 88.31C71.68 89.59 70.7 91.39 70.81 92.31C70.91 93.24 71.67 94 72.5 94C73.32 94 74.22 93.1 74.5 92C74.78 90.9 75.45 90 76 90C76.55 90 77 90.67 77 91.5C77 92.33 77.9 93.22 79 93.5C80.1 93.78 81.45 93.78 82 93.5C82.55 93.22 82.78 92.33 82.5 91.5C82.13 90.39 82.78 90 85 90C86.65 90 88 89.55 88 89C88 88.45 87.1 87.55 86 87C84.9 86.45 82.05 86 79.67 86C76.49 86 74.71 86.61 72.98 88.31ZM101 87.9C100.18 88.38 99.84 89.28 100.25 89.89C100.66 90.5 101.9 91 103 91C104.47 91 104.93 91.58 104.75 93.21C104.6 94.51 105.12 95.56 106 95.77C106.87 95.97 107.81 95.15 108.23 93.81C108.77 92.09 109.6 91.56 111.48 91.75C113.16 91.9167 114 91.5 114 90.5C114 89.67 112.87 88.55 111.5 88C110.12 87.45 107.54 87.01 105.75 87.02C103.96 87.02 101.82 87.42 101 87.9ZM72 107C72 107.55 72.67 108 73.5 108C74.32 108 75 107.55 75 107C75 106.45 74.32 106 73.5 106C72.67 106 72 106.45 72 107ZM88.11 107.89C86.79 108.28 85.54 109.24 85.32 110.04C85.1 110.87 86.25 112.26 87.97 113.25C89.64 114.21 92.12 115 93.5 115C94.87 115 97.14 114.44 98.53 113.75C99.92 113.06 101.14 112.15 101.24 111.72C101.33 111.29 100.53 110.65 99.46 110.29C98.38 109.94 97.16 109.05 96.75 108.33C96.34 107.6 94.76 107.04 93.25 107.1C91.74 107.15 89.42 107.51 88.11 107.89ZM111.58 108.5C111.26 109.32 111.45 110.22 112 110.5C112.55 110.78 113.45 110.1 114 109C114.76 107.47 114.67 107 113.58 107C112.81 107 111.91 107.67 111.58 108.5Z" fill="black"/>
</svg>
