<svg width="1080" height="1080" viewBox="0 0 1080 1080" fill="none" xmlns="http://www.w3.org/2000/svg">
<path fill-rule="evenodd" clip-rule="evenodd" d="M961.154 363.744C961.24 363.95 961.34 364.163 961.451 364.377C961.16 363.816 960.941 363.273 960.838 362.819C960.841 362.819 960.848 362.819 960.848 362.819C960.909 363.099 961.014 363.413 961.154 363.744ZM979.088 321.709C980.549 325.576 980.732 326.328 979.643 328.117C980.734 326.328 980.558 325.574 979.098 321.709C979.098 321.709 979.091 321.709 979.088 321.709ZM251.868 869.319C252.081 869.885 253.553 870.828 255.367 871.612C253.559 870.829 252.094 869.885 251.868 869.319ZM258.71 873.065C258.708 873.063 258.713 873.066 258.71 873.065ZM258.71 873.065C258.74 873.081 258.779 873.103 258.809 873.12ZM626.605 962.205L626.56 962.258C626.489 962.341 626.416 962.426 626.348 962.519C626.436 962.399 626.526 962.286 626.617 962.179C626.614 962.182 626.612 962.187 626.611 962.192C626.609 962.196 626.608 962.201 626.605 962.205ZM977.348 420.622C977.341 420.69 977.338 420.756 977.338 420.819C977.338 420.803 977.341 420.787 977.341 420.771L977.342 420.76C977.342 420.756 977.342 420.752 977.342 420.748C977.342 420.744 977.342 420.738 977.342 420.734L977.343 420.718L977.343 420.704L977.343 420.691C977.344 420.681 977.344 420.67 977.345 420.66C977.346 420.647 977.346 420.635 977.348 420.622ZM976.653 424.01C976.551 424.295 976.442 424.569 976.328 424.819C976.355 424.761 976.387 424.704 976.414 424.644C976.4 424.677 976.385 424.711 976.371 424.744C976.375 424.735 976.378 424.727 976.382 424.718C976.393 424.694 976.403 424.669 976.414 424.644C976.429 424.608 976.443 424.571 976.458 424.535C976.47 424.506 976.481 424.477 976.492 424.448C976.494 424.445 976.497 424.437 976.498 424.434L976.521 424.375C976.546 424.31 976.57 424.244 976.594 424.177L976.603 424.153C976.62 424.106 976.636 424.058 976.653 424.01ZM976.594 424.177C976.582 424.211 976.569 424.245 976.557 424.278C976.563 424.262 976.568 424.248 976.575 424.231L976.594 424.177ZM854.638 604.404C854.578 601.626 854.113 598.513 853.518 597.069C854.122 598.513 854.58 601.626 854.638 604.404Z" fill="black"/>
<path fill-rule="evenodd" clip-rule="evenodd" d="M598.468 729.819C597.668 730.719 597.638 734.149 598.348 742.069C598.898 748.119 599.328 756.899 599.298 761.569C599.278 766.239 598.718 771.309 598.048 772.819C597.388 774.329 594.598 777.399 591.848 779.639C589.098 781.879 585.718 783.929 584.348 784.199C582.968 784.469 579.148 785.559 575.848 786.619C572.388 787.729 566.988 788.549 563.098 788.559C558.328 788.569 555.178 787.979 552.348 786.569C550.148 785.469 546.438 784.279 544.098 783.919C541.758 783.569 537.368 781.989 534.348 780.419C530.528 778.439 528.088 777.759 526.348 778.209C524.968 778.559 523.268 779.349 522.558 779.959C521.838 780.569 521.268 782.419 521.278 784.069C521.288 785.849 522.228 787.989 523.568 789.319C524.828 790.559 530.118 793.309 535.348 795.439C540.578 797.569 546.868 799.859 549.348 800.519C551.828 801.189 556.098 802.429 558.848 803.289C563.018 804.599 565.248 804.679 572.348 803.779C577.528 803.119 583.188 801.619 586.848 799.949C590.148 798.439 594.648 796.039 596.848 794.619C599.048 793.199 602.428 790.539 604.348 788.709C606.268 786.879 609.428 784.359 611.348 783.119C613.988 781.409 615.198 779.649 616.278 775.959C617.058 773.269 617.688 767.919 617.678 764.069C617.658 760.219 617.448 753.699 617.198 749.569C616.948 745.449 616.028 740.719 615.168 739.069C614.298 737.419 611.738 734.379 609.468 732.319C606.708 729.799 604.398 728.569 602.458 728.569C600.868 728.569 599.078 729.129 598.468 729.819Z" fill="black"/>
<path fill-rule="evenodd" clip-rule="evenodd" d="M432.568 631.009C432.398 629.229 432.988 627.329 434.068 626.209C435.548 624.659 436.778 624.449 441.348 624.959C444.368 625.299 448.198 626.449 449.848 627.509C451.498 628.569 454.988 629.919 457.598 630.499C460.208 631.089 464.318 632.809 466.728 634.319C469.128 635.829 471.988 638.199 473.088 639.569C474.178 640.949 476.048 643.869 477.248 646.069C478.438 648.269 480.738 652.099 482.348 654.569C483.968 657.049 486.368 661.099 487.688 663.569C489.008 666.049 491.718 669.529 493.718 671.319C495.718 673.109 499.038 675.419 501.098 676.449C503.158 677.479 506.758 678.609 509.098 678.949C512.778 679.489 513.538 679.269 514.798 677.319C515.598 676.079 516.798 671.699 517.478 667.569C518.198 663.159 519.348 659.569 520.278 658.849C521.138 658.179 522.518 657.609 523.348 657.589C524.178 657.559 526.648 659.359 532.848 665.629L532.098 673.599C531.448 680.539 530.858 682.279 527.598 687.009C525.538 690.009 522.728 692.969 521.348 693.589C519.928 694.229 515.818 694.549 511.848 694.329C505.918 693.989 503.248 693.149 494.348 688.829C487.278 685.399 482.998 682.639 481.258 680.399C479.828 678.569 477.798 675.579 476.758 673.749C475.708 671.919 473.728 668.489 472.348 666.129C470.978 663.759 468.268 658.999 466.348 655.539C464.428 652.089 461.048 647.749 458.848 645.899C456.568 643.979 450.118 640.689 443.848 638.239C433.548 634.219 432.828 633.759 432.568 631.009Z" fill="black"/>
<path fill-rule="evenodd" clip-rule="evenodd" d="M524.848 470.409C523.198 471.419 520.078 474.239 517.918 476.659C515.758 479.089 509.858 485.569 504.798 491.069C499.738 496.569 494.078 502.809 492.228 504.949C490.368 507.079 487.498 509.509 485.848 510.359C484.198 511.209 482.288 512.499 481.598 513.229C480.908 513.969 478.438 515.039 476.098 515.609C473.758 516.169 470.048 517.259 467.848 518.019C465.648 518.779 461.148 519.699 457.848 520.049C454.548 520.409 450.268 521.089 448.348 521.569C446.388 522.049 444.078 523.559 443.098 524.999C442.138 526.409 441.578 528.239 441.848 529.069C442.118 529.899 443.808 531.499 445.598 532.629C448.528 534.479 449.848 534.629 458.848 534.069C464.348 533.729 472.678 532.749 477.348 531.889C482.748 530.899 487.858 529.199 491.348 527.219C494.368 525.509 499.478 521.629 502.688 518.589C505.898 515.559 509.158 511.829 509.938 510.319C510.718 508.809 514.728 504.079 518.868 499.819C522.998 495.559 526.378 491.729 526.368 491.319C526.358 490.909 527.218 489.779 528.288 488.819C529.358 487.859 530.948 485.049 531.808 482.569C532.678 480.099 533.378 477.279 533.368 476.319C533.358 475.359 532.558 473.209 531.598 471.559C530.638 469.899 529.398 468.549 528.848 468.559C528.298 468.569 526.498 469.399 524.848 470.409Z" fill="black"/>
<path fill-rule="evenodd" clip-rule="evenodd" d="M387.428 563.569C389.098 561.089 391.678 558.069 393.158 556.859C394.638 555.639 396.638 554.629 397.598 554.609C398.558 554.589 400.468 555.699 401.848 557.069C403.218 558.449 404.358 560.579 404.378 561.819C404.388 563.059 402.798 567.219 400.828 571.069C397.778 577.059 396.078 578.979 389.058 584.369C384.538 587.829 379.048 592.009 376.848 593.649C374.648 595.289 372.398 596.609 371.848 596.579C371.298 596.549 368.828 597.589 366.348 598.899C363.868 600.209 358.248 602.739 353.848 604.529C346.108 607.669 345.518 607.759 335.598 607.169C329.958 606.839 323.658 605.909 321.598 605.109C319.538 604.309 312.898 602.709 306.848 601.569C300.798 600.419 294.838 598.829 293.598 598.029C291.918 596.939 291.348 595.619 291.368 592.819C291.368 590.759 291.708 588.519 292.118 587.839C292.518 587.169 294.428 586.179 296.348 585.639C298.578 585.009 300.478 584.999 301.598 585.609C302.558 586.139 304.358 586.579 305.598 586.589C306.838 586.599 310.328 587.809 313.348 589.269C318.468 591.739 319.818 591.929 346.848 592.069L354.848 588.209C359.248 586.089 363.748 583.939 364.848 583.439C365.948 582.939 370.798 579.269 375.618 575.299C380.448 571.319 385.758 566.049 387.428 563.569Z" fill="black"/>
<path fill-rule="evenodd" clip-rule="evenodd" d="M401.348 131.149C398.868 131.339 389.648 132.009 380.848 132.629C372.048 133.249 362.368 134.439 359.348 135.259C356.328 136.079 350.248 137.119 345.848 137.569C340.828 138.069 336.548 139.139 334.348 140.419C332.428 141.549 327.018 143.149 322.348 143.969C317.678 144.799 311.598 146.169 308.848 147.009C306.098 147.859 302.948 148.559 301.848 148.559C300.748 148.569 297.148 149.689 293.848 151.049C290.548 152.409 286.388 153.529 284.598 153.549C282.808 153.559 278.538 154.509 275.098 155.669C271.658 156.819 264.578 158.599 259.348 159.609C254.118 160.629 247.598 162.419 244.848 163.579C242.098 164.749 236.928 167.139 233.348 168.889C229.778 170.629 224.208 173.869 220.978 176.069C217.758 178.269 213.928 180.859 212.478 181.819C211.028 182.779 207.938 185.369 205.598 187.569C203.258 189.769 199.998 192.249 198.348 193.069C196.698 193.889 193.058 196.709 190.258 199.319C187.458 201.929 183.518 205.199 181.488 206.569C179.468 207.949 174.438 211.919 170.328 215.409C166.218 218.899 162.168 222.769 161.348 223.999C160.528 225.239 156.248 230.179 151.848 234.979C147.448 239.779 143.618 244.239 143.348 244.889C143.068 245.539 141.138 248.549 139.058 251.569C136.978 254.589 132.838 260.449 129.858 264.569C126.878 268.699 122.368 276.339 119.828 281.569C117.298 286.799 114.618 292.199 113.868 293.569C113.118 294.949 110.898 299.889 108.928 304.569C106.948 309.249 105.338 313.519 105.338 314.069C105.348 314.619 104.028 317.769 102.418 321.069C100.808 324.369 98.7482 329.319 97.8382 332.069C96.9282 334.819 95.3882 340.449 94.4082 344.569C93.4382 348.699 91.6282 355.219 90.3982 359.069C89.1682 362.919 87.3482 368.089 86.3482 370.569C85.3482 373.049 83.6182 380.469 82.5082 387.069C81.3982 393.669 79.5882 402.669 78.4982 407.069C77.3982 411.469 76.0582 417.319 75.5182 420.069C74.9682 422.819 74.0182 426.869 73.4082 429.069C72.7882 431.269 72.0582 439.369 71.7782 447.069C71.4982 454.769 70.9082 465.119 70.4682 470.069C70.0182 475.019 70.0082 481.549 70.4282 484.569C70.8582 487.589 71.2282 496.369 71.2582 504.069C71.2982 513.769 70.8282 520.069 69.7082 524.569C68.6682 528.739 68.0682 535.739 68.0082 544.069C67.9382 554.349 68.2982 558.009 69.7082 561.569C70.6882 564.049 71.8582 569.899 72.3082 574.569C72.8482 580.309 73.7982 584.209 75.2282 586.569C76.3882 588.489 77.3382 591.079 77.3482 592.319C77.3482 593.559 78.4582 597.609 79.8082 601.319C81.1582 605.029 82.9282 611.219 83.7382 615.069C84.5482 618.919 85.9182 623.419 86.7782 625.069C87.6282 626.719 88.3382 628.859 88.3382 629.819C88.3482 630.779 89.4782 633.709 90.8482 636.319C92.2282 638.929 93.3482 641.629 93.3482 642.319C93.3482 643.009 94.6182 646.379 96.1782 649.819C97.7282 653.259 99.3082 657.309 99.6782 658.819C100.048 660.329 101.488 663.259 102.878 665.319C104.268 667.379 105.398 669.629 105.378 670.319C105.358 671.009 106.978 674.609 108.958 678.319C110.948 682.029 112.948 685.299 113.408 685.569C113.858 685.839 114.968 688.089 115.868 690.569C116.758 693.049 118.278 696.199 119.248 697.569C120.218 698.949 122.718 703.219 124.808 707.069C126.908 710.919 129.388 714.969 130.338 716.069C131.278 717.169 134.148 721.109 136.698 724.819C139.258 728.529 142.468 733.929 143.848 736.819C145.218 739.709 147.698 744.089 149.348 746.569C150.988 749.049 153.078 752.649 153.968 754.569C154.858 756.489 156.458 759.199 157.518 760.569C158.568 761.949 161.328 765.909 163.638 769.379C165.958 772.849 168.748 777.169 169.848 778.979C170.948 780.799 173.988 784.819 176.598 787.929C179.208 791.029 182.138 793.789 183.098 794.049C184.058 794.319 187.778 798.369 191.348 803.069C194.918 807.759 200.488 814.849 203.718 818.829C206.938 822.809 213.078 829.669 217.348 834.069C221.618 838.469 228.278 844.769 232.138 848.069C235.998 851.369 242.018 856.139 245.508 858.669C248.998 861.209 253.648 864.209 255.848 865.339C258.048 866.469 262.138 869.349 264.938 871.739C267.738 874.119 271.948 877.199 274.288 878.569C276.628 879.949 281.088 883.129 284.198 885.659C287.308 888.179 291.428 891.059 293.348 892.059C295.268 893.059 299.618 895.949 303.008 898.479C306.388 900.999 310.658 903.969 312.488 905.069C314.328 906.169 317.858 908.319 320.338 909.839C322.818 911.359 325.748 912.909 326.848 913.279C327.948 913.649 332.788 915.899 337.598 918.259C342.408 920.629 346.578 923.019 346.848 923.569C347.118 924.119 348.138 924.559 349.098 924.549C350.058 924.539 353.098 925.669 355.848 927.059C358.598 928.449 362.648 930.039 364.848 930.599C367.048 931.149 370.648 932.469 372.848 933.519C375.048 934.579 378.868 936.099 381.348 936.909C383.828 937.719 388.098 939.159 390.848 940.099C393.598 941.049 398.098 942.709 400.848 943.799C403.598 944.899 407.868 946.149 410.348 946.589C412.828 947.039 418.218 948.369 422.348 949.559C428.168 951.229 434.318 951.909 449.848 952.599C463.558 953.209 471.268 953.979 474.348 955.069C476.828 955.939 484.468 957.239 491.348 957.949C498.218 958.669 504.968 959.829 506.348 960.539C508.158 961.469 518.848 962.069 544.848 962.689C564.648 963.149 587.148 963.279 594.848 962.969C602.548 962.659 610.868 961.779 613.348 960.999C615.828 960.229 620.998 958.719 624.848 957.649C628.698 956.579 635.218 954.719 639.348 953.519C643.468 952.309 647.968 950.539 649.348 949.579C650.718 948.619 652.968 947.499 654.348 947.089C655.718 946.679 658.428 945.379 660.348 944.209C662.268 943.039 665.068 941.409 666.558 940.579C668.048 939.749 672.318 937.379 676.058 935.309C679.788 933.249 683.298 931.549 683.848 931.549C684.398 931.549 688.898 929.519 693.848 927.049C698.798 924.569 705.768 920.719 709.348 918.489C712.928 916.259 716.748 914.249 717.848 914.019C718.948 913.789 721.448 911.679 723.408 909.339C725.368 906.989 728.578 904.169 730.548 903.069C732.518 901.969 736.988 899.049 740.488 896.569C743.988 894.089 751.968 886.899 758.228 880.569C765.638 873.069 770.428 867.329 771.978 864.069C773.278 861.319 775.668 857.049 777.288 854.569C778.908 852.089 781.368 848.269 782.768 846.069C784.158 843.869 786.168 840.269 787.228 838.069C788.298 835.869 789.938 833.399 790.888 832.569C791.848 831.739 794.138 828.709 795.988 825.819C797.838 822.929 799.338 820.229 799.328 819.819C799.318 819.409 800.218 818.059 801.328 816.819C802.438 815.579 804.038 813.109 804.888 811.319C805.738 809.529 807.558 806.489 808.928 804.569C810.298 802.649 813.178 799.049 815.338 796.569C817.488 794.089 820.368 790.049 821.728 787.569C823.098 785.089 824.928 781.489 825.808 779.569C826.688 777.649 828.088 774.949 828.928 773.569C829.768 772.199 831.138 769.489 831.958 767.569C832.788 765.649 834.878 761.369 836.598 758.069C838.318 754.769 840.288 750.949 840.978 749.569C841.658 748.199 842.918 740.879 843.778 733.319C844.648 725.759 845.868 718.559 846.498 717.319C847.128 716.079 848.028 710.119 848.508 704.069C848.978 698.019 849.628 686.319 849.948 678.069C850.278 669.819 850.678 660.589 850.838 657.569C851.008 654.549 851.468 649.149 851.878 645.569C852.418 640.729 852.168 637.279 850.868 632.069C849.448 626.329 849.068 619.119 848.758 592.069C848.478 568.119 847.958 556.879 846.858 551.069C846.018 546.669 844.838 539.699 844.238 535.569C843.628 531.449 842.468 526.049 841.658 523.569C840.838 521.089 839.538 516.369 838.768 513.069C837.998 509.769 837.638 505.719 837.968 504.069C838.308 502.419 838.978 500.509 839.468 499.819C840.118 498.899 841.328 499.549 844.098 502.329C846.158 504.399 850.888 507.779 854.598 509.829C859.748 512.689 862.468 513.569 866.098 513.559C868.928 513.549 872.868 512.619 875.848 511.249C879.658 509.489 881.568 507.769 883.848 504.009C886.658 499.379 886.848 498.449 886.818 489.069C886.788 481.539 886.258 477.589 884.678 473.069C883.518 469.769 881.848 464.589 880.968 461.569C880.098 458.549 879.368 455.059 879.358 453.819C879.348 452.169 880.078 451.409 882.098 450.989C884.088 450.559 885.818 451.089 888.348 452.889C890.268 454.259 893.878 457.339 896.348 459.739C898.818 462.139 904.168 466.349 908.228 469.089C912.288 471.829 917.008 474.839 918.728 475.779C920.448 476.719 923.428 477.939 925.348 478.479C928.438 479.349 929.198 479.159 931.848 476.869C933.498 475.449 935.448 472.879 936.168 471.169C937.038 469.139 937.378 465.129 937.148 459.569C936.878 452.889 936.178 449.679 933.918 444.569C932.338 440.999 929.508 434.469 927.648 430.069C925.778 425.669 923.818 421.279 923.298 420.319C922.518 418.889 922.758 418.569 924.598 418.559C925.838 418.559 930.678 420.179 935.348 422.179C940.018 424.169 945.878 426.169 948.348 426.619C950.818 427.079 955.098 427.489 957.848 427.529C960.598 427.569 964.198 427.119 965.848 426.539C967.588 425.919 969.988 423.709 971.568 421.269C973.138 418.829 974.828 414.129 975.598 410.069C976.728 404.049 976.698 402.229 975.378 397.049C974.538 393.739 972.948 389.769 971.848 388.219C970.748 386.679 967.708 382.639 965.088 379.239C962.468 375.849 959.478 371.269 958.448 369.069C957.418 366.869 955.058 363.689 953.208 362.009C951.358 360.329 948.118 357.629 946.008 356.009C942.848 353.589 942.408 352.849 943.508 351.819C944.248 351.129 948.898 349.249 953.848 347.639C958.798 346.029 963.918 343.669 965.238 342.389C966.548 341.119 969.018 338.049 970.738 335.569C973.558 331.489 973.848 330.369 973.798 323.569C973.768 317.779 973.278 315.269 971.658 312.569C970.498 310.639 969.308 308.169 969.018 307.069C968.718 305.969 965.638 302.129 962.168 298.529C958.688 294.939 953.378 290.599 950.348 288.899C947.318 287.189 943.718 285.469 942.348 285.059C940.968 284.659 939.178 283.729 938.348 282.989C937.518 282.239 932.798 280.249 927.848 278.559C922.898 276.869 916.038 274.829 912.598 274.029C909.158 273.229 905.108 271.929 903.598 271.149C901.488 270.049 894.318 269.599 872.848 269.209C856.348 268.909 843.208 268.229 840.848 267.559C838.648 266.919 833.248 266.029 828.848 265.559C824.448 265.099 815.678 264.279 809.348 263.749C803.018 263.209 795.598 262.439 792.848 262.039C790.098 261.639 786.718 260.739 785.348 260.029C783.968 259.329 779.468 258.469 775.348 258.109C771.218 257.759 764.928 256.979 761.348 256.369C757.768 255.759 751.698 254.429 747.848 253.419C743.998 252.399 738.148 251.569 734.848 251.569C729.598 251.579 727.598 250.939 718.848 246.489C713.348 243.689 706.148 240.529 702.848 239.469C699.548 238.409 695.498 236.509 693.848 235.249C692.198 233.989 688.368 231.589 685.348 229.919C682.328 228.249 678.718 226.609 677.348 226.279C675.968 225.949 673.158 224.529 671.098 223.129C669.038 221.719 665.658 220.289 663.598 219.949C661.538 219.609 658.718 218.319 657.348 217.079C655.968 215.839 653.608 214.539 652.098 214.199C650.588 213.849 648.108 212.539 646.598 211.269C645.088 210.009 640.468 207.459 636.348 205.599C632.218 203.749 627.498 201.189 625.848 199.929C624.198 198.659 622.508 197.609 622.098 197.599C621.688 197.579 618.308 196.159 614.598 194.429C610.888 192.709 605.368 190.199 602.348 188.859C599.328 187.509 594.148 185.019 590.848 183.319C587.548 181.619 583.718 179.399 582.348 178.379C580.968 177.359 578.498 176.239 576.848 175.889C575.198 175.529 570.468 173.459 566.348 171.269C562.218 169.089 556.368 166.059 553.348 164.549C550.328 163.039 545.148 161.039 541.848 160.119C538.548 159.199 532.468 157.079 528.348 155.419C524.218 153.759 519.048 151.599 516.848 150.619C514.648 149.639 511.268 148.499 509.348 148.089C507.428 147.679 503.828 146.439 501.348 145.329C498.868 144.219 494.598 142.979 491.848 142.569C489.098 142.169 481.678 140.829 475.348 139.589C469.018 138.349 461.598 136.499 458.848 135.469C456.098 134.429 449.798 133.109 444.848 132.519C439.898 131.939 429.098 131.309 420.848 131.129C412.598 130.949 403.828 130.959 401.348 131.149ZM408.348 145.669C403.118 146.089 391.198 146.969 381.848 147.629C372.498 148.279 363.268 149.429 361.348 150.159C359.428 150.899 353.458 152.199 348.098 153.039C342.738 153.879 335.308 155.509 331.598 156.649C327.888 157.789 321.248 159.789 316.848 161.089C312.448 162.389 305.468 163.969 301.348 164.599C297.218 165.229 291.598 166.369 288.848 167.129C286.098 167.879 280.138 168.969 275.598 169.539C271.058 170.109 265.658 171.409 263.598 172.429C261.538 173.459 257.598 175.059 254.848 175.989C252.098 176.929 247.988 178.679 245.718 179.879C243.448 181.079 238.728 184.029 235.218 186.419C231.718 188.819 227.498 191.359 225.848 192.079C224.198 192.799 218.348 197.509 212.848 202.559C207.348 207.599 201.048 212.899 198.848 214.319C196.648 215.749 190.878 220.769 186.018 225.489C181.168 230.209 175.988 234.829 174.518 235.749C173.048 236.669 169.518 240.269 166.678 243.749C163.828 247.229 159.668 251.759 157.428 253.819C155.188 255.879 153.368 258.129 153.388 258.819C153.418 259.509 152.678 260.749 151.758 261.569C150.828 262.389 146.968 267.799 143.188 273.569C139.398 279.339 136.328 284.519 136.358 285.069C136.388 285.619 135.548 287.199 134.478 288.569C133.418 289.949 132.208 292.419 131.788 294.069C131.368 295.719 128.628 302.019 125.708 308.069C122.778 314.119 120.378 319.629 120.368 320.319C120.358 321.009 119.218 323.819 117.848 326.569C116.468 329.319 115.338 332.809 115.318 334.319C115.308 335.829 114.228 338.419 112.928 340.069C111.488 341.899 109.918 346.189 108.898 351.069C107.968 355.469 106.288 362.449 105.158 366.569C104.038 370.699 102.318 375.639 101.348 377.569C100.378 379.499 99.2682 383.549 98.8782 386.569C98.4882 389.589 97.1282 395.669 95.8482 400.069C94.5682 404.469 93.2182 410.999 92.8382 414.569C92.4582 418.139 91.7182 422.199 91.1882 423.569C90.6582 424.949 89.5882 431.249 88.8082 437.569C87.9482 444.629 87.1982 463.849 86.8782 487.319C86.5082 514.289 85.9982 526.229 85.1482 527.819C84.4682 529.089 83.7582 535.709 83.5082 543.069C83.2482 551.089 83.5082 557.409 84.1982 559.569C84.8082 561.489 86.0382 568.019 86.9282 574.069C87.8182 580.119 89.1982 586.649 90.0082 588.569C90.8082 590.489 92.1382 595.219 92.9482 599.069C93.7682 602.919 95.0182 606.969 95.7282 608.069C96.4482 609.169 97.3282 611.869 97.6882 614.069C98.0482 616.269 99.4782 619.759 100.848 621.819C102.228 623.879 103.768 627.929 104.268 630.819C104.778 633.709 106.188 638.319 107.398 641.069C108.598 643.819 110.568 647.419 111.768 649.069C112.968 650.719 115.608 655.449 117.638 659.569C119.658 663.699 121.338 667.739 121.368 668.569C121.398 669.399 122.978 672.549 124.868 675.569C126.768 678.589 129.038 682.649 129.928 684.569C130.808 686.489 132.428 689.869 133.538 692.069C134.638 694.269 137.588 699.899 140.098 704.569C142.608 709.239 145.418 714.199 146.348 715.569C147.278 716.949 149.128 719.869 150.468 722.069C151.808 724.269 153.548 727.199 154.348 728.569C155.138 729.949 157.148 733.609 158.818 736.719C160.488 739.819 164.058 745.669 166.768 749.719C169.468 753.759 171.988 757.299 172.368 757.569C172.738 757.839 173.648 759.199 174.368 760.569C175.098 761.949 179.138 767.119 183.338 772.069C187.548 777.019 193.208 784.169 195.918 787.949C198.628 791.739 201.328 795.109 201.908 795.449C202.488 795.789 207.658 801.599 213.408 808.359C219.148 815.119 225.868 823.089 228.348 826.079C230.828 829.069 234.648 832.809 236.848 834.389C239.048 835.979 241.748 838.289 242.848 839.529C243.948 840.769 246.428 842.569 248.348 843.529C250.268 844.489 252.188 846.019 252.598 846.929C253.008 847.829 256.608 850.399 260.598 852.629C264.588 854.859 269.468 857.899 271.448 859.379C273.428 860.859 277.478 863.969 280.448 866.289C283.418 868.619 286.408 870.529 287.098 870.539C287.788 870.559 290.488 872.639 293.098 875.169C295.708 877.689 299.868 880.699 302.348 881.849C304.828 882.989 310.298 886.209 314.518 888.999C318.738 891.789 325.488 896.149 329.518 898.689C333.548 901.239 337.978 903.629 339.348 904.009C340.728 904.379 344.998 906.049 348.848 907.699C352.698 909.359 357.198 911.439 358.848 912.319C360.498 913.209 364.328 914.739 367.348 915.709C370.368 916.689 375.768 918.539 379.348 919.819C382.928 921.109 386.978 922.889 388.348 923.779C389.728 924.679 392.868 925.949 395.348 926.609C397.828 927.269 400.748 928.389 401.848 929.099C402.948 929.809 406.548 930.919 409.848 931.569C413.148 932.219 416.748 933.329 417.848 934.029C418.988 934.759 426.698 935.819 435.848 936.519C444.648 937.199 454.998 938.349 458.848 939.099C462.698 939.839 470.578 940.979 476.348 941.629C482.118 942.269 489.548 943.179 492.848 943.629C496.148 944.089 503.118 945.109 508.348 945.899C513.578 946.689 531.118 947.689 547.348 948.129C563.578 948.559 579.998 948.909 583.848 948.899C587.698 948.879 594.898 948.329 599.848 947.659C604.798 946.999 611.098 945.789 613.848 944.969C616.598 944.149 622.228 942.819 626.348 942.009C630.918 941.099 636.578 939.039 640.848 936.719C644.698 934.619 649.648 932.299 651.848 931.559C654.048 930.819 657.428 929.149 659.348 927.849C661.268 926.549 664.868 924.769 667.348 923.879C669.828 922.999 673.648 921.419 675.848 920.379C678.048 919.339 682.548 916.969 685.848 915.129C689.148 913.279 693.428 911.049 695.348 910.179C697.268 909.309 699.518 908.139 700.348 907.589C701.178 907.029 703.648 905.689 705.848 904.599C708.048 903.509 713.748 899.339 718.508 895.339C723.268 891.339 728.858 886.949 730.928 885.569C732.998 884.199 738.498 879.469 743.138 875.069C747.788 870.669 754.118 863.929 757.218 860.089C760.318 856.249 764.148 851.069 765.738 848.589C767.328 846.099 769.278 843.619 770.068 843.069C770.858 842.519 772.278 840.049 773.238 837.569C774.188 835.089 777.018 829.919 779.528 826.069C782.038 822.219 784.798 817.719 785.658 816.069C786.518 814.419 788.148 811.159 789.288 808.819C790.418 806.479 791.798 804.569 792.348 804.569C792.898 804.569 793.968 802.879 794.718 800.819C795.468 798.759 798.208 794.819 800.798 792.069C803.398 789.319 806.378 785.269 807.428 783.069C808.478 780.869 810.528 777.049 811.978 774.569C813.428 772.089 815.818 767.819 817.288 765.069C818.758 762.319 820.468 759.169 821.078 758.069C821.698 756.969 823.138 754.049 824.278 751.569C825.428 749.089 827.008 743.469 827.798 739.069C828.578 734.669 829.888 729.489 830.708 727.569C831.518 725.649 832.888 716.419 833.748 707.069C834.608 697.719 835.578 683.989 835.918 676.569C836.248 669.149 836.748 656.549 837.028 648.569C837.398 637.879 837.128 631.969 835.998 626.069C834.878 620.239 834.448 611.169 834.408 592.569C834.378 578.549 833.878 561.219 833.298 554.069C832.708 546.759 831.608 539.759 830.778 538.069C829.968 536.419 828.828 532.369 828.258 529.069C827.688 525.769 826.588 520.819 825.828 518.069C825.078 515.319 823.978 508.119 823.398 502.069C822.818 496.019 822.348 486.339 822.348 480.569C822.348 474.259 821.748 467.879 820.838 464.569C820.008 461.549 818.438 455.129 817.338 450.319C816.248 445.509 814.708 440.329 813.938 438.819C813.158 437.309 812.198 432.019 811.798 427.069C811.298 420.849 810.378 416.679 808.808 413.569C807.568 411.089 806.278 407.499 805.938 405.569C805.548 403.319 803.638 400.239 800.588 396.959C797.978 394.149 794.818 390.779 793.568 389.459C792.308 388.149 790.848 384.929 790.318 382.319C789.788 379.709 788.118 375.659 786.628 373.319C785.128 370.979 782.008 366.819 779.688 364.069C777.378 361.319 774.818 357.499 774.008 355.569C773.188 353.639 769.938 349.589 766.778 346.569C763.618 343.549 759.408 340.059 757.438 338.839C755.458 337.609 750.478 334.919 746.348 332.869C739.018 329.229 738.588 329.139 727.348 329.109C718.278 329.089 715.158 329.449 712.598 330.829C710.808 331.789 708.898 333.469 708.348 334.569C707.798 335.669 707.348 337.699 707.348 339.069C707.348 340.449 708.358 342.919 709.598 344.559C710.838 346.209 714.328 350.669 717.348 354.479C720.368 358.289 724.148 363.579 725.748 366.239C727.338 368.899 730.268 373.499 732.248 376.459C734.228 379.429 739.168 385.279 743.218 389.459C747.268 393.649 751.598 398.199 752.838 399.569C754.088 400.949 756.248 404.549 757.658 407.569C759.068 410.589 760.518 414.419 760.888 416.069C761.258 417.719 762.608 422.449 763.888 426.569C765.158 430.699 766.488 435.639 766.828 437.569C767.368 440.669 767.008 441.499 763.648 444.859C760.638 447.859 759.328 448.529 757.348 448.069C755.978 447.749 754.028 446.489 753.028 445.279C752.028 444.059 750.988 441.949 750.718 440.569C750.448 439.199 749.358 435.369 748.308 432.069C747.258 428.769 745.918 423.589 745.348 420.569C744.538 416.339 743.398 414.149 740.438 411.069C738.318 408.869 735.998 405.949 735.288 404.569C734.568 403.199 732.598 400.269 730.898 398.069C729.198 395.869 726.918 392.999 725.828 391.689C724.738 390.379 722.078 387.229 719.918 384.689C717.758 382.149 713.488 378.149 710.418 375.799C707.358 373.449 704.508 371.539 704.098 371.549C703.688 371.559 701.888 370.499 700.098 369.189C698.308 367.879 693.698 365.359 689.848 363.609C685.998 361.849 682.178 359.989 681.348 359.469C680.518 358.949 678.388 357.859 676.598 357.049C674.808 356.239 670.758 355.129 667.598 354.589C664.438 354.049 658.478 353.069 654.348 352.419C647.408 351.329 646.328 351.409 639.848 353.529C635.998 354.799 632.098 356.559 631.178 357.449C629.838 358.749 629.688 359.769 630.418 362.569C630.928 364.499 631.998 366.749 632.798 367.569C633.598 368.389 634.718 370.419 635.288 372.069C635.878 373.769 639.748 378.089 644.248 382.069C648.608 385.919 655.478 391.439 659.508 394.349C663.548 397.249 668.868 400.949 671.348 402.579C673.828 404.199 676.298 405.529 676.848 405.519C677.398 405.509 679.648 406.709 681.848 408.179C684.048 409.649 687.198 411.349 688.848 411.959C690.498 412.569 694.998 415.169 698.848 417.729C702.698 420.289 706.448 423.439 707.178 424.729C707.908 426.019 712.858 429.829 718.178 433.199C725.968 438.139 728.288 440.179 730.118 443.699C731.368 446.099 732.398 449.199 732.408 450.569C732.408 451.949 731.498 454.309 730.378 455.819C729.208 457.409 727.398 458.569 726.098 458.569C724.858 458.559 722.498 457.729 720.848 456.709C719.198 455.689 716.728 453.729 715.348 452.339C713.978 450.949 709.478 447.029 705.348 443.619C701.228 440.209 696.728 436.549 695.348 435.489C694.817 435.078 694.118 434.538 693.365 433.957C692.178 433.041 690.858 432.022 689.848 431.239C688.198 429.969 682.908 426.819 678.098 424.249C673.288 421.669 669.348 419.119 669.348 418.569C669.348 418.019 667.658 416.949 665.598 416.189C663.538 415.429 660.048 413.659 657.848 412.249C655.648 410.829 652.728 408.819 651.348 407.769C649.978 406.719 646.598 404.859 643.848 403.629C641.098 402.399 635.018 400.039 630.348 398.369C624.248 396.209 620.718 395.489 617.848 395.839C615.648 396.109 611.368 397.259 608.348 398.399C603.838 400.089 602.518 401.149 601.008 404.269C599.228 407.959 599.228 408.159 601.008 411.229C602.018 412.969 604.758 416.009 607.098 417.979C609.898 420.349 613.048 421.909 616.348 422.569C619.098 423.119 622.588 424.429 624.098 425.489C625.608 426.549 629.208 427.899 632.098 428.489C634.988 429.079 639.148 430.469 641.348 431.569C643.548 432.669 645.578 434.019 645.848 434.569C646.118 435.119 648.708 436.769 651.598 438.229C654.488 439.689 657.638 441.939 658.598 443.229C659.558 444.519 662.938 446.779 666.098 448.259C669.258 449.739 674.058 452.769 676.768 455.009C679.468 457.239 683.288 460.059 685.268 461.279C687.238 462.499 691.098 464.629 693.848 466.029C696.598 467.429 700.648 469.929 702.848 471.589C705.048 473.249 710.448 476.389 714.848 478.569C719.248 480.739 723.518 482.549 724.348 482.589C725.178 482.619 727.718 484.319 729.998 486.359C732.278 488.399 734.438 491.199 734.788 492.569C735.158 493.969 734.818 496.609 734.028 498.569C733.248 500.489 731.868 502.409 730.978 502.819C730.078 503.229 728.338 503.569 727.098 503.569C725.858 503.569 722.148 502.149 718.848 500.419C715.548 498.699 710.828 495.609 708.348 493.569C705.868 491.529 702.948 489.399 701.848 488.839C700.748 488.269 697.488 487.309 694.598 486.689C691.708 486.069 686.758 483.989 683.598 482.049C680.438 480.119 677.178 478.099 676.348 477.579C675.518 477.049 672.828 475.719 670.348 474.619C667.868 473.509 663.148 471.689 659.848 470.579C656.548 469.459 652.388 468.549 650.598 468.549C648.808 468.559 645.048 469.129 642.238 469.819C639.438 470.509 636.288 471.859 635.238 472.819C634.198 473.779 633.118 475.699 632.848 477.069C632.518 478.729 633.108 480.529 634.598 482.399C635.838 483.959 638.868 486.889 641.348 488.919C643.828 490.939 649.898 494.589 654.848 497.019C659.798 499.449 664.238 501.809 664.718 502.249C665.188 502.699 668.118 504.119 671.218 505.389C674.318 506.669 679.548 508.369 682.848 509.169C686.148 509.969 689.978 511.439 691.348 512.449C692.728 513.449 694.978 514.619 696.348 515.049C697.728 515.479 701.768 518.869 705.348 522.579C708.928 526.289 712.828 530.609 714.028 532.199C715.228 533.779 717.318 537.769 718.668 541.069C720.018 544.369 721.798 548.649 722.628 550.569C723.458 552.489 726.138 556.989 728.588 560.569C731.038 564.149 733.378 568.649 733.798 570.569C734.208 572.489 735.178 575.079 735.948 576.319C736.718 577.559 738.278 582.059 739.428 586.319C740.568 590.579 742.148 596.549 742.948 599.569C743.738 602.589 744.778 609.799 745.258 615.569C745.828 622.469 746.768 627.269 747.988 629.569C749.678 632.749 749.848 635.729 749.848 662.569C749.848 687.739 749.598 692.729 748.168 696.569C747.248 699.049 745.958 703.769 745.318 707.069C744.668 710.369 741.428 721.399 738.108 731.569C734.788 741.739 730.968 752.989 729.618 756.569C728.268 760.149 726.428 764.199 725.538 765.569C724.638 766.949 722.068 772.569 719.808 778.069C717.558 783.569 714.998 789.199 714.128 790.569C713.258 791.949 712.218 794.649 711.828 796.569C711.428 798.489 709.948 802.089 708.538 804.569C707.128 807.049 704.628 810.649 702.978 812.569C701.338 814.489 698.408 818.549 696.468 821.569C694.528 824.589 691.088 828.869 688.828 831.069C686.558 833.269 683.838 836.379 682.778 837.989C681.718 839.589 677.478 843.449 673.348 846.559C669.218 849.669 662.468 853.849 658.348 855.869C654.218 857.879 650.398 859.519 649.848 859.509C649.298 859.509 647.718 860.359 646.348 861.409C644.968 862.459 640.248 864.289 635.848 865.479C631.448 866.659 624.698 868.439 620.848 869.419C616.998 870.409 612.718 871.829 611.348 872.569C609.968 873.319 606.148 874.709 602.848 875.659C599.548 876.599 593.248 878.779 588.848 880.499C584.448 882.209 580.178 884.249 579.348 885.019C578.518 885.789 574.928 887.109 571.348 887.939C567.768 888.779 561.018 890.179 556.348 891.049C550.468 892.149 542.138 892.629 529.348 892.609C519.178 892.589 503.868 892.149 495.348 891.619C486.428 891.069 474.968 889.639 468.348 888.239C462.018 886.899 455.048 885.049 452.848 884.129C450.648 883.209 445.698 882.059 441.848 881.569C436.888 880.939 431.638 879.209 423.848 875.639C417.798 872.869 411.948 870.599 410.848 870.599C409.748 870.599 407.268 869.459 405.348 868.069C403.428 866.679 400.498 865.309 398.848 865.029C397.198 864.759 392.018 862.059 387.348 859.029C382.678 856.009 378.508 853.539 378.098 853.549C377.688 853.559 375.208 851.799 372.598 849.639C369.988 847.479 365.998 844.669 363.748 843.389C361.488 842.109 357.248 839.049 354.328 836.569C351.408 834.089 342.898 826.479 335.428 819.659C327.958 812.829 320.498 806.429 318.848 805.439C317.198 804.439 313.498 801.479 310.628 798.849C307.758 796.219 301.688 790.449 297.128 786.019C292.578 781.599 287.608 777.209 286.098 776.269C284.588 775.339 282.488 772.879 281.438 770.819C280.388 768.759 277.868 765.489 275.848 763.569C273.828 761.649 269.768 756.699 266.828 752.569C263.888 748.449 257.168 740.799 251.898 735.569C246.618 730.339 242.308 725.729 242.328 725.319C242.338 724.909 239.538 720.849 236.098 716.299C232.658 711.749 228.838 707.029 227.598 705.799C226.358 704.569 225.348 703.229 225.358 702.819C225.358 702.409 223.278 699.819 220.728 697.069C218.188 694.319 215.538 690.719 214.838 689.069C214.138 687.419 212.958 685.569 212.208 684.949C211.458 684.329 209.138 680.279 207.048 675.949C204.958 671.619 202.608 666.949 201.818 665.569C201.038 664.199 199.458 661.049 198.298 658.569C197.148 656.089 195.618 653.399 194.898 652.569C194.188 651.739 193.048 649.269 192.368 647.069C191.688 644.869 189.358 639.699 187.178 635.569C185.008 631.449 182.768 626.269 182.208 624.069C181.648 621.869 180.338 618.269 179.318 616.069C178.288 613.869 176.248 609.149 174.788 605.569C173.328 601.989 171.698 596.589 171.158 593.569C170.628 590.549 169.318 584.019 168.258 579.069C167.198 574.119 165.868 566.699 165.298 562.569C164.738 558.449 163.648 552.149 162.878 548.569C162.108 544.989 161.238 540.489 160.938 538.569C160.638 536.649 159.908 530.799 159.328 525.569C158.748 520.339 157.598 513.819 156.768 511.069C155.948 508.319 154.998 500.219 154.658 493.069C154.328 485.919 154.628 469.949 155.338 457.569C156.138 443.739 157.158 433.819 157.988 431.819C158.738 430.029 159.348 426.319 159.348 423.569C159.348 420.819 159.858 416.209 160.488 413.319C161.108 410.429 162.238 407.169 162.998 406.069C163.838 404.839 164.728 398.899 165.318 390.569C165.838 383.139 167.008 373.919 167.918 370.069C168.828 366.219 170.118 359.919 170.788 356.069C171.458 352.219 172.708 347.719 173.558 346.069C174.418 344.419 175.678 340.369 176.348 337.069C177.028 333.769 178.378 329.499 179.358 327.569C180.338 325.639 181.678 322.049 182.328 319.569C182.988 317.089 184.328 314.169 185.318 313.069C186.298 311.969 189.068 307.749 191.478 303.699C193.878 299.639 197.758 294.019 200.098 291.199C202.448 288.379 206.948 282.999 210.098 279.249C213.258 275.499 220.118 268.179 225.348 262.989C230.578 257.799 235.188 253.559 235.598 253.559C236.008 253.569 238.538 251.659 241.218 249.319C243.908 246.979 249.978 243.159 254.718 240.819C259.468 238.479 263.688 236.589 264.098 236.599C264.508 236.619 266.198 235.629 267.848 234.389C269.498 233.159 272.868 231.549 275.348 230.809C277.828 230.079 280.518 228.869 281.348 228.119C282.178 227.369 285.998 226.439 289.848 226.049C293.698 225.659 299.328 224.519 302.348 223.529C305.368 222.529 310.208 221.239 313.098 220.639C315.988 220.049 320.258 219.569 322.598 219.559C324.938 219.559 331.118 218.809 336.348 217.889C345.228 216.339 346.728 216.339 359.348 217.909C366.768 218.839 376.898 219.619 381.848 219.639C386.798 219.659 393.998 220.239 397.848 220.919C401.698 221.609 405.298 222.449 405.848 222.799C406.398 223.149 411.118 223.959 416.348 224.599C421.578 225.239 427.648 226.439 429.848 227.269C432.048 228.089 436.768 229.539 440.348 230.479C443.928 231.419 447.968 232.949 449.348 233.889C450.718 234.819 453.308 235.579 455.098 235.579C456.888 235.569 462.958 237.389 468.598 239.609C474.238 241.829 479.518 244.259 480.348 244.999C481.178 245.739 485.338 247.749 489.598 249.459C493.858 251.169 498.468 252.569 499.848 252.569C501.218 252.569 505.838 253.859 510.098 255.429C515.008 257.229 520.868 258.519 526.098 258.929C530.638 259.279 535.698 260.249 537.348 261.069C538.998 261.889 544.508 263.059 549.598 263.669C554.688 264.269 560.428 265.449 562.348 266.279C564.268 267.119 570.118 268.209 575.348 268.699C581.908 269.319 585.778 270.209 587.848 271.559C589.498 272.639 594.678 274.179 599.348 274.979C604.018 275.789 611.218 277.559 615.348 278.919C619.468 280.279 625.768 282.619 629.348 284.109C632.928 285.609 636.748 287.459 637.848 288.229C638.948 288.989 641.428 290.039 643.348 290.549C645.268 291.059 650.678 293.289 655.348 295.499C660.018 297.719 664.518 299.959 665.348 300.479C666.178 301.009 669.768 302.809 673.348 304.479C676.928 306.159 680.188 307.539 680.598 307.549C681.008 307.559 683.038 308.699 685.098 310.069C687.158 311.449 689.968 312.569 691.348 312.569C692.718 312.559 697.448 313.479 701.848 314.619C708.228 316.259 710.758 316.479 714.348 315.719C716.828 315.189 723.118 314.939 728.348 315.149C733.588 315.359 741.098 316.439 745.098 317.549C749.088 318.659 753.808 320.309 755.598 321.219C757.388 322.129 760.798 324.489 763.188 326.469C765.578 328.449 770.188 332.429 773.438 335.319C776.688 338.209 779.798 340.569 780.348 340.569C780.898 340.569 782.168 342.479 783.178 344.819C784.188 347.159 786.548 350.449 788.428 352.129C790.308 353.809 793.208 356.959 794.878 359.129C796.548 361.299 798.618 364.199 799.498 365.569C800.368 366.949 803.998 371.219 807.558 375.069C811.118 378.919 814.658 383.409 815.438 385.039C816.218 386.669 818.648 389.019 820.848 390.269C823.428 391.719 825.938 394.389 827.918 397.799C830.738 402.639 830.918 403.479 830.098 408.069C829.508 411.369 829.568 413.839 830.278 415.319C830.868 416.559 831.798 421.729 832.348 426.819C832.908 431.909 834.058 437.419 834.908 439.069C835.758 440.719 836.878 445.219 837.388 449.069C837.908 452.919 838.618 458.769 838.978 462.069C839.358 465.599 841.008 471.049 842.988 475.319C845.498 480.739 848.238 484.459 853.848 490.069C860.678 496.899 861.708 497.569 865.348 497.569C869.128 497.569 869.398 497.359 870.338 493.819C870.888 491.759 871.328 488.049 871.318 485.569C871.308 483.089 870.488 479.269 869.488 477.069C868.488 474.869 867.098 469.239 866.408 464.569C865.708 459.889 864.288 454.379 863.248 452.319C862.198 450.259 861.108 446.879 860.808 444.819C860.518 442.759 859.158 439.499 857.798 437.569C856.428 435.639 855.328 433.619 855.348 433.069C855.378 432.519 854.048 430.269 852.398 428.069C850.748 425.869 849.408 423.619 849.408 423.069C849.418 422.519 848.568 420.949 847.528 419.569C846.498 418.199 844.478 414.369 843.038 411.069C841.608 407.769 838.838 400.909 836.888 395.819C833.998 388.249 833.298 385.019 833.098 378.039C832.898 371.349 833.168 369.299 834.348 368.559C835.178 368.029 837.308 367.589 839.098 367.589C841.638 367.569 842.658 368.169 843.778 370.319C844.568 371.829 847.048 375.209 849.278 377.819C851.518 380.429 853.338 383.359 853.338 384.319C853.328 385.279 854.678 388.209 856.338 390.819C857.988 393.429 859.338 395.909 859.328 396.319C859.318 396.729 860.328 398.169 861.578 399.509C862.828 400.859 864.748 403.379 865.848 405.129C866.948 406.869 870.318 411.529 873.348 415.479C876.378 419.429 879.188 422.639 879.598 422.609C880.008 422.589 880.988 423.809 881.778 425.319C882.558 426.829 884.498 429.419 886.088 431.069C887.678 432.719 893.828 438.569 899.768 444.069C905.708 449.569 912.438 455.129 914.708 456.429C918.188 458.409 919.058 458.569 920.168 457.429C920.888 456.679 921.478 454.049 921.458 451.569C921.448 449.089 921.128 445.719 920.748 444.069C920.368 442.419 918.438 438.249 916.458 434.799C914.468 431.349 912.058 427.079 911.078 425.299C910.108 423.519 908.298 420.499 907.058 418.569C905.818 416.639 904.358 414.349 903.828 413.469C903.288 412.589 901.658 410.109 900.198 407.969C898.748 405.819 894.918 401.819 891.698 399.069C888.478 396.319 877.958 386.199 868.318 376.569C854.458 362.739 850.628 358.339 850.028 355.569C849.618 353.639 849.678 350.949 850.168 349.569C850.648 348.199 851.788 346.729 852.698 346.319C853.608 345.909 855.358 345.569 856.598 345.559C857.838 345.559 861.318 347.099 864.348 348.989C867.378 350.879 872.998 354.719 876.848 357.509C880.698 360.299 885.708 364.489 887.988 366.829C890.258 369.159 894.758 373.709 897.988 376.929C901.208 380.149 905.428 383.799 907.348 385.039C909.268 386.279 913.718 389.939 917.218 393.179C920.718 396.419 925.218 400.059 927.218 401.269C929.218 402.479 932.878 404.619 935.348 406.029C937.818 407.439 940.518 409.019 941.348 409.539C942.178 410.069 945.768 411.629 949.348 413.019L955.848 415.539C960.878 410.529 962.738 407.719 963.238 406.069C963.958 403.679 963.608 401.839 961.498 397.029C960.038 393.709 957.818 389.659 956.568 388.029C955.308 386.399 954.298 384.509 954.318 383.819C954.328 383.129 950.628 378.859 946.088 374.319C941.548 369.779 935.898 364.949 933.538 363.569C931.178 362.199 926.338 358.709 922.798 355.819C919.248 352.929 915.788 350.589 915.098 350.609C914.408 350.639 911.378 348.349 908.348 345.539C905.318 342.719 901.268 339.539 899.348 338.469C897.428 337.389 893.548 334.839 890.728 332.789C887.908 330.749 883.858 327.459 881.728 325.499C879.598 323.529 876.948 321.629 875.848 321.269C874.748 320.909 873.118 319.369 872.228 317.839C871.338 316.319 870.738 314.619 870.898 314.069C871.048 313.519 871.438 311.829 871.758 310.319C872.188 308.339 873.258 307.279 875.598 306.509C877.908 305.759 879.998 305.779 882.848 306.569C885.048 307.179 889.998 310.149 893.848 313.159C897.698 316.169 901.188 318.619 901.598 318.609C902.008 318.589 903.808 319.629 905.598 320.929C907.388 322.229 912.218 324.789 916.348 326.619C920.468 328.459 925.198 330.849 926.848 331.949C928.498 333.039 932.998 334.379 936.848 334.919C942.588 335.729 944.658 335.619 948.348 334.299C950.818 333.409 954.428 331.259 956.348 329.519C959.678 326.499 959.818 326.089 959.318 321.209C958.988 317.979 957.878 314.809 956.318 312.669C954.958 310.799 951.088 306.529 947.718 303.169C943.198 298.669 939.798 296.329 934.718 294.239C930.938 292.679 925.818 290.949 923.348 290.389C920.878 289.839 914.798 288.319 909.848 287.009C901.918 284.929 897.988 284.589 876.848 284.199C858.328 283.859 851.708 283.379 847.848 282.119C845.098 281.229 836.098 279.999 827.848 279.389C819.598 278.779 810.378 278.229 807.348 278.159C804.318 278.099 799.378 277.529 796.348 276.899C793.318 276.269 787.018 275.249 782.348 274.629C777.678 274.009 772.158 272.619 770.098 271.539C768.038 270.449 763.538 269.359 760.098 269.099C756.658 268.839 747.318 268.379 739.348 268.069C727.558 267.619 724.288 267.159 721.848 265.629C720.198 264.599 716.828 263.219 714.348 262.569C711.868 261.919 708.948 260.589 707.848 259.619C706.748 258.639 704.268 257.309 702.348 256.659C700.428 256.009 698.178 254.849 697.348 254.079C696.518 253.319 692.928 251.139 689.348 249.249C685.768 247.359 681.048 244.619 678.848 243.159C676.648 241.699 674.398 240.509 673.848 240.519C673.298 240.519 669.588 238.959 665.598 237.049C661.608 235.129 658.368 233.229 658.388 232.819C658.408 232.409 656.948 231.469 655.138 230.739C653.328 229.999 648.538 227.749 644.488 225.739C640.438 223.719 637.018 221.839 636.878 221.569C636.748 221.299 633.308 219.399 629.248 217.369C625.178 215.329 620.498 213.359 618.848 212.979C617.198 212.609 614.948 211.509 613.848 210.529C612.748 209.559 610.268 208.019 608.348 207.119C606.428 206.219 602.598 204.179 599.848 202.579C597.098 200.989 591.468 198.059 587.348 196.079C583.218 194.099 578.048 191.999 575.848 191.409C573.648 190.819 570.268 189.489 568.348 188.449C566.428 187.409 564.398 186.579 563.848 186.599C563.298 186.619 561.048 185.259 558.848 183.569C556.648 181.879 554.178 180.529 553.348 180.559C552.518 180.589 549.368 179.329 546.348 177.749C543.328 176.159 539.498 174.529 537.848 174.129C536.198 173.719 533.608 172.529 532.098 171.479C530.588 170.429 528.898 169.569 528.348 169.569C527.798 169.569 525.208 168.509 522.598 167.209C519.988 165.919 515.598 164.559 512.848 164.189C510.098 163.819 506.268 162.459 504.348 161.149C502.428 159.849 499.048 158.489 496.848 158.129C494.648 157.769 490.828 156.839 488.348 156.059C485.868 155.289 480.018 154.159 475.348 153.539C470.678 152.929 464.828 151.519 462.348 150.409C459.798 149.269 453.938 148.019 448.848 147.529C443.898 147.059 437.598 146.429 434.848 146.149C432.098 145.859 427.148 145.459 423.848 145.259C420.548 145.059 413.578 145.239 408.348 145.669ZM327.848 230.049C319.218 230.989 314.158 232.089 309.848 233.989C306.548 235.429 302.198 236.609 300.178 236.599C298.158 236.579 294.788 237.239 292.678 238.049C290.568 238.859 286.148 240.129 282.848 240.869C279.548 241.609 274.148 243.709 270.848 245.519C267.548 247.339 262.598 249.939 259.848 251.309C257.098 252.679 252.148 256.109 248.848 258.929C245.548 261.759 241.718 265.069 240.348 266.289C238.968 267.509 233.878 272.239 229.028 276.789C224.168 281.339 218.328 287.549 216.028 290.569C213.728 293.589 211.588 296.299 211.268 296.569C210.938 296.839 208.798 299.999 206.498 303.569C204.198 307.149 202.328 310.409 202.338 310.819C202.338 311.229 201.508 312.809 200.488 314.319C199.468 315.829 198.048 318.869 197.338 321.069C196.628 323.269 195.438 325.969 194.708 327.069C193.968 328.169 191.988 334.699 190.308 341.569C188.618 348.449 186.558 356.769 185.738 360.069C184.908 363.369 183.698 366.709 183.038 367.499C182.378 368.289 181.498 374.289 181.068 380.999C180.638 387.639 179.618 395.769 178.798 399.069C177.978 402.369 176.618 408.669 175.768 413.069C174.928 417.469 173.608 423.549 172.848 426.569C172.088 429.589 170.968 436.339 170.358 441.569C169.748 446.799 168.778 454.669 168.198 459.069C167.618 463.469 166.908 469.319 166.618 472.069C166.338 474.819 166.588 479.989 167.188 483.569C167.788 487.149 168.788 496.369 169.398 504.069C170.008 511.769 171.148 519.759 171.928 521.819C172.708 523.879 173.838 528.379 174.428 531.819C175.018 535.259 175.838 543.239 176.248 549.569C176.768 557.569 177.498 561.829 178.648 563.569C179.558 564.949 180.758 569.559 181.328 573.819C181.888 578.079 182.978 582.809 183.748 584.319C184.528 585.829 185.598 589.319 186.148 592.069C186.688 594.819 188.048 599.769 189.158 603.069L190.365 606.659C191.266 609.341 192.229 612.209 192.858 614.069C193.778 616.819 195.638 622.219 196.978 626.069C198.318 629.919 200.008 633.739 200.728 634.569C201.458 635.399 203.418 638.989 205.098 642.569C206.778 646.149 208.478 650.199 208.868 651.569C209.268 652.949 210.158 654.739 210.848 655.569C211.548 656.399 213.138 659.089 214.378 661.569C215.628 664.049 217.768 668.319 219.138 671.069C220.508 673.819 223.588 678.659 225.988 681.819C228.388 684.979 230.348 688.019 230.348 688.569C230.348 689.119 234.928 694.179 240.538 699.819C246.138 705.459 252.468 712.769 254.598 716.069C256.738 719.369 261.458 725.219 265.088 729.069C268.728 732.919 272.528 737.419 273.538 739.069C274.548 740.719 277.728 744.729 280.608 747.979C283.488 751.229 288.098 756.389 290.848 759.449C293.598 762.509 297.538 766.719 299.598 768.789C301.658 770.869 303.798 772.569 304.348 772.569C304.898 772.569 310.408 777.439 316.598 783.389C322.788 789.339 332.568 798.229 338.328 803.139C344.098 808.049 351.298 814.429 354.328 817.319C357.368 820.209 360.188 822.569 360.598 822.569C361.008 822.569 363.708 824.529 366.598 826.919C369.488 829.309 373.428 832.069 375.348 833.059C377.268 834.039 381.438 836.809 384.598 839.209C387.758 841.609 392.938 844.929 396.098 846.599C399.258 848.259 402.298 849.589 402.848 849.559C403.398 849.529 404.748 850.429 405.848 851.569C406.948 852.709 409.428 853.899 411.348 854.219C413.268 854.529 416.308 855.639 418.098 856.679C419.888 857.719 423.258 859.029 425.598 859.589C427.938 860.149 432.098 861.709 434.848 863.059C437.598 864.399 444.008 866.639 449.098 868.039C454.188 869.429 462.288 871.009 467.098 871.549C471.908 872.079 478.098 873.199 480.848 874.019C483.598 874.839 488.328 875.809 491.348 876.179C494.368 876.559 505.178 877.359 515.348 877.969C529.878 878.829 536.098 878.789 544.348 877.779C550.118 877.069 556.198 876.019 557.848 875.459C559.498 874.899 564.218 873.559 568.348 872.469C572.468 871.389 579.218 869.309 583.348 867.859C587.468 866.409 591.968 864.449 593.348 863.499C594.718 862.559 597.868 861.239 600.348 860.579C602.828 859.919 606.758 858.519 609.098 857.469C611.438 856.429 616.608 854.939 620.598 854.169C624.588 853.409 630.998 851.579 634.848 850.109C638.698 848.649 644.098 846.409 646.848 845.129C649.598 843.849 653.948 840.729 656.518 838.189C659.088 835.649 661.568 833.589 662.018 833.609C662.478 833.639 666.508 830.369 670.988 826.359C675.458 822.349 680.628 817.179 682.488 814.879C684.338 812.579 686.868 809.199 688.128 807.379C689.378 805.559 691.578 802.269 693.018 800.069C694.458 797.869 696.318 794.049 697.158 791.569C697.988 789.089 699.218 786.169 699.888 785.069C700.558 783.969 701.408 781.719 701.768 780.069C702.128 778.419 704.928 771.899 707.988 765.569C711.058 759.239 714.868 751.369 716.458 748.069C718.048 744.769 719.348 741.279 719.348 740.319C719.348 739.359 720.078 737.109 720.968 735.319C721.858 733.529 723.208 728.699 723.968 724.569C724.728 720.449 726.028 715.489 726.858 713.569C727.688 711.649 728.998 706.699 729.758 702.569C730.518 698.449 731.868 692.589 732.748 689.569C733.998 685.339 734.388 679.239 734.458 663.069C734.508 649.549 734.118 640.469 733.338 637.569C732.678 635.089 731.978 631.489 731.788 629.569C731.598 627.649 730.938 622.699 730.318 618.569C729.698 614.449 727.818 604.769 726.148 597.069C724.468 589.369 722.388 581.949 721.518 580.569C720.638 579.199 717.768 573.799 715.118 568.569C712.468 563.339 709.878 558.399 709.348 557.569C708.828 556.739 707.708 554.489 706.868 552.569C706.028 550.649 703.888 546.759 702.098 543.949C700.308 541.129 697.718 537.529 696.348 535.949C694.968 534.359 691.368 531.279 688.348 529.089C685.178 526.799 678.818 523.719 673.348 521.809C668.118 519.999 663.178 517.899 662.348 517.159C661.518 516.419 659.718 515.459 658.348 515.029C656.968 514.609 652.248 512.399 647.848 510.119C643.448 507.839 637.828 504.599 635.348 502.909C632.868 501.219 629.948 499.579 628.848 499.269C627.748 498.949 624.258 495.959 621.098 492.629C616.928 488.229 615.178 485.539 614.718 482.819C614.378 480.759 614.298 477.489 614.548 475.569C614.798 473.649 616.438 469.819 618.178 467.069C620.648 463.189 622.758 461.359 627.608 458.889C631.038 457.139 636.098 454.949 638.848 454.039L643.848 452.379C637.538 446.149 633.948 443.909 631.348 443.109C628.868 442.349 625.048 440.789 622.848 439.639C620.648 438.489 618.058 437.559 617.098 437.559C616.138 437.569 612.088 436.039 608.098 434.159C603.328 431.919 598.798 428.749 594.848 424.869C591.548 421.629 588.288 417.759 587.598 416.269C586.908 414.789 586.358 411.209 586.368 408.319C586.388 405.429 586.828 401.269 587.358 399.069C587.898 396.869 589.348 394.029 590.588 392.749C591.828 391.479 595.888 388.889 599.598 386.999C603.308 385.109 608.258 383.319 610.598 383.009C612.938 382.699 615.858 382.249 617.098 382.009C618.718 381.689 619.348 380.869 619.348 379.069C619.348 377.699 617.998 373.419 616.348 369.569C614.258 364.699 613.358 360.969 613.368 357.319C613.388 353.839 613.978 351.369 615.118 349.999C616.068 348.859 619.318 346.379 622.328 344.499L627.818 341.069L673.848 341.229C690.738 348.839 692.618 349.349 693.888 348.319C694.738 347.629 695.418 346.059 695.388 344.819C695.368 343.579 694.448 341.109 693.348 339.319C692.258 337.529 691.358 334.829 691.348 333.319C691.348 331.179 690.408 329.979 687.098 327.879C684.758 326.399 681.048 324.589 678.848 323.849C676.648 323.099 671.928 321.089 668.348 319.369C664.768 317.649 660.498 315.249 658.848 314.039C657.198 312.829 654.048 311.539 651.848 311.189C649.648 310.839 647.178 309.939 646.348 309.199C645.518 308.459 642.148 307.149 638.848 306.289C635.548 305.419 630.828 304.019 628.348 303.159C625.868 302.299 619.348 300.259 613.848 298.619C608.348 296.989 600.018 294.759 595.348 293.669C590.678 292.579 580.998 291.169 573.848 290.529C566.698 289.879 557.698 288.539 553.848 287.539C549.998 286.549 544.598 285.419 541.848 285.049C539.098 284.669 534.598 283.339 531.848 282.079C529.098 280.819 525.048 279.519 522.848 279.189C520.398 278.809 517.588 277.409 515.598 275.569C513.808 273.919 511.448 272.569 510.348 272.569C509.248 272.569 506.658 271.669 504.598 270.569C502.538 269.459 499.718 268.559 498.348 268.549C496.618 268.529 494.298 266.859 490.848 263.149C487.368 259.399 484.788 257.549 482.348 257.049C480.428 256.659 478.398 255.949 477.848 255.479C477.298 255.009 473.248 253.229 468.848 251.509C464.448 249.799 458.368 247.829 455.348 247.139C452.328 246.449 448.268 245.019 446.348 243.949C444.428 242.889 438.348 240.989 432.848 239.729C427.348 238.479 419.928 236.829 416.348 236.059C412.768 235.299 407.148 234.419 403.848 234.099C400.548 233.779 395.598 232.839 392.848 231.999C389.728 231.039 382.408 230.309 373.348 230.059C365.368 229.839 354.578 229.449 349.348 229.199C344.118 228.949 334.448 229.329 327.848 230.049Z" fill="black"/>
</svg>
