<svg width="300" height="300" viewBox="0 0 300 300" fill="none" xmlns="http://www.w3.org/2000/svg">
<path fill-rule="evenodd" clip-rule="evenodd" d="M96.0797 279.98C94.5435 278.897 93.267 277.634 93.2332 277.183C93.188 276.72 94.9614 277.228 97.1416 278.311C99.4234 279.427 100.643 280.623 99.9995 281.108C99.3782 281.57 97.616 281.063 96.0797 279.98ZM189.893 75.6411C188.696 76.2727 187.815 77.784 187.916 78.9909C188.018 80.1977 188.865 81.9459 189.803 82.8821C190.729 83.8182 192.48 84.5739 193.677 84.5739C194.875 84.5739 196.682 83.6829 197.699 82.6001C199.416 80.7617 199.325 80.412 196.366 77.5021C194.615 75.7764 192.932 74.4004 192.627 74.4342C192.31 74.4681 191.09 75.0094 189.893 75.6411ZM188.413 87.6981C187.43 88.2734 187.318 89.5253 188.018 91.9052C188.56 93.7662 189.306 96.1799 189.69 97.2626C190.085 98.4356 191.52 99.2364 193.191 99.2364C195.326 99.2364 196.501 98.2326 197.992 95.1422C199.958 91.0593 199.958 91.0254 197.145 88.8824C195.586 87.6982 193.304 86.762 192.062 86.7958C190.819 86.8297 189.181 87.2357 188.413 87.6981Z" fill="black"/>
<path fill-rule="evenodd" clip-rule="evenodd" d="M93.2332 277.183C93.267 277.634 94.5435 278.897 96.0797 279.98C97.616 281.063 99.3782 281.57 99.9995 281.108C100.643 280.623 99.4234 279.427 97.1416 278.311C94.9614 277.228 93.188 276.72 93.2332 277.183ZM189.893 75.6411C188.696 76.2727 187.815 77.784 187.916 78.9909C188.018 80.1977 188.865 81.9459 189.803 82.8821C190.729 83.8182 192.48 84.5739 193.677 84.5739C194.875 84.5739 196.682 83.6829 197.699 82.6001C199.416 80.7617 199.325 80.412 196.366 77.5021C194.615 75.7764 192.932 74.4004 192.627 74.4342C192.31 74.4681 191.09 75.0094 189.893 75.6411ZM188.413 87.6981C187.43 88.2734 187.318 89.5253 188.018 91.9052C188.56 93.7662 189.306 96.1799 189.69 97.2626C190.085 98.4356 191.52 99.2364 193.191 99.2364C195.326 99.2364 196.501 98.2326 197.992 95.1422C199.958 91.0593 199.958 91.0254 197.145 88.8824C195.586 87.6982 193.304 86.762 192.062 86.7958C190.819 86.8297 189.181 87.2357 188.413 87.6981Z" fill="white"/>
<path fill-rule="evenodd" clip-rule="evenodd" d="M189.893 75.6411C188.696 76.2727 187.815 77.784 187.916 78.9909C188.018 80.1977 188.865 81.9459 189.803 82.8821C190.729 83.8182 192.48 84.5739 193.677 84.5739C194.875 84.5739 196.682 83.6829 197.699 82.6001C199.416 80.7617 199.325 80.412 196.366 77.5021C194.615 75.7764 192.932 74.4004 192.627 74.4342C192.31 74.4681 191.09 75.0094 189.893 75.6411ZM188.413 87.6981C187.43 88.2734 187.318 89.5253 188.018 91.9052C188.56 93.7662 189.306 96.1799 189.69 97.2626C190.085 98.4356 191.52 99.2364 193.191 99.2364C195.326 99.2364 196.501 98.2326 197.992 95.1422C199.958 91.0593 199.958 91.0254 197.145 88.8824C195.586 87.6982 193.304 86.762 192.062 86.7958C190.819 86.8297 189.181 87.2357 188.413 87.6981Z" fill="black"/>
<path fill-rule="evenodd" clip-rule="evenodd" d="M187.543 63.7644C182.189 65.5916 178.236 67.8474 175.31 70.7235C172.926 73.0695 170.52 75.8779 169.944 76.9607C169.075 78.6074 169.797 79.3293 174.271 81.3256C177.219 82.634 180.009 84.2807 180.461 84.9912C180.924 85.6905 181.308 87.7884 181.331 89.6494C181.353 91.5104 180.856 94.6798 180.224 96.6987C179.591 98.7176 178.055 100.872 176.812 101.492C175.57 102.113 172.644 102.27 170.317 101.853C166.42 101.143 166.16 101.255 167.086 103.263C167.629 104.459 168.905 111.914 169.91 119.82L171.729 134.212C177.931 133.062 179.376 133.727 183.59 137.438C187.984 141.307 188.673 142.513 188.673 146.337C188.673 148.762 187.905 151.627 186.979 152.676C185.962 153.826 183.692 154.582 181.331 154.559C179.151 154.525 175.852 154.052 173.988 153.51L170.599 152.518C166.928 169.876 165.584 173.169 162.331 177.433C160.049 180.433 154.864 185.215 150.831 188.08C146.799 190.945 140.699 194.52 137.276 196.032C133.481 197.712 127.991 198.998 123.156 199.347C118.807 199.663 111.691 199.314 107.342 198.569C102.993 197.836 96.0007 196.122 91.8099 194.757C87.619 193.404 83.9365 192.67 83.6203 193.133C83.3153 193.595 84.908 196.9 87.1672 200.464C89.4377 204.028 93.5043 209.487 96.2266 212.589C98.9376 215.691 102.225 220.518 103.546 223.304C104.868 226.09 107.274 230.127 108.901 232.259C110.527 234.391 111.939 236.929 112.041 237.899C112.143 238.869 112.651 240.854 113.171 242.309C113.724 243.865 116.096 245.828 118.92 247.102C122.716 248.794 123.721 249.832 123.721 252.065C123.721 253.621 122.953 256.655 122.027 258.832L120.332 262.78C129.527 265.464 133.21 266.908 134.452 267.72C135.695 268.532 137.559 271.183 138.598 273.596C139.626 276.021 140.767 278.897 141.139 279.98C141.501 281.063 142.179 281.762 142.642 281.537C143.105 281.3 144.37 278.13 145.455 274.487C146.539 270.833 147.928 262.532 148.55 256.012C149.16 249.493 150.312 240.481 151.091 235.97C152.311 229.011 152.865 227.77 154.785 227.77C156.05 227.759 161.212 231.616 166.522 236.523C171.729 241.35 178.62 249.099 181.85 253.757C185.07 258.415 188.842 265.261 190.221 268.983C191.61 272.705 193.858 277.397 195.225 279.405C196.592 281.424 197.958 283.082 198.275 283.104C198.591 283.116 199.732 280.454 200.816 277.183C201.901 273.912 203.584 268.701 204.567 265.599C205.538 262.498 208.927 253.869 212.078 246.425C215.241 238.981 220.629 227.567 224.063 221.048C227.497 214.529 231.733 207.051 233.484 204.412C235.246 201.772 236.557 199.347 236.399 199.032C236.241 198.705 233.45 199.46 230.186 200.724C226.921 201.975 221.838 202.991 218.89 202.968C214.168 202.934 213.05 202.427 209.571 198.705C207.086 196.043 205.097 192.4 204.216 188.869C203.448 185.79 202.002 176.914 201.02 169.165C199.879 160.12 199.37 149.078 199.596 138.34L199.969 121.614C206.317 116.076 211.107 111.925 214.71 108.823C218.314 105.722 221.94 101.537 222.753 99.5184C223.578 97.4995 224.301 92.424 224.346 88.2395C224.391 84.0551 223.86 79.1037 223.148 77.2427C222.437 75.3816 220.483 72.4153 218.822 70.6445C217.15 68.8738 213.626 65.9638 210.983 64.1592C207.266 61.6214 204.973 60.9109 200.816 60.9786C197.868 61.0237 191.892 62.2869 187.543 63.7644ZM189.893 75.6411C188.696 76.2727 187.815 77.784 187.916 78.9909C188.018 80.1977 188.865 81.9459 189.803 82.8821C190.729 83.8182 192.48 84.5739 193.677 84.5739C194.875 84.5739 196.682 83.6829 197.699 82.6001C199.416 80.7617 199.325 80.412 196.366 77.5021C194.615 75.7764 192.932 74.4004 192.627 74.4342C192.31 74.4681 191.09 75.0094 189.893 75.6411ZM188.413 87.6981C187.43 88.2734 187.318 89.5253 188.018 91.9052C188.56 93.7662 189.306 96.1799 189.69 97.2626C190.085 98.4356 191.52 99.2364 193.191 99.2364C195.326 99.2364 196.501 98.2326 197.992 95.1422C199.958 91.0593 199.958 91.0254 197.145 88.8824C195.586 87.6982 193.304 86.762 192.062 86.7958C190.819 86.8297 189.181 87.2357 188.413 87.6981Z" fill="white"/>
<path fill-rule="evenodd" clip-rule="evenodd" d="M103.806 19.7205C105.444 16.6188 106.845 13.066 106.913 11.8253C106.992 10.5846 107.579 11.8479 108.223 14.645C109.115 18.5024 109.048 20.5326 107.918 23.1042C107.105 24.9652 106.246 28.7661 106.009 31.5633C105.693 35.353 106.235 37.7667 108.155 41.0714C109.963 44.1843 112.595 46.4514 116.943 48.662C120.366 50.3877 128.488 56.6926 135.017 62.6704C141.546 68.6482 149.035 74.9982 151.679 76.8028C154.435 78.6751 156.604 81.0887 156.762 82.476C156.931 83.9085 158.648 85.7582 160.998 87.0214C163.178 88.1944 165.302 89.7735 165.72 90.5291C166.149 91.2848 166.273 92.2886 166.002 92.7511C165.742 93.2135 164.884 93.5744 164.104 93.5519C163.325 93.5293 158.117 89.0178 152.526 83.525C146.934 78.0322 139.31 71.4453 135.582 68.8737C131.854 66.3134 128.172 64.2269 127.392 64.2494C126.613 64.2607 125.269 62.8734 124.399 61.1703C123.54 59.4672 121.744 57.0535 120.423 55.8128C118.322 53.8278 117.723 53.7375 115.509 55.0797C113.261 56.4444 112.018 56.1738 103.953 52.5758C98.9828 50.3539 94.0239 48.5267 92.9395 48.5154C91.855 48.4929 89.562 49.6433 87.8563 51.0644C86.1506 52.4856 83.3492 54.5158 81.6435 55.576C79.9378 56.6362 77.3962 57.4708 75.9955 57.4257C73.9283 57.358 73.8153 57.2001 75.3855 56.5798C76.4586 56.1625 79.9716 51.7524 83.2023 46.7898C86.433 41.8271 91.7195 34.9695 94.9614 31.5633C98.1921 28.1571 102.18 22.8222 103.806 19.7205Z" fill="white"/>
<path fill-rule="evenodd" clip-rule="evenodd" d="M90.1155 15.5586C92.1374 12.3329 95.3116 8.75746 97.1755 7.6183C99.7622 6.02798 101.762 5.70089 105.647 6.24228C108.438 6.63704 110.844 7.04308 110.968 7.13331C111.103 7.23482 111.544 10.3591 111.962 14.0811C112.482 18.8633 112.188 22.3372 110.968 25.9239C109.963 28.8902 109.556 32.3415 109.985 34.2364C110.392 36.0184 111.115 37.6764 111.578 37.902C112.041 38.1389 114.752 36.6839 117.61 34.665C121.948 31.5971 124.015 30.9317 130.318 30.582C134.61 30.3452 141.23 30.9317 145.748 31.9355C150.097 32.9055 157.214 34.2589 161.563 34.947C166.691 35.759 171.853 37.5411 176.247 40.0224C179.975 42.1203 186.075 46.8123 189.803 50.4441C196.095 56.5798 197.032 57.0873 202.793 57.5949C207.944 58.0461 210.169 59.0048 215.783 63.2005C220.189 66.4826 223.453 70.0242 225.114 73.3063C227.294 77.6374 227.61 79.8368 227.351 88.5215C227.113 95.8979 226.424 99.8906 224.798 103.128C223.487 105.756 219.071 110.448 214.089 114.519C209.017 118.659 204.973 122.99 204.002 125.279C202.725 128.325 202.533 132.554 203.109 145.48C203.516 154.469 204.623 167.541 205.583 174.523C206.566 181.73 208.283 189.163 209.571 191.723C210.813 194.204 212.971 197.002 214.371 197.938C215.772 198.874 218.438 199.618 220.302 199.596C222.166 199.584 226.741 198.31 230.468 196.776C234.196 195.242 237.878 193.99 238.658 193.979C239.437 193.979 240.318 194.746 240.635 195.671C240.951 196.595 239.223 200.791 236.817 204.976C234.411 209.16 230.593 216.266 228.345 220.766C226.097 225.266 224.255 230.218 224.255 231.763C224.255 233.838 225.069 234.842 227.362 235.586C229.181 236.184 231.282 236.184 232.445 235.586C233.53 235.034 236.195 231.03 238.375 226.687C240.556 222.345 243.606 218.025 245.153 217.1C247.435 215.736 248.316 215.679 249.751 216.818C250.722 217.597 251.976 219.999 252.541 222.176C253.173 224.601 253.151 228.74 252.484 232.891C251.885 236.613 250.372 243.211 249.118 247.553C247.875 251.896 245.571 262.814 244.012 271.803C242.442 280.803 240.94 289.172 240.657 290.413C240.386 291.654 238.613 294.315 236.726 296.334C234.117 299.12 232.343 300 229.339 300C226.458 300 224.967 299.312 223.826 297.462C222.968 296.064 221.951 293.278 221.567 291.259C221.138 288.992 221.77 284.255 223.239 278.852C224.572 273.923 225.329 268.634 224.967 266.727C224.617 264.866 223.431 262.52 222.313 261.505C221.206 260.49 218.653 258.843 216.631 257.84C214.609 256.836 212.835 256.001 212.677 255.979C212.519 255.956 211.491 257.862 210.384 260.208C209.277 262.554 206.916 269.299 205.154 275.187C203.38 281.085 201.144 286.409 200.172 287.029C198.873 287.864 197.789 287.571 196.038 285.901C194.728 284.661 191.96 280.341 189.882 276.314C187.803 272.288 185.736 267.72 185.273 266.163C184.821 264.618 182.246 260.039 179.568 256.012C176.891 251.986 170.611 244.621 165.618 239.658C160.625 234.695 156.31 230.883 156.028 231.199C155.734 231.515 154.706 237.087 153.723 243.606C152.752 250.125 151.961 256.971 151.961 258.832C151.972 260.693 150.911 266.276 149.611 271.239C148.301 276.202 146.268 282.168 145.082 284.492C143.896 286.815 142.156 288.721 141.23 288.721C140.168 288.721 139.095 286.917 138.361 283.928C137.728 281.288 136.576 277.408 135.819 275.311C135.074 273.201 133.187 270.528 131.628 269.355C130.081 268.182 125.879 266.851 122.298 266.412C118.717 265.96 115.791 265.216 115.803 264.754C115.803 264.291 117.215 261.336 118.92 258.201C121.665 253.159 121.835 252.313 120.332 250.903C119.406 250.023 117.113 249.008 115.249 248.625C112.595 248.095 110.821 248.704 107.059 251.422C104.416 253.328 101.366 256.182 100.282 257.772C98.6214 260.208 98.531 261.088 99.7171 263.411C100.496 264.923 102.021 266.152 103.106 266.141C104.507 266.13 105.297 267.359 105.828 270.37C106.235 272.716 106.122 276.653 105.568 279.134C105.015 281.615 103.772 284.413 102.812 285.337C101.253 286.849 100.609 286.781 96.927 284.774C94.6565 283.533 90.6012 279.472 87.924 275.75C85.2356 272.028 81.0787 266.197 78.6726 262.78C76.2666 259.362 72.8778 254.039 71.1382 250.937C69.3986 247.835 66.4729 243.775 64.6317 241.914C62.7904 240.053 60.1359 236.241 58.7352 233.455C57.3345 230.669 55.8208 226.09 55.369 223.304C54.9284 220.518 54.8719 217.089 55.256 215.691C55.6401 214.292 56.8374 212.679 57.9219 212.104C59.187 211.427 61.6834 211.529 64.8915 212.386C67.9979 213.221 70.7541 214.901 72.2339 216.864C73.5216 218.589 75.8599 221.635 77.4075 223.631C78.9663 225.616 81.5079 229.699 83.0555 232.677C84.6143 235.665 86.6363 238.857 87.5739 239.782C89.0536 241.237 89.7766 241.248 93.2219 239.85C95.3907 238.97 98.7004 236.681 103.953 231.278L101.265 225.875C99.7848 222.909 96.7349 218.251 94.487 215.51C92.2391 212.781 86.9865 205.675 82.8069 199.72C78.6274 193.776 75.5775 188.509 76.0293 188.024C76.4812 187.539 80.9092 188.599 85.8795 190.392C90.8497 192.197 100.508 194.543 107.342 195.626C114.447 196.753 122.185 197.317 125.415 196.956C128.996 196.539 134.328 194.531 139.965 191.475C144.867 188.824 151.554 184.11 154.83 181.008C158.106 177.906 161.834 173.079 163.122 170.293C164.409 167.507 165.855 161.789 166.341 157.593C167.007 151.785 166.872 149.969 165.799 149.98C165.019 149.991 162.229 147.668 159.586 144.826C156.943 141.983 151.475 137.19 147.443 134.178C143.41 131.167 138.451 126.509 136.44 123.836C134.418 121.163 131.481 116.685 129.923 113.899C128.352 111.113 126.364 107.301 125.506 105.44C124.659 103.579 121.88 96.9807 119.338 90.7773C116.808 84.5739 113.882 76.205 112.832 72.1672C111.792 68.1293 111.002 63.8208 111.092 62.5801C111.205 60.9222 109.522 59.3882 104.778 56.8054C101.219 54.8654 96.9044 52.9593 95.1987 52.5758C92.77 52.0231 91.2338 52.5984 88.1387 55.2489C85.9698 57.1099 82.5358 59.4559 80.5139 60.4597C78.266 61.5876 75.6453 62.0162 73.7363 61.5876C70.7315 60.9109 70.6412 60.674 71.0026 54.403C71.1947 50.8389 72.392 45.6393 73.6459 42.8422C74.8997 40.045 76.6054 35.9846 77.4301 33.8191C78.266 31.6535 80.6268 27.9653 82.694 25.6419C84.7612 23.3185 88.0935 18.7731 90.1155 15.5586ZM96.0797 279.98C94.5435 278.897 93.267 277.634 93.2332 277.183C93.188 276.72 94.9614 277.228 97.1416 278.311C99.4234 279.427 100.643 280.623 99.9995 281.108C99.3782 281.57 97.616 281.063 96.0797 279.98ZM187.543 63.7644C182.189 65.5916 178.236 67.8474 175.31 70.7235C172.926 73.0695 170.52 75.8779 169.944 76.9607C169.075 78.6074 169.797 79.3293 174.271 81.3256C177.219 82.634 180.009 84.2807 180.461 84.9912C180.924 85.6905 181.308 87.7884 181.331 89.6494C181.353 91.5104 180.856 94.6798 180.224 96.6987C179.591 98.7176 178.055 100.872 176.812 101.492C175.57 102.113 172.644 102.27 170.317 101.853C166.42 101.143 166.16 101.255 167.086 103.263C167.629 104.459 168.905 111.914 169.91 119.82L171.729 134.212C177.931 133.062 179.376 133.727 183.59 137.438C187.984 141.307 188.673 142.513 188.673 146.337C188.673 148.762 187.905 151.627 186.979 152.676C185.962 153.826 183.692 154.582 181.331 154.559C179.151 154.525 175.852 154.052 173.988 153.51L170.599 152.518C166.928 169.876 165.584 173.169 162.331 177.433C160.049 180.433 154.864 185.215 150.831 188.08C146.799 190.945 140.699 194.52 137.276 196.032C133.481 197.712 127.991 198.998 123.156 199.347C118.807 199.663 111.691 199.314 107.342 198.569C102.993 197.836 96.0007 196.122 91.8099 194.757C87.619 193.404 83.9365 192.67 83.6203 193.133C83.3153 193.595 84.908 196.9 87.1672 200.464C89.4377 204.028 93.5043 209.487 96.2266 212.589C98.9376 215.691 102.225 220.518 103.546 223.304C104.868 226.09 107.274 230.127 108.901 232.259C110.527 234.391 111.939 236.929 112.041 237.899C112.143 238.869 112.651 240.854 113.171 242.309C113.724 243.865 116.096 245.828 118.92 247.102C122.716 248.794 123.721 249.832 123.721 252.065C123.721 253.621 122.953 256.655 122.027 258.832L120.332 262.78C129.527 265.464 133.21 266.908 134.452 267.72C135.695 268.532 137.559 271.183 138.598 273.596C139.626 276.021 140.767 278.897 141.139 279.98C141.501 281.063 142.179 281.762 142.642 281.537C143.105 281.3 144.37 278.13 145.455 274.487C146.539 270.833 147.928 262.532 148.55 256.012C149.16 249.493 150.312 240.481 151.091 235.97C152.311 229.011 152.865 227.77 154.785 227.77C156.05 227.759 161.212 231.616 166.522 236.523C171.729 241.35 178.62 249.099 181.85 253.757C185.07 258.415 188.842 265.261 190.221 268.983C191.61 272.705 193.858 277.397 195.225 279.405C196.592 281.424 197.958 283.082 198.275 283.104C198.591 283.116 199.732 280.454 200.816 277.183C201.901 273.912 203.584 268.701 204.567 265.599C205.538 262.498 208.927 253.869 212.078 246.425C215.241 238.981 220.629 227.567 224.063 221.048C227.497 214.529 231.733 207.051 233.484 204.412C235.246 201.772 236.557 199.347 236.399 199.032C236.241 198.705 233.45 199.46 230.186 200.724C226.921 201.975 221.838 202.991 218.89 202.968C214.168 202.934 213.05 202.427 209.571 198.705C207.086 196.043 205.097 192.4 204.216 188.869C203.448 185.79 202.002 176.914 201.02 169.165C199.879 160.12 199.37 149.078 199.596 138.34L199.969 121.614C206.317 116.076 211.107 111.925 214.71 108.823C218.314 105.722 221.94 101.537 222.753 99.5184C223.578 97.4995 224.301 92.424 224.346 88.2395C224.391 84.0551 223.86 79.1037 223.148 77.2427C222.437 75.3816 220.483 72.4153 218.822 70.6445C217.15 68.8738 213.626 65.9638 210.983 64.1592C207.266 61.6214 204.973 60.9109 200.816 60.9786C197.868 61.0237 191.892 62.2869 187.543 63.7644ZM133.311 85.7018C132.86 82.9159 131.538 78.2126 130.386 75.2689C128.883 71.434 128.68 69.9227 129.674 69.9565C130.442 69.9791 133.357 71.716 136.147 73.8139C138.937 75.9117 145.613 82.1038 150.967 87.5854C159.688 96.5069 160.964 98.368 163.223 105.44C164.601 109.782 166.07 117.779 166.476 123.204C166.883 128.629 166.827 133.073 166.363 133.073C165.9 133.073 161.89 129.904 157.462 126.024C153.034 122.144 147.251 115.67 144.596 111.643C141.942 107.605 138.508 101.267 136.96 97.5446C135.412 93.8226 133.763 88.4877 133.311 85.7018ZM132.758 45.7747C128.725 46.6657 125.167 47.6921 124.851 48.0417C124.534 48.3913 125.811 49.9591 127.675 51.5381C129.539 53.1059 133.357 56.5008 136.147 59.0724C138.937 61.644 144.28 66.3924 148.007 69.6294C151.735 72.8552 155.293 75.517 155.915 75.5395C156.536 75.5621 158.648 77.2314 160.614 79.239L164.195 82.8821C165.347 75.4832 167.007 72.9905 171.447 68.7158C174.711 65.5803 178.518 62.7832 179.919 62.5125C181.319 62.2418 182.472 61.6327 182.472 61.1703C182.483 60.7079 179.817 58.7341 176.541 56.7828C173.277 54.8316 167.041 52.1134 162.692 50.7374C158.343 49.3613 152.243 47.568 149.137 46.7446C146.031 45.9326 142.721 45.0077 141.795 44.7032C140.868 44.3986 136.791 44.8836 132.758 45.7747ZM106.913 11.8253C106.845 13.066 105.444 16.6188 103.806 19.7205C102.18 22.8222 98.1921 28.1571 94.9614 31.5633C91.7195 34.9695 86.433 41.8271 83.2023 46.7898C79.9716 51.7524 76.4586 56.1625 75.3855 56.5798C73.8153 57.2001 73.9283 57.358 75.9955 57.4257C77.3962 57.4708 79.9378 56.6362 81.6435 55.576C83.3492 54.5158 86.1506 52.4856 87.8563 51.0644C89.562 49.6433 91.855 48.4929 92.9395 48.5154C94.0239 48.5267 98.9828 50.3539 103.953 52.5758C112.018 56.1738 113.261 56.4444 115.509 55.0797C117.723 53.7375 118.322 53.8278 120.423 55.8128C121.744 57.0535 123.54 59.4672 124.399 61.1703C125.269 62.8734 126.613 64.2607 127.392 64.2494C128.172 64.2269 131.854 66.3134 135.582 68.8737C139.31 71.4453 146.934 78.0322 152.526 83.525C158.117 89.0178 163.325 93.5293 164.104 93.5519C164.884 93.5744 165.742 93.2135 166.002 92.7511C166.273 92.2886 166.149 91.2848 165.72 90.5291C165.302 89.7735 163.178 88.1944 160.998 87.0214C158.648 85.7582 156.931 83.9085 156.762 82.476C156.604 81.0887 154.435 78.6751 151.679 76.8028C149.035 74.9982 141.546 68.6482 135.017 62.6704C128.488 56.6926 120.366 50.3877 116.943 48.662C112.595 46.4514 109.963 44.1843 108.155 41.0714C106.235 37.7667 105.693 35.353 106.009 31.5633C106.246 28.7661 107.105 24.9652 107.918 23.1042C109.048 20.5326 109.115 18.5024 108.223 14.645C107.579 11.8479 106.992 10.5846 106.913 11.8253Z" fill="black"/>
</svg>
