<svg width="300" height="300" viewBox="0 0 300 300" fill="none" xmlns="http://www.w3.org/2000/svg">
<path fill-rule="evenodd" clip-rule="evenodd" d="M84.7678 148.003C84.3732 147.994 84.0632 145.448 84.0632 142.347C84.0632 139.219 84.4766 136.71 85.0027 136.71C85.5194 136.71 86.1489 137.133 86.4119 137.65C86.6656 138.167 86.5622 140.713 86.1771 143.306C85.7825 145.889 85.153 148.003 84.7678 148.003ZM149.724 86.1836C149.677 84.7462 150.363 82.6135 151.246 81.4391C152.129 80.2553 153.548 79.4285 154.393 79.5883C155.314 79.7668 156.037 80.9975 156.216 82.698C156.423 84.7556 155.859 86.0709 154.102 87.6211C152.777 88.7861 151.274 89.5189 150.757 89.2652C150.241 89.0021 149.78 87.6211 149.724 86.1836ZM158.057 92.328C158.706 91.6797 159.241 90.402 159.232 89.5001C159.222 88.476 159.927 87.8559 161.092 87.8559C162.125 87.8559 163.178 88.2787 163.441 88.7954C163.694 89.3122 163.591 91.0127 163.206 92.5723C162.821 94.1225 161.862 95.6163 161.092 95.8794C160.321 96.1518 159.044 95.7196 158.273 94.9398C157.137 93.7842 157.09 93.2769 158.057 92.328Z" fill="black"/>
<path fill-rule="evenodd" clip-rule="evenodd" d="M149.724 86.1836C149.677 84.7462 150.363 82.6135 151.246 81.4391C152.129 80.2553 153.548 79.4285 154.393 79.5883C155.314 79.7668 156.037 80.9975 156.216 82.698C156.423 84.7556 155.859 86.0709 154.102 87.6211C152.777 88.7861 151.274 89.5189 150.757 89.2652C150.241 89.0021 149.78 87.6211 149.724 86.1836ZM158.057 92.328C158.706 91.6797 159.241 90.402 159.232 89.5001C159.222 88.476 159.927 87.8559 161.092 87.8559C162.125 87.8559 163.178 88.2787 163.441 88.7954C163.694 89.3122 163.591 91.0127 163.206 92.5723C162.821 94.1225 161.862 95.6163 161.092 95.8794C160.321 96.1518 159.044 95.7196 158.273 94.9398C157.137 93.7842 157.09 93.2769 158.057 92.328Z" fill="white"/>
<path fill-rule="evenodd" clip-rule="evenodd" d="M84.7678 148.003C84.3732 147.994 84.0632 145.448 84.0632 142.347C84.0632 139.219 84.4766 136.71 85.0027 136.71C85.5194 136.71 86.1489 137.133 86.4119 137.65C86.6656 138.167 86.5622 140.713 86.1771 143.306C85.7825 145.889 85.153 148.003 84.7678 148.003Z" fill="white"/>
<path fill-rule="evenodd" clip-rule="evenodd" d="M151.246 81.4391C150.363 82.6135 149.677 84.7462 149.724 86.1836C149.78 87.6211 150.241 89.0021 150.757 89.2652C151.274 89.5189 152.777 88.7861 154.102 87.6211C155.859 86.0709 156.423 84.7556 156.216 82.698C156.037 80.9975 155.314 79.7668 154.393 79.5883C153.548 79.4285 152.129 80.2553 151.246 81.4391ZM159.232 89.5001C159.241 90.402 158.706 91.6797 158.057 92.328C157.09 93.2769 157.137 93.7842 158.273 94.9398C159.044 95.7196 160.321 96.1518 161.092 95.8794C161.862 95.6163 162.821 94.1225 163.206 92.5723C163.591 91.0127 163.694 89.3122 163.441 88.7954C163.178 88.2787 162.125 87.8559 161.092 87.8559C159.927 87.8559 159.222 88.476 159.232 89.5001Z" fill="black"/>
<path fill-rule="evenodd" clip-rule="evenodd" d="M129.121 122.937C124.236 127.221 119.163 131.957 117.847 133.479C116.541 135.001 111.788 139.52 107.278 143.522C102.778 147.524 99.1044 151.545 99.1138 152.447C99.1326 153.349 98.1743 154.993 97 156.093C95.8256 157.201 93.8057 158.432 92.5186 158.836C91.2221 159.24 86.365 163.308 81.7145 167.883L73.2591 176.198C65.2453 176.283 59.5426 175.456 55.4088 174.422C51.2751 173.389 46.5119 172.299 44.8396 172.008C43.0733 171.698 41.7862 171.867 41.7862 172.412C41.7862 172.929 42.0963 173.333 42.4909 173.314C42.876 173.295 45.8354 175.193 49.0673 177.542C52.2897 179.89 58.0018 183.103 61.7504 184.691C65.4895 186.279 70.9292 189.135 73.8322 191.033C76.7258 192.931 81.5924 196.069 84.6363 198.004C87.6802 199.939 90.7993 201.903 91.5791 202.363C92.3495 202.833 95.2055 204.524 97.9207 206.131C102.656 208.94 102.825 208.968 102.242 206.939C101.904 205.774 98.5313 201.443 94.7358 197.309C89.3149 191.399 87.7084 188.994 87.2481 186.035C86.9286 183.968 87.1259 180.792 87.6896 178.988C88.2627 177.175 90.8651 173.163 93.4769 170.063C96.7933 166.145 98.0898 163.853 97.7703 162.547C97.4979 161.495 97.9958 159.935 98.8977 158.996C99.7808 158.075 100.927 157.333 101.444 157.342C101.96 157.361 105.127 154.373 108.49 150.719C111.844 147.054 118.89 140.187 124.132 135.451C129.384 130.716 135.303 124.797 137.285 122.298C140.489 118.258 140.733 117.601 139.455 116.455C138.206 115.327 136.853 116.182 129.121 122.937Z" fill="white"/>
<path fill-rule="evenodd" clip-rule="evenodd" d="M141.954 75.8772C145.431 72.4762 148.39 70.5314 151.462 69.6201C154.346 68.7557 158.245 68.4551 162.501 68.7651C166.438 69.047 170.778 70.0522 173.305 71.2642C176.236 72.6735 178.472 74.7404 180.577 77.9911C182.259 80.5747 184.1 85.0092 184.682 87.8559C185.302 90.9281 185.472 95.6821 185.077 99.5998C184.72 103.217 183.677 107.651 182.756 109.465C181.845 111.269 180.182 114.763 179.074 117.216C177.768 120.109 177.063 123.576 177.063 127.08C177.054 130.359 178.012 135.433 179.506 139.999C180.849 144.133 182.296 148.144 182.728 148.924C183.151 149.694 183.94 152.654 184.466 155.501C185.002 158.347 186.298 164.896 187.36 170.063C188.412 175.23 189.727 180.933 190.272 182.746C190.827 184.56 191.963 187.726 192.8 189.793C193.636 191.86 195.233 194.819 196.351 196.369C197.459 197.919 200.034 199.977 202.044 200.945C205.144 202.42 206.375 202.542 209.945 201.696C213.121 200.945 214.342 200.982 214.859 201.818C215.244 202.439 215.563 204.534 215.563 206.469C215.582 209.043 216.089 210.246 217.461 210.932C218.495 211.448 220.289 211.862 221.454 211.843C222.619 211.834 226.029 210.669 229.026 209.259C234.485 206.704 234.494 206.704 237.482 208.47C239.48 209.648 241.34 210.039 243.062 209.645C244.481 209.316 245.655 209.372 245.665 209.757C245.683 210.142 243.325 213.215 240.441 216.569C237.547 219.923 234.579 222.995 233.836 223.38C233.104 223.765 232.493 224.508 232.493 225.024C232.493 225.541 230.37 228.397 227.777 231.366C225.193 234.335 223.079 237.191 223.089 237.708C223.107 238.224 221.05 242.875 218.523 248.042C215.996 253.21 213.14 258.208 212.172 259.157C210.95 260.35 209.626 260.716 207.831 260.331C206.225 259.993 201.509 256.047 195.383 249.921C189.953 244.491 184.72 238.469 183.743 236.533C182.756 234.598 180.116 231.009 177.871 228.566C175.616 226.124 172.929 224.104 171.896 224.075C170.863 224.047 169.322 224.78 168.486 225.701C167.64 226.621 166.268 229.806 165.432 232.775C164.549 235.885 163.91 241.663 163.92 246.398C163.92 250.917 163.6 256.629 163.215 259.1C162.821 261.562 162.078 263.563 161.562 263.563C161.045 263.554 159.147 260.791 157.334 257.419C155.07 253.2 153.2 250.936 151.312 250.137C149.724 249.461 146.107 245.665 142.622 240.996C139.343 236.599 136.562 232.794 136.43 232.531C136.299 232.268 134.504 230.727 132.437 229.102C130.371 227.476 126.462 222.723 123.747 218.542C121.032 214.351 119.341 210.922 119.989 210.913C120.637 210.894 122.855 211.571 124.922 212.407C127.427 213.421 130.01 213.744 132.672 213.374C135.867 212.923 137.041 212.2 138.554 209.757C139.935 207.512 141.842 206.206 145.741 204.825C149.038 203.66 151.8 201.941 153.022 200.296C154.741 197.976 154.985 196.322 154.985 187.209C154.985 176.865 155.004 176.771 157.334 176.179C158.621 175.85 161.158 174.714 162.971 173.643C164.784 172.572 167.64 169.64 169.331 167.122C171.022 164.604 173.07 160.226 173.869 157.38C174.874 153.838 175.184 149.995 174.855 145.166C174.592 141.286 174.348 138.016 174.31 137.885C174.273 137.753 173.399 137.65 172.366 137.65C171.323 137.65 170.487 137.02 170.487 136.241C170.487 135.461 169.792 134.935 168.918 135.066C167.95 135.207 166.297 137.838 164.615 141.878C162.586 146.754 160.622 149.61 157.024 152.926C154.356 155.388 151.847 157.398 151.462 157.389C151.077 157.389 150.579 155.792 150.354 153.856C150.128 151.921 149.48 146.528 148.907 141.878C148.343 137.227 147.253 130.782 146.502 127.55C145.741 124.318 145.327 121.255 145.59 120.739C145.853 120.222 146.906 119.799 147.939 119.799C149.048 119.799 150.588 118.55 151.697 116.746C152.721 115.064 153.567 112.744 153.576 111.579C153.576 110.414 152.881 107.67 152.035 105.472C151.19 103.273 148.963 100.117 147.103 98.463C145.233 96.8001 142.847 95.4284 141.785 95.4096C140.724 95.3908 139.361 95.8981 138.751 96.5464C138.14 97.1947 137.313 97.3544 136.919 96.9034C136.524 96.4618 135.904 94.3479 135.547 92.2059C135.19 90.0732 135.35 86.6346 135.904 84.5677C136.59 82.0404 138.572 79.1937 141.954 75.8772ZM151.246 81.4391C150.363 82.6135 149.677 84.7462 149.724 86.1836C149.78 87.6211 150.241 89.0021 150.757 89.2652C151.274 89.5189 152.777 88.7861 154.102 87.6211C155.859 86.0709 156.423 84.7556 156.216 82.698C156.037 80.9975 155.314 79.7668 154.393 79.5883C153.548 79.4285 152.129 80.2553 151.246 81.4391ZM159.232 89.5001C159.241 90.402 158.706 91.6797 158.057 92.328C157.09 93.2769 157.137 93.7842 158.273 94.9398C159.044 95.7196 160.321 96.1518 161.092 95.8794C161.862 95.6163 162.821 94.1225 163.206 92.5723C163.591 91.0127 163.694 89.3122 163.441 88.7954C163.178 88.2787 162.125 87.8559 161.092 87.8559C159.927 87.8559 159.222 88.476 159.232 89.5001Z" fill="white"/>
<path fill-rule="evenodd" clip-rule="evenodd" d="M151.697 66.0029C148.85 66.7452 144.735 68.5866 142.537 70.0898C140.339 71.593 137.699 72.8238 136.665 72.8238C135.632 72.8238 132.353 73.7445 129.384 74.8625C126.415 75.9899 119.961 79.3252 115.057 82.2846C110.153 85.2347 103.811 89.9886 100.965 92.8353C97.0751 96.7437 94.1721 101.178 89.221 110.836C85.604 117.883 82.1279 124.572 81.489 125.718C80.8596 126.855 80.061 131.806 79.7134 136.71C79.3188 142.291 79.4597 146.867 80.0986 148.924C80.6623 150.728 82.4097 153.377 83.9974 154.796L86.8723 157.38C75.589 168.823 71.4647 172.421 70.4312 172.769C69.3978 173.107 62.4268 172.102 54.9297 170.533C47.4326 168.964 40.5649 167.902 39.663 168.165C38.4792 168.513 38.0095 169.64 38.0001 172.177C37.9907 174.319 38.6577 176.433 39.7194 177.579C40.6776 178.613 42.2184 180.933 43.1485 182.746C44.088 184.56 46.3522 188.355 48.1935 191.202C50.0255 194.049 53.248 198.117 55.3431 200.249C58.1145 203.077 60.6981 204.59 64.7943 205.811C67.8946 206.732 73.1745 209.1 76.5379 211.063C79.9013 213.036 83.0674 214.643 83.5841 214.643C84.1008 214.652 85.7919 215.291 87.342 216.08C88.8922 216.869 92.5656 217.828 95.5062 218.213C100.429 218.861 101.059 218.73 103.285 216.569C105.108 214.802 105.7 213.29 105.681 210.462C105.671 208.339 104.788 205.276 103.661 203.416C102.562 201.602 101.34 199.921 100.936 199.658C100.532 199.395 98.0334 196.435 95.384 193.081C91.6167 188.308 90.5645 186.26 90.602 183.686C90.6208 181.873 91.5885 178.866 92.7535 176.997C93.909 175.127 96.0229 172.28 97.4415 170.655L100.025 167.714C105.484 171.623 110.67 174.037 115.057 175.587C122.507 178.227 123.963 178.415 136.825 178.472L150.617 178.519C151.472 182.887 151.725 186.27 151.725 188.853C151.725 191.437 151.302 194.922 150.776 196.604C150.203 198.417 148.766 200.184 147.234 200.945C145.816 201.649 143.176 202.485 141.363 202.796C138.807 203.246 137.708 204.111 136.43 206.685C135.021 209.522 134.326 209.992 131.498 209.992C129.694 209.992 126.199 209.118 123.747 208.057C121.267 206.986 118.345 206.356 117.171 206.648C116.006 206.939 114.85 207.813 114.587 208.583C114.324 209.353 115.545 212.003 117.284 214.455C119.031 216.907 121.295 220.609 122.319 222.676C123.353 224.742 126.049 228.012 128.313 229.938C131.489 232.644 132.268 233.828 131.686 235.105C131.263 236.017 129.995 238.14 128.867 239.812C127.026 242.537 126.321 242.866 122.338 242.866C118.834 242.875 116.222 241.982 110.125 238.675C104.544 235.65 101.275 234.466 98.4468 234.448C96.2014 234.429 93.8903 235.021 93.0447 235.829C92.2368 236.599 91.5697 237.98 91.5697 238.882C91.5697 239.784 91.9173 241.795 92.3495 243.345C92.7817 244.895 94.7922 248.409 96.8121 251.143C98.8414 253.886 102.609 257.447 105.192 259.044C107.776 260.651 112.004 263.319 114.587 264.972C117.171 266.616 123.09 270.13 127.74 272.77C133.011 275.767 137.342 277.59 139.249 277.609C140.93 277.627 143.57 276.895 145.111 275.993C146.821 274.997 148.118 273.334 148.399 271.765C148.681 270.271 148.08 267.302 146.981 264.719C145.929 262.266 145.083 258.668 145.102 256.733C145.111 254.797 145.647 252.965 146.295 252.655C146.943 252.355 148.315 252.505 149.348 252.994C150.382 253.482 153.181 257.221 155.568 261.299C157.954 265.376 160.641 269.35 161.543 270.121C162.999 271.38 163.29 271.37 164.249 270.055C164.84 269.238 165.864 265.01 166.531 260.66C167.199 256.301 167.884 248.719 168.072 243.815C168.27 238.403 169.002 233.499 169.914 231.366C170.75 229.431 171.746 227.824 172.131 227.796C172.516 227.777 174.329 229.572 176.152 231.789C177.974 234.015 180.558 237.52 181.902 239.587C183.236 241.654 188.196 247.253 192.912 252.035C197.629 256.817 202.862 261.571 204.543 262.605C206.225 263.629 208.442 264.484 209.476 264.484C210.509 264.493 212.303 263.864 213.468 263.084C214.633 262.304 217.489 257.86 219.81 253.21C222.13 248.559 224.244 244.754 224.507 244.754C224.77 244.754 226.565 245.797 228.5 247.075L232.023 249.405C231.582 261.515 230.586 267.857 229.487 271.53C228.178 275.914 227.73 279.203 228.143 281.395C228.481 283.208 229.496 285.435 230.389 286.356C231.309 287.304 233.348 288.018 235.077 288C236.758 287.981 239.295 287.192 240.713 286.243C242.386 285.125 244.368 281.977 246.35 277.317C248.032 273.362 249.404 269.698 249.404 269.181C249.404 268.665 250.719 265.386 252.335 261.9C253.941 258.414 256.403 253.867 257.793 251.8C259.193 249.733 260.668 246.774 261.082 245.224C261.495 243.674 262.181 239.446 262.604 235.829C263.327 229.6 263.233 229.064 260.847 225.691C259.156 223.296 257.559 222.093 255.98 222.018C254.684 221.962 252.786 222.009 251.752 222.121C250.719 222.234 248.812 223.164 247.525 224.179C246.228 225.193 244.434 226.011 243.532 225.992C242.63 225.983 241.681 225.118 241.418 224.085C241.117 222.873 242.066 220.797 244.096 218.213C245.834 216.014 247.948 212.848 248.793 211.167C249.648 209.485 250.343 207.052 250.343 205.764C250.343 204.468 249.704 203.2 248.934 202.946C248.164 202.683 246.36 203.34 244.941 204.383C243.523 205.436 241.719 206.272 240.948 206.244C240.178 206.215 238.59 205.36 237.425 204.336L235.311 202.476C226.208 206.873 222.619 208.141 221.454 208.132C220.289 208.123 219.133 207.474 218.87 206.704C218.607 205.933 218.401 203.387 218.401 201.067C218.401 197.083 218.25 196.839 215.817 196.839C214.398 196.839 211.758 197.262 209.945 197.788C207.784 198.408 205.849 198.417 204.308 197.816C203.012 197.309 200.823 195.298 199.442 193.344C198.051 191.39 195.646 185.988 194.087 181.337C192.518 176.687 191.052 171.19 190.817 169.124C190.573 167.057 189.727 162.19 188.929 158.319C188.13 154.439 185.979 146.726 184.147 141.173C182.315 135.621 180.831 129.279 180.831 127.08C180.84 124.882 181.648 121.396 182.625 119.33C183.602 117.263 185.331 112.819 186.458 109.465C188.149 104.41 188.45 101.742 188.168 93.9627C187.895 86.193 187.407 83.6751 185.359 79.4004C183.987 76.5255 181.075 72.6547 178.801 70.6723C176.556 68.7087 173.239 66.7452 171.426 66.3036C169.613 65.8526 165.601 65.2983 162.501 65.0728C159.222 64.8286 154.703 65.2138 151.697 66.0029ZM84.7678 148.003C84.3732 147.994 84.0632 145.448 84.0632 142.347C84.0632 139.219 84.4766 136.71 85.0027 136.71C85.5194 136.71 86.1489 137.133 86.4119 137.65C86.6656 138.167 86.5622 140.713 86.1771 143.306C85.7825 145.889 85.153 148.003 84.7678 148.003ZM129.121 122.937C124.236 127.221 119.163 131.957 117.847 133.479C116.541 135.001 111.788 139.52 107.278 143.522C102.778 147.524 99.1044 151.545 99.1138 152.447C99.1326 153.349 98.1743 154.993 97 156.093C95.8256 157.201 93.8057 158.432 92.5186 158.836C91.2221 159.24 86.365 163.308 81.7145 167.883L73.2591 176.198C65.2453 176.283 59.5426 175.456 55.4088 174.422C51.2751 173.389 46.5119 172.299 44.8396 172.008C43.0733 171.698 41.7862 171.867 41.7862 172.412C41.7862 172.929 42.0963 173.333 42.4909 173.314C42.876 173.295 45.8354 175.193 49.0673 177.542C52.2897 179.89 58.0018 183.103 61.7504 184.691C65.4895 186.279 70.9292 189.135 73.8322 191.033C76.7258 192.931 81.5924 196.069 84.6363 198.004C87.6802 199.939 90.7993 201.903 91.5791 202.363C92.3495 202.833 95.2055 204.524 97.9207 206.131C102.656 208.94 102.825 208.968 102.242 206.939C101.904 205.774 98.5313 201.443 94.7358 197.309C89.3149 191.399 87.7084 188.994 87.2481 186.035C86.9286 183.968 87.1259 180.792 87.6896 178.988C88.2627 177.175 90.8651 173.163 93.4769 170.063C96.7933 166.145 98.0898 163.853 97.7703 162.547C97.4979 161.495 97.9958 159.935 98.8977 158.996C99.7808 158.075 100.927 157.333 101.444 157.342C101.96 157.361 105.127 154.373 108.49 150.719C111.844 147.054 118.89 140.187 124.132 135.451C129.384 130.716 135.303 124.797 137.285 122.298C140.489 118.258 140.733 117.601 139.455 116.455C138.206 115.327 136.853 116.182 129.121 122.937ZM141.954 75.8772C145.431 72.4762 148.39 70.5314 151.462 69.6201C154.346 68.7557 158.245 68.4551 162.501 68.7651C166.438 69.047 170.778 70.0522 173.305 71.2642C176.236 72.6735 178.472 74.7404 180.577 77.9911C182.259 80.5747 184.1 85.0092 184.682 87.8559C185.302 90.9281 185.472 95.6821 185.077 99.5998C184.72 103.217 183.677 107.651 182.756 109.465C181.845 111.269 180.182 114.763 179.074 117.216C177.768 120.109 177.063 123.576 177.063 127.08C177.054 130.359 178.012 135.433 179.506 139.999C180.849 144.133 182.296 148.144 182.728 148.924C183.151 149.694 183.94 152.654 184.466 155.501C185.002 158.347 186.298 164.896 187.36 170.063C188.412 175.23 189.727 180.933 190.272 182.746C190.827 184.56 191.963 187.726 192.8 189.793C193.636 191.86 195.233 194.819 196.351 196.369C197.459 197.919 200.034 199.977 202.044 200.945C205.144 202.42 206.375 202.542 209.945 201.696C213.121 200.945 214.342 200.982 214.859 201.818C215.244 202.439 215.563 204.534 215.563 206.469C215.582 209.043 216.089 210.246 217.461 210.932C218.495 211.448 220.289 211.862 221.454 211.843C222.619 211.834 226.029 210.669 229.026 209.259C234.485 206.704 234.494 206.704 237.482 208.47C239.48 209.648 241.34 210.039 243.062 209.645C244.481 209.316 245.655 209.372 245.665 209.757C245.683 210.142 243.325 213.215 240.441 216.569C237.547 219.923 234.579 222.995 233.836 223.38C233.104 223.765 232.493 224.508 232.493 225.024C232.493 225.541 230.37 228.397 227.777 231.366C225.193 234.335 223.079 237.191 223.089 237.708C223.107 238.224 221.05 242.875 218.523 248.042C215.996 253.21 213.14 258.208 212.172 259.157C210.95 260.35 209.626 260.716 207.831 260.331C206.225 259.993 201.509 256.047 195.383 249.921C189.953 244.491 184.72 238.469 183.743 236.533C182.756 234.598 180.116 231.009 177.871 228.566C175.616 226.124 172.929 224.104 171.896 224.075C170.863 224.047 169.322 224.78 168.486 225.701C167.64 226.621 166.268 229.806 165.432 232.775C164.549 235.885 163.91 241.663 163.92 246.398C163.92 250.917 163.6 256.629 163.215 259.1C162.821 261.562 162.078 263.563 161.562 263.563C161.045 263.554 159.147 260.791 157.334 257.419C155.07 253.2 153.2 250.936 151.312 250.137C149.724 249.461 146.107 245.665 142.622 240.996C139.343 236.599 136.562 232.794 136.43 232.531C136.299 232.268 134.504 230.727 132.437 229.102C130.371 227.476 126.462 222.723 123.747 218.542C121.032 214.351 119.341 210.922 119.989 210.913C120.637 210.894 122.855 211.571 124.922 212.407C127.427 213.421 130.01 213.744 132.672 213.374C135.867 212.923 137.041 212.2 138.554 209.757C139.935 207.512 141.842 206.206 145.741 204.825C149.038 203.66 151.8 201.941 153.022 200.296C154.741 197.976 154.985 196.322 154.985 187.209C154.985 176.865 155.004 176.771 157.334 176.179C158.621 175.85 161.158 174.714 162.971 173.643C164.784 172.572 167.64 169.64 169.331 167.122C171.022 164.604 173.07 160.226 173.869 157.38C174.874 153.838 175.184 149.995 174.855 145.166C174.592 141.286 174.348 138.016 174.31 137.885C174.273 137.753 173.399 137.65 172.366 137.65C171.323 137.65 170.487 137.02 170.487 136.241C170.487 135.461 169.792 134.935 168.918 135.066C167.95 135.207 166.297 137.838 164.615 141.878C162.586 146.754 160.622 149.61 157.024 152.926C154.356 155.388 151.847 157.398 151.462 157.389C151.077 157.389 150.579 155.792 150.354 153.856C150.128 151.921 149.48 146.528 148.907 141.878C148.343 137.227 147.253 130.782 146.502 127.55C145.741 124.318 145.327 121.255 145.59 120.739C145.853 120.222 146.906 119.799 147.939 119.799C149.048 119.799 150.588 118.55 151.697 116.746C152.721 115.064 153.567 112.744 153.576 111.579C153.576 110.414 152.881 107.67 152.035 105.472C151.19 103.273 148.963 100.117 147.103 98.463C145.233 96.8001 142.847 95.4284 141.785 95.4096C140.724 95.3908 139.361 95.8981 138.751 96.5464C138.14 97.1947 137.313 97.3544 136.919 96.9034C136.524 96.4618 135.904 94.3479 135.547 92.2059C135.19 90.0732 135.35 86.6346 135.904 84.5677C136.59 82.0404 138.572 79.1937 141.954 75.8772ZM122.733 141.408C129.037 135.461 135.707 129.044 137.548 127.127C139.39 125.22 141.269 123.632 141.72 123.604C142.171 123.576 143.129 126.62 143.852 130.369C144.566 134.117 145.149 138.871 145.149 140.938C145.139 143.005 145.515 146.171 145.985 147.985C146.445 149.788 147.084 153.49 147.385 156.205C147.939 161.128 147.939 161.138 144.895 162.021C143.213 162.509 138.666 163.176 134.796 163.496C130.061 163.9 125.044 163.609 119.529 162.613C115.001 161.805 110.247 160.612 106.62 158.789L108.941 155.501C110.219 153.687 116.419 147.346 122.733 141.408ZM122.479 95.0432C118.082 99.6186 112.943 106.101 111.045 109.465C109.157 112.828 106.536 119.17 105.23 123.557C103.915 127.945 102.552 134.08 102.195 137.18L101.556 142.817C105.098 140.224 110.359 135.348 115.527 130.312C120.694 125.277 127.571 119.264 130.812 116.953C135.801 113.401 136.703 112.321 136.703 109.934C136.693 108.384 136.289 106.693 135.791 106.176C135.303 105.66 134.42 103.33 133.837 101.009C133.255 98.6885 132.259 94.5171 131.62 91.7549L130.465 86.7285L122.479 95.0432Z" fill="black"/>
</svg>
