<svg width="300" height="300" viewBox="0 0 300 300" fill="none" xmlns="http://www.w3.org/2000/svg">
<path fill-rule="evenodd" clip-rule="evenodd" d="M183.84 58.8475C183.03 59.0772 181.924 60.2543 181.39 61.4697C180.847 62.6756 180.437 64.6662 180.475 65.872C180.523 67.0778 181.324 68.5421 182.277 69.1258C183.697 69.9967 184.479 69.6426 186.804 67.0683C188.348 65.3552 189.606 62.8861 189.606 61.5654C189.606 60.2543 188.958 58.9623 188.177 58.6944C187.395 58.436 186.423 58.2637 186.032 58.3307C185.641 58.3881 184.65 58.6274 183.84 58.8475ZM188.72 71.8533C187.881 74.3607 187.957 75.2412 189.13 76.3991C190.417 77.672 190.855 77.5476 193.19 75.2412L195.802 72.6477C192.847 69.5756 191.484 68.6952 190.874 68.7143C190.254 68.7335 189.292 70.1403 188.72 71.8533ZM153.387 129.475C152.072 129.207 150.814 128.71 150.576 128.355C150.337 128.001 151.834 128.011 153.912 128.365C155.98 128.719 159.354 129.016 161.413 129.025C163.462 129.035 164.825 129.36 164.434 129.753C164.043 130.145 161.937 130.356 159.745 130.212C157.562 130.069 154.693 129.734 153.387 129.475ZM240.913 235.426C240.828 234.986 241.113 234.335 241.552 233.991C241.99 233.637 242.915 233.349 243.62 233.349C244.316 233.349 244.888 234 244.888 234.785C244.888 235.579 244.04 236.221 242.982 236.221C241.933 236.221 241.009 235.866 240.913 235.426Z" fill="black"/>
<path fill-rule="evenodd" clip-rule="evenodd" d="M150.576 128.355C150.814 128.71 152.072 129.207 153.387 129.475C154.693 129.734 157.562 130.069 159.745 130.212C161.937 130.356 164.043 130.145 164.434 129.753C164.825 129.36 163.462 129.035 161.413 129.025C159.354 129.016 155.98 128.719 153.912 128.365C151.834 128.011 150.337 128.001 150.576 128.355ZM241.552 233.991C241.113 234.335 240.828 234.986 240.913 235.426C241.009 235.866 241.933 236.221 242.982 236.221C244.04 236.221 244.888 235.579 244.888 234.785C244.888 234 244.316 233.349 243.62 233.349C242.915 233.349 241.99 233.637 241.552 233.991ZM181.39 61.4697C181.924 60.2543 183.03 59.0772 183.84 58.8475C184.65 58.6274 185.641 58.3881 186.032 58.3307C186.423 58.2637 187.395 58.436 188.177 58.6944C188.958 58.9623 189.606 60.2543 189.606 61.5654C189.606 62.8861 188.348 65.3552 186.804 67.0683C184.479 69.6426 183.697 69.9967 182.277 69.1258C181.324 68.5421 180.523 67.0778 180.475 65.872C180.437 64.6662 180.847 62.6756 181.39 61.4697ZM189.13 76.3991C187.957 75.2412 187.881 74.3607 188.72 71.8533C189.292 70.1403 190.254 68.7335 190.874 68.7143C191.484 68.6952 192.847 69.5756 195.802 72.6477L193.19 75.2412C190.855 77.5476 190.417 77.672 189.13 76.3991Z" fill="white"/>
<path fill-rule="evenodd" clip-rule="evenodd" d="M183.84 58.8475C183.03 59.0772 181.924 60.2543 181.39 61.4697C180.847 62.6756 180.437 64.6662 180.475 65.872C180.523 67.0778 181.324 68.5421 182.277 69.1258C183.697 69.9967 184.479 69.6426 186.804 67.0683C188.348 65.3552 189.606 62.8861 189.606 61.5654C189.606 60.2543 188.958 58.9623 188.177 58.6944C187.395 58.436 186.423 58.2637 186.032 58.3307C185.641 58.3881 184.65 58.6274 183.84 58.8475ZM188.72 71.8533C187.881 74.3607 187.957 75.2412 189.13 76.3991C190.417 77.672 190.855 77.5476 193.19 75.2412L195.802 72.6477C192.847 69.5756 191.484 68.6952 190.874 68.7143C190.254 68.7335 189.292 70.1403 188.72 71.8533Z" fill="black"/>
<path fill-rule="evenodd" clip-rule="evenodd" d="M70.9131 69.2215C70.2268 64.4843 69.9028 60.1778 70.1982 59.6514C70.5032 59.1059 71.0274 59.3069 71.4373 60.1299C71.8185 60.9242 72.4 63.5082 72.724 65.872C73.0576 68.2454 74.6112 72.2266 76.1839 74.7244C77.7565 77.2222 80.0059 79.8827 81.1878 80.6291C82.3697 81.3756 85.8296 82.3422 88.8796 82.7824C93.0734 83.3853 94.7604 84.1031 95.7898 85.73C96.5427 86.9167 97.7913 87.8833 98.5824 87.8833C99.3735 87.8833 100.87 86.5913 103.825 82.1412L113.118 82.5527C118.226 82.7729 131.199 83.06 141.95 83.1748C152.701 83.2896 163.109 83.8639 165.082 84.4381C167.065 85.0218 168.685 85.7013 168.685 85.9693C168.695 86.2373 167.713 86.9072 166.522 87.4622C165.33 88.0269 162.528 88.5628 160.298 88.6585C157.603 88.7797 156.244 88.4416 156.218 87.6441C156.199 86.9263 155.723 87.1177 155.027 88.113C154.131 89.3954 151.586 89.9792 143.856 90.6778C138.347 91.1754 131.275 92.0559 128.129 92.6397C124.984 93.233 119.303 94.3336 115.501 95.0992C109.381 96.3338 108.342 96.3337 106.446 95.0514C105.264 94.257 103.443 93.6063 102.395 93.6063C101.347 93.6063 99.6309 94.1996 98.5824 94.9078C97.534 95.6256 95.1702 96.4295 93.3402 96.707C91.5102 96.975 88.3268 98.0085 86.2775 99.0038C84.2283 99.9895 82.1409 101.664 81.6548 102.717C81.0448 104.038 81.3784 107.301 82.751 113.244C83.8375 117.981 84.7144 123.58 84.6858 125.685C84.6477 127.791 84.295 130.375 83.1417 133.341L82.608 131.427C82.3125 130.375 81.7788 127.791 81.4261 125.685C81.0734 123.58 80.2537 121.216 79.6056 120.422C78.9575 119.627 77.8709 115.972 77.2037 112.287C76.5365 108.603 75.4214 103.435 74.7161 100.803C74.0203 98.1712 73.1625 91.9219 72.8098 86.9263C72.4571 81.9307 71.5993 73.9588 70.9131 69.2215Z" fill="white"/>
<path fill-rule="evenodd" clip-rule="evenodd" d="M186.27 49.5166C184.174 49.8899 180.961 50.9808 179.122 51.9379C177.282 52.8949 173.47 55.6702 170.649 58.101C167.827 60.5319 164.482 64.2451 163.224 66.3505C161.975 68.4559 161.07 71.2408 161.213 72.5424C161.47 74.7531 161.899 74.9349 167.684 75.2029C171.754 75.3943 174.947 76.1408 176.977 77.3849C178.683 78.4184 180.504 80.1315 181.028 81.1842C181.552 82.2369 181.981 83.9596 181.981 85.0123C181.981 86.065 181.228 88.5054 180.313 90.429C179.322 92.5248 177.492 94.4293 175.786 95.1566C174.213 95.8265 171.745 96.6209 170.305 96.9175C167.932 97.4056 167.713 97.7884 167.999 101.042C168.17 103.014 169.019 107.426 169.886 110.852C170.763 114.278 171.688 118.259 171.964 119.704C172.298 121.532 173.031 122.336 174.356 122.336C175.405 122.336 177.444 121.455 178.884 120.374C180.609 119.082 182.61 118.508 184.745 118.699C186.528 118.852 188.453 119.714 189.034 120.604C189.807 121.79 189.768 123.245 188.892 126.106C188.234 128.241 186.518 131.121 185.079 132.499C183.64 133.868 180.523 135.925 178.169 137.055L173.88 139.103C173.518 149.467 172.917 156.138 172.317 160.616C171.411 167.239 170.753 169.21 168.733 171.239C167.37 172.617 163.9 174.512 161.012 175.46C156.39 176.981 154.865 177.058 148.145 176.072C143.951 175.46 137.299 174.991 133.372 175.019C129.435 175.058 124.508 175.383 122.411 175.756L118.598 176.426C121.925 179.747 122.887 181.364 122.887 182.149C122.887 183.202 121.81 183.575 118.836 183.556L114.786 183.537C121.867 189.135 123.898 191.518 123.879 192.437C123.85 193.758 122.992 194.112 119.79 194.131C117.559 194.131 115.176 194.456 114.5 194.849C113.699 195.299 116.406 197.203 122.125 200.208C126.995 202.773 131.418 205.194 131.942 205.586C132.466 205.979 135.897 207.29 139.567 208.515C143.237 209.73 147.202 211.721 148.383 212.946C149.565 214.171 151.233 216.784 152.091 218.755C152.968 220.774 153.616 224.65 153.578 227.607C153.53 230.507 152.444 236.106 151.167 240.049C149.889 244.001 149.003 247.331 149.213 247.465C149.413 247.599 151.186 246.69 153.149 245.437C155.113 244.192 159.516 240.297 162.919 236.776C166.321 233.263 169.505 229.646 169.981 228.756C170.448 227.856 171.783 223.904 172.946 219.951C174.099 216.008 175.319 210.726 175.653 208.228C176.215 204.017 176.101 203.663 174.128 203.443C172.946 203.309 171.878 202.457 171.745 201.529C171.611 200.61 172.031 199.184 172.688 198.38C173.346 197.567 174.842 196.916 176.024 196.945C177.206 196.964 178.169 196.552 178.169 196.026C178.169 195.5 178.817 195.069 179.598 195.069C180.38 195.069 181.209 195.605 181.429 196.265C181.657 196.926 181.61 198.323 181.333 199.375C181.009 200.629 181.81 202.447 183.659 204.639C185.222 206.486 187.729 209.749 189.244 211.903C190.75 214.056 193.915 218.363 196.269 221.473C198.623 224.583 202.054 229.493 203.903 232.392C205.752 235.292 208.545 240.154 210.108 243.197C211.671 246.25 213.492 248.729 214.149 248.7C214.807 248.681 215.503 248.126 215.694 247.465C215.884 246.805 218.486 242.824 221.479 238.613C225.52 232.919 226.769 230.402 226.369 228.804C225.94 227.11 226.645 225.99 229.714 223.54C231.849 221.827 237.311 216.889 241.866 212.563C249.682 205.127 250.14 204.467 250.368 200.361C250.588 196.332 250.454 196.055 248.462 196.428C247.28 196.648 243.744 197.557 240.599 198.438C237.453 199.318 233.593 200.103 232.021 200.189C229.705 200.304 229.114 199.921 228.923 198.179C228.77 196.83 228.046 196.026 226.969 196.026C226.025 196.026 224.844 196.476 224.348 197.021C223.852 197.567 221.946 197.892 220.107 197.739C216.799 197.461 216.771 197.423 216.771 192.916V188.379C210.261 188.37 207.544 187.614 205.81 186.456C204.237 185.403 201.988 182.714 200.806 180.474C198.728 176.532 198.661 175.536 198.566 147.697C198.518 130.518 198.032 116.297 197.355 112.287C196.736 108.603 196.431 104.947 196.669 104.153C196.917 103.358 199.309 100.994 201.988 98.889C204.675 96.7835 208.231 92.9076 209.898 90.2759C212.119 86.754 213.006 84.1031 213.254 80.2272C213.444 77.337 212.977 71.949 212.215 68.2645C211.452 64.58 209.775 59.8428 208.488 57.7374C206.829 55.0386 204.752 53.2968 201.444 51.8422C198.861 50.7033 195.258 49.5549 193.419 49.2965C191.579 49.0381 188.367 49.1338 186.27 49.5166ZM183.84 58.8475C183.03 59.0772 181.924 60.2543 181.39 61.4697C180.847 62.6756 180.437 64.6662 180.475 65.872C180.523 67.0778 181.324 68.5421 182.277 69.1258C183.697 69.9967 184.479 69.6426 186.804 67.0683C188.348 65.3552 189.606 62.8861 189.606 61.5654C189.606 60.2543 188.958 58.9623 188.177 58.6944C187.395 58.436 186.423 58.2637 186.032 58.3307C185.641 58.3881 184.65 58.6274 183.84 58.8475ZM188.72 71.8533C187.881 74.3607 187.957 75.2412 189.13 76.3991C190.417 77.672 190.855 77.5476 193.19 75.2412L195.802 72.6477C192.847 69.5756 191.484 68.6952 190.874 68.7143C190.254 68.7335 189.292 70.1403 188.72 71.8533Z" fill="white"/>
<path fill-rule="evenodd" clip-rule="evenodd" d="M132.419 45.4684C129.016 46.2245 122.573 48.6075 118.122 50.7703C111.593 53.9476 108.533 56.2253 102.395 62.5033C96.2854 68.7526 94.5793 71.1451 93.7882 74.5425L92.8065 78.7917C86.2013 78.3419 83.4849 77.4806 82.5127 76.581C81.5405 75.691 79.9487 73.8918 78.9861 72.5711C78.0139 71.26 76.3745 65.872 75.3356 60.6084C74.2967 55.3448 72.9909 49.641 72.4381 47.928C71.8757 46.2149 70.7796 44.8177 69.9885 44.8177C69.1974 44.8177 67.5962 45.3153 66.4143 45.9182C65.2324 46.5307 62.3444 48.7319 59.9807 50.8086C57.6169 52.8949 55.0625 55.5171 54.2905 56.6464C53.5184 57.7757 52.3556 60.8477 51.7075 63.4795C50.8973 66.7524 50.783 69.7766 51.3644 73.0496C51.8219 75.6814 52.4414 82.7824 52.7369 88.8403C53.0324 94.8982 53.9188 103.617 54.7194 108.22C55.52 112.823 57.1499 118.642 58.3508 121.14C59.5518 123.637 63.3071 129.083 66.6907 133.236C70.0743 137.39 73.172 140.94 73.5628 141.132C73.9536 141.323 74.6017 140.806 74.9925 139.983C75.4214 139.084 77.5945 138.222 80.3967 137.83C84.5333 137.246 85.2291 136.806 86.3538 134.059C87.0496 132.346 87.6119 128.47 87.6119 125.446C87.6024 122.422 86.9638 117.579 86.1917 114.68C85.4197 111.78 84.7811 108.229 84.7716 106.784C84.7621 105.11 85.5436 103.626 86.9066 102.698C88.0885 101.904 90.7668 100.994 92.8637 100.679C96.619 100.114 96.7048 100.171 98.5824 104.277C99.6309 106.574 103.491 111.636 107.161 115.531C110.83 119.417 116.616 124.46 120.028 126.738C123.44 129.016 129.654 132.193 133.848 133.801C138.042 135.418 142.331 137.131 143.38 137.629C144.428 138.117 147.001 138.94 149.098 139.457C151.195 139.974 156.876 140.309 161.727 140.213L170.544 140.041C170.553 145.974 170.105 151.353 169.553 155.831C169 160.31 168.361 164.933 168.123 166.119C167.808 167.641 166.074 169.009 162.204 170.77C157.333 172.991 156.085 173.182 151.005 172.483C147.859 172.062 137.851 171.689 128.768 171.67C118.913 171.641 111.898 172.005 111.373 172.579C110.83 173.172 111.23 174.254 112.441 175.45C113.499 176.503 114.357 177.69 114.338 178.082C114.319 178.474 113.022 178.8 111.45 178.8C109.877 178.8 108.304 179.336 107.961 179.996C107.599 180.685 108.543 182.197 110.201 183.585L110.685 183.986L111.265 184.466C112.664 185.627 114.231 186.926 115.119 187.652C116.244 188.571 117.168 189.757 117.168 190.284C117.168 190.81 115.558 191.183 113.594 191.107C111.631 191.03 109.057 191.03 107.875 191.107C106.408 191.203 105.731 191.844 105.731 193.155C105.731 194.208 106.265 195.069 106.922 195.078C107.58 195.078 110.897 197.012 114.309 199.375C117.721 201.739 120.828 203.672 121.219 203.672C121.61 203.682 124.508 205.185 127.653 207.032C130.798 208.879 134.02 210.381 134.801 210.381C135.583 210.381 136.126 210.754 135.993 211.214C135.859 211.673 132.752 214.314 129.083 217.08C125.413 219.836 121.334 222.631 120.028 223.282C118.713 223.932 116.463 224.746 115.024 225.081C113.461 225.445 111.145 225.119 109.305 224.267C107.599 223.483 105.588 221.865 104.835 220.679C104.072 219.492 102.242 216.152 100.765 213.252C99.2878 210.352 98.0677 207.558 98.0582 207.032C98.0487 206.505 96.4474 203.854 94.503 201.146C92.5491 198.438 89.7755 195.308 88.3363 194.208C86.8971 193.097 84.3236 191.93 82.6175 191.595C80.9114 191.26 78.338 191.26 76.8987 191.595C74.6779 192.102 74.1442 192.887 73.3817 196.744C72.867 199.318 72.8193 203.577 73.2578 206.553C73.6772 209.453 74.8018 213.319 75.755 215.166C76.7081 217.013 79.272 221.32 81.4452 224.736C83.6278 228.153 86.1918 231.608 87.1544 232.392C88.1171 233.177 90.8049 236.412 93.1305 239.57C95.4562 242.728 98.7445 246.815 100.441 248.662C102.128 250.509 105.836 253.198 108.676 254.643C111.516 256.088 114.585 257.265 115.5 257.275C116.415 257.275 117.702 256.184 118.36 254.854C119.018 253.523 119.894 252.451 120.314 252.461C120.724 252.48 122.125 251.418 123.411 250.097C124.698 248.777 125.737 246.738 125.728 245.551C125.709 244.231 126.909 242.47 128.806 241.006C130.512 239.685 132.99 237.934 134.306 237.101C135.631 236.278 139.5 232.967 142.903 229.761C146.306 226.555 149.422 224.105 149.813 224.334C150.204 224.555 150.271 226.995 149.966 229.761C149.661 232.526 147.945 238.23 146.163 242.441C144.38 246.652 142.913 250.633 142.913 251.293C142.903 251.954 143.437 252.643 144.094 252.834C144.752 253.016 148.078 251.906 151.481 250.356C156.209 248.212 159.602 245.58 165.826 239.254L173.985 230.957C178.75 213.903 180.437 208.62 180.819 208.228C181.2 207.826 182.887 209.338 184.583 211.577C185.496 212.789 187.275 215.142 189.344 217.88C191.099 220.201 193.063 222.8 194.887 225.215C198.861 230.478 204.123 238.843 206.582 243.8C209.041 248.748 211.91 253.389 212.958 254.088C214.006 254.796 215.188 255.37 215.579 255.37C215.97 255.361 216.99 253.743 217.838 251.772C218.677 249.801 221.794 244.642 224.748 240.317C227.693 235.981 230.438 232.431 230.829 232.421C231.22 232.402 233.498 234.01 235.881 235.981C238.264 237.953 240.199 240.221 240.189 241.006C240.179 241.79 238.33 246.097 236.071 250.576C233.717 255.256 231.277 261.964 230.334 266.366C229.428 270.577 228.675 275.745 228.656 277.851C228.637 280.301 229.238 282.272 230.324 283.325C231.258 284.234 233.203 284.99 234.642 285C236.081 285.019 238.654 284.454 240.361 283.765C242.067 283.066 245.04 280.588 246.966 278.262C248.901 275.927 251.636 271.439 253.047 268.28C254.467 265.122 256.592 259.093 257.784 254.882C258.966 250.671 260.624 245.934 261.463 244.355C262.302 242.776 262.988 241.053 262.988 240.527C262.988 240.001 264.313 236.335 265.943 232.392C267.563 228.44 269.707 223.387 270.708 221.148C272.252 217.702 272.348 216.697 271.337 214.535C270.68 213.137 269.421 211.52 268.545 210.946C267.363 210.18 266.362 210.228 264.732 211.137C263.575 211.782 261.766 212.779 260.591 213.427L260.581 213.433L260.556 213.447L260.405 213.53C259.242 214.171 257.422 216.085 256.354 217.798C255.287 219.511 253.561 221.875 252.513 223.062C250.835 224.966 250.33 225.071 248.224 224.019C246.918 223.358 245.193 221.53 244.411 219.951C242.991 217.099 243.02 217.042 248.062 211.577C250.854 208.553 253.647 205.108 254.257 203.921C254.943 202.601 255.134 200.017 254.762 197.222C254.429 194.724 253.79 192.14 253.333 191.48C252.684 190.533 251.817 190.581 249.177 191.719C247.337 192.504 243.801 193.576 241.314 194.093C238.826 194.6 235.824 195.251 234.642 195.528C233.002 195.911 232.278 195.471 231.544 193.633C230.877 191.968 230.086 191.404 228.923 191.767C228.008 192.054 225.539 192.562 223.442 192.906C219.935 193.471 219.687 193.375 220.412 191.662C220.84 190.638 221.489 188.609 221.841 187.154L222.489 184.494C211.5 184.599 209.508 184.169 207.478 182.656C206.038 181.594 204.37 179.096 203.779 177.125C203.084 174.828 202.626 162.473 202.512 142.912C202.416 126.068 201.988 110.775 201.578 108.938C200.968 106.258 201.168 105.244 202.598 103.856L203.138 103.334C204.363 102.152 206.596 99.9974 208.545 98.1138C210.842 95.9127 213.721 91.9506 214.95 89.3188C216.389 86.2181 217.228 82.5145 217.333 78.7917C217.428 75.6335 216.971 70.4657 216.332 67.3075C215.694 64.1494 214.169 59.8428 212.958 57.7374C211.738 55.6319 209.527 52.7513 208.04 51.3254C206.553 49.909 203.188 47.8036 200.567 46.6456C196.507 44.8655 194.772 44.6358 188.892 45.1622C185.089 45.4972 180.59 46.4637 178.884 47.3059C176.348 48.5596 175.357 48.6266 173.403 47.6696C172.088 47.038 166.941 45.9278 161.966 45.2005C156.99 44.4827 149.689 43.9468 145.762 44.0042C141.826 44.0616 135.821 44.722 132.419 45.4684ZM153.387 129.475C152.072 129.207 150.814 128.71 150.576 128.355C150.337 128.001 151.834 128.011 153.912 128.365C155.98 128.719 159.354 129.016 161.413 129.025C163.462 129.035 164.825 129.36 164.434 129.753C164.043 130.145 161.937 130.356 159.745 130.212C157.562 130.069 154.693 129.734 153.387 129.475ZM240.913 235.426C240.828 234.986 241.113 234.335 241.552 233.991C241.99 233.637 242.915 233.349 243.62 233.349C244.316 233.349 244.888 234 244.888 234.785C244.888 235.579 244.04 236.221 242.982 236.221C241.933 236.221 241.009 235.866 240.913 235.426ZM131.465 96.0754C138.013 95.1853 145.524 94.1613 148.145 93.7881C150.766 93.4244 155.16 93.0225 162.919 92.6684L163.51 98.1712C163.834 101.195 165.13 106.899 166.388 110.852C167.646 114.795 168.666 119.427 168.657 121.14C168.647 123.044 168.085 124.432 167.208 124.728C166.426 124.996 164.167 125.207 162.204 125.207C160.24 125.207 155.303 124.556 151.243 123.771C147.183 122.977 140.749 120.852 136.946 119.053C133.143 117.245 127.462 113.809 124.317 111.416C121.172 109.024 117.14 105.875 115.367 104.411C113.585 102.956 111.764 101.655 111.316 101.521C110.868 101.387 110.497 100.851 110.497 100.325C110.497 99.7981 111.583 99.3675 112.908 99.3675C114.233 99.3675 116.273 98.9847 117.435 98.5253C118.598 98.0564 124.908 96.9558 131.465 96.0754ZM142.903 58.6465C137.928 59.8237 130.417 62.2928 126.223 64.1302C122.029 65.9773 115.92 69.4895 112.641 71.9395C109.362 74.3894 106.684 76.8298 106.684 77.3562C106.684 77.8825 107.323 78.5333 108.114 78.7917C108.905 79.0596 120.161 79.2893 133.133 79.318C146.105 79.3372 157.257 79.3372 157.915 79.318C158.839 79.2798 158.877 78.3515 158.115 75.2029C157.562 72.9635 157.4 69.8436 157.743 68.2645C158.086 66.6855 159.497 63.958 160.879 62.2066C162.452 60.216 163.033 58.7327 162.442 58.2637C161.918 57.8426 159.344 57.2876 156.723 57.01C153.578 56.6847 148.889 57.2397 142.903 58.6465ZM70.9131 69.2215C70.2268 64.4843 69.9028 60.1778 70.1982 59.6514C70.5032 59.1059 71.0274 59.3069 71.4373 60.1299C71.8185 60.9242 72.4 63.5082 72.724 65.872C73.0576 68.2454 74.6112 72.2266 76.1839 74.7244C77.7565 77.2222 80.0059 79.8827 81.1878 80.6291C82.3697 81.3756 85.8296 82.3422 88.8796 82.7824C93.0734 83.3853 94.7604 84.1031 95.7898 85.73C96.5427 86.9167 97.7913 87.8833 98.5824 87.8833C99.3735 87.8833 100.87 86.5913 103.825 82.1412L113.118 82.5527C118.226 82.7729 131.199 83.06 141.95 83.1748C152.701 83.2896 163.109 83.8639 165.082 84.4381C167.065 85.0218 168.685 85.7013 168.685 85.9693C168.695 86.2373 167.713 86.9072 166.522 87.4622C165.33 88.0269 162.528 88.5628 160.298 88.6585C157.603 88.7797 156.244 88.4416 156.218 87.6441C156.199 86.9263 155.723 87.1177 155.027 88.113C154.131 89.3954 151.586 89.9792 143.856 90.6778C138.347 91.1754 131.275 92.0559 128.129 92.6397C124.984 93.233 119.303 94.3336 115.501 95.0992C109.381 96.3338 108.342 96.3337 106.446 95.0514C105.264 94.257 103.443 93.6063 102.395 93.6063C101.347 93.6063 99.6309 94.1996 98.5824 94.9078C97.534 95.6256 95.1702 96.4295 93.3402 96.707C91.5102 96.975 88.3268 98.0085 86.2775 99.0038C84.2283 99.9895 82.1409 101.664 81.6548 102.717C81.0448 104.038 81.3784 107.301 82.751 113.244C83.8375 117.981 84.7144 123.58 84.6858 125.685C84.6477 127.791 84.295 130.375 83.1417 133.341L82.608 131.427C82.3125 130.375 81.7788 127.791 81.4261 125.685C81.0734 123.58 80.2537 121.216 79.6056 120.422C78.9575 119.627 77.8709 115.972 77.2037 112.287C76.5365 108.603 75.4214 103.435 74.7161 100.803C74.0203 98.1712 73.1625 91.9219 72.8098 86.9263C72.4571 81.9307 71.5993 73.9588 70.9131 69.2215ZM186.27 49.5166C184.174 49.8899 180.961 50.9808 179.122 51.9379C177.282 52.8949 173.47 55.6702 170.649 58.101C167.827 60.5319 164.482 64.2451 163.224 66.3505C161.975 68.4559 161.07 71.2408 161.213 72.5424C161.47 74.7531 161.899 74.9349 167.684 75.2029C171.754 75.3943 174.947 76.1408 176.977 77.3849C178.683 78.4184 180.504 80.1315 181.028 81.1842C181.552 82.2369 181.981 83.9596 181.981 85.0123C181.981 86.065 181.228 88.5054 180.313 90.429C179.322 92.5248 177.492 94.4293 175.786 95.1566C174.213 95.8265 171.745 96.6209 170.305 96.9175C167.932 97.4056 167.713 97.7884 167.999 101.042C168.17 103.014 169.019 107.426 169.886 110.852C170.763 114.278 171.688 118.259 171.964 119.704C172.298 121.532 173.031 122.336 174.356 122.336C175.405 122.336 177.444 121.455 178.884 120.374C180.609 119.082 182.61 118.508 184.745 118.699C186.528 118.852 188.453 119.714 189.034 120.604C189.807 121.79 189.768 123.245 188.892 126.106C188.234 128.241 186.518 131.121 185.079 132.499C183.64 133.868 180.523 135.925 178.169 137.055L173.88 139.103C173.518 149.467 172.917 156.138 172.317 160.616C171.411 167.239 170.753 169.21 168.733 171.239C167.37 172.617 163.9 174.512 161.012 175.46C156.39 176.981 154.865 177.058 148.145 176.072C143.951 175.46 137.299 174.991 133.372 175.019C129.435 175.058 124.508 175.383 122.411 175.756L118.598 176.426C121.925 179.747 122.887 181.364 122.887 182.149C122.887 183.202 121.81 183.575 118.836 183.556L114.786 183.537C121.867 189.135 123.898 191.518 123.879 192.437C123.85 193.758 122.992 194.112 119.79 194.131C117.559 194.131 115.176 194.456 114.5 194.849C113.699 195.299 116.406 197.203 122.125 200.208C126.995 202.773 131.418 205.194 131.942 205.586C132.466 205.979 135.897 207.29 139.567 208.515C143.237 209.73 147.202 211.721 148.383 212.946C149.565 214.171 151.233 216.784 152.091 218.755C152.968 220.774 153.616 224.65 153.578 227.607C153.53 230.507 152.444 236.106 151.167 240.049C149.889 244.001 149.003 247.331 149.213 247.465C149.413 247.599 151.186 246.69 153.149 245.437C155.113 244.192 159.516 240.297 162.919 236.776C166.321 233.263 169.505 229.646 169.981 228.756C170.448 227.856 171.783 223.904 172.946 219.951C174.099 216.008 175.319 210.726 175.653 208.228C176.215 204.017 176.101 203.663 174.128 203.443C172.946 203.309 171.878 202.457 171.745 201.529C171.611 200.61 172.031 199.184 172.688 198.38C173.346 197.567 174.842 196.916 176.024 196.945C177.206 196.964 178.169 196.552 178.169 196.026C178.169 195.5 178.817 195.069 179.598 195.069C180.38 195.069 181.209 195.605 181.429 196.265C181.657 196.926 181.61 198.323 181.333 199.375C181.009 200.629 181.81 202.447 183.659 204.639C185.222 206.486 187.729 209.749 189.244 211.903C190.75 214.056 193.915 218.363 196.269 221.473C198.623 224.583 202.054 229.493 203.903 232.392C205.752 235.292 208.545 240.154 210.108 243.197C211.671 246.25 213.492 248.729 214.149 248.7C214.807 248.681 215.503 248.126 215.694 247.465C215.884 246.805 218.486 242.824 221.479 238.613C225.52 232.919 226.769 230.402 226.369 228.804C225.94 227.11 226.645 225.99 229.714 223.54C231.849 221.827 237.311 216.889 241.866 212.563C249.682 205.127 250.14 204.467 250.368 200.361C250.588 196.332 250.454 196.055 248.462 196.428C247.28 196.648 243.744 197.557 240.599 198.438C237.453 199.318 233.593 200.103 232.021 200.189C229.705 200.304 229.114 199.921 228.923 198.179C228.77 196.83 228.046 196.026 226.969 196.026C226.025 196.026 224.844 196.476 224.348 197.021C223.852 197.567 221.946 197.892 220.107 197.739C216.799 197.461 216.771 197.423 216.771 192.916V188.379C210.261 188.37 207.544 187.614 205.81 186.456C204.237 185.403 201.988 182.714 200.806 180.474C198.728 176.532 198.661 175.536 198.566 147.697C198.518 130.518 198.032 116.297 197.355 112.287C196.736 108.603 196.431 104.947 196.669 104.153C196.917 103.358 199.309 100.994 201.988 98.889C204.675 96.7835 208.231 92.9076 209.898 90.2759C212.119 86.754 213.006 84.1031 213.254 80.2272C213.444 77.337 212.977 71.949 212.215 68.2645C211.452 64.58 209.775 59.8428 208.488 57.7374C206.829 55.0386 204.752 53.2968 201.444 51.8422C198.861 50.7033 195.258 49.5549 193.419 49.2965C191.579 49.0381 188.367 49.1338 186.27 49.5166Z" fill="black"/>
</svg>
