<svg width="48" height="48" viewBox="0 0 48 48" fill="none" xmlns="http://www.w3.org/2000/svg">
<path d="M0 0H48V48H0V0Z" fill="white"/>
<path fill-rule="evenodd" clip-rule="evenodd" d="M17.0351 39.5486C16.8469 39.416 16.6904 39.2613 16.6863 39.2061C16.6807 39.1494 16.8981 39.2116 17.1653 39.3442C17.4449 39.4809 17.5945 39.6273 17.5155 39.6867C17.4394 39.7433 17.2234 39.6812 17.0351 39.5486ZM28.5328 14.5275C28.3861 14.6048 28.2781 14.7899 28.2905 14.9377C28.303 15.0854 28.4068 15.2995 28.5217 15.4141C28.6352 15.5288 28.8498 15.6213 28.9966 15.6213C29.1433 15.6213 29.3648 15.5122 29.4894 15.3796C29.6999 15.1545 29.6888 15.1117 29.3261 14.7554C29.1115 14.5441 28.9052 14.3756 28.8678 14.3797C28.8291 14.3838 28.6795 14.4501 28.5328 14.5275ZM28.3514 16.0039C28.231 16.0743 28.2171 16.2276 28.303 16.519C28.3694 16.7469 28.4608 17.0424 28.5079 17.175C28.5563 17.3186 28.7322 17.4167 28.937 17.4167C29.1987 17.4167 29.3427 17.2938 29.5254 16.9154C29.7663 16.4154 29.7663 16.4113 29.4216 16.1489C29.2305 16.0039 28.9509 15.8892 28.7986 15.8934C28.6463 15.8975 28.4456 15.9472 28.3514 16.0039Z" fill="black"/>
<path fill-rule="evenodd" clip-rule="evenodd" d="M16.6863 39.2061C16.6904 39.2613 16.8469 39.416 17.0351 39.5486C17.2234 39.6812 17.4394 39.7433 17.5155 39.6867C17.5945 39.6273 17.4449 39.4809 17.1653 39.3442C16.8981 39.2116 16.6807 39.1494 16.6863 39.2061ZM28.5328 14.5275C28.3861 14.6048 28.2781 14.7899 28.2905 14.9377C28.303 15.0854 28.4068 15.2995 28.5217 15.4141C28.6352 15.5288 28.8498 15.6213 28.9966 15.6213C29.1433 15.6213 29.3648 15.5122 29.4894 15.3796C29.6999 15.1545 29.6888 15.1117 29.3261 14.7554C29.1115 14.5441 28.9052 14.3756 28.8678 14.3797C28.8291 14.3838 28.6795 14.4501 28.5328 14.5275ZM28.3514 16.0039C28.231 16.0743 28.2171 16.2276 28.303 16.519C28.3694 16.7469 28.4608 17.0424 28.5079 17.175C28.5563 17.3186 28.7322 17.4167 28.937 17.4167C29.1987 17.4167 29.3427 17.2938 29.5254 16.9154C29.7663 16.4154 29.7663 16.4113 29.4216 16.1489C29.2305 16.0039 28.9509 15.8892 28.7986 15.8934C28.6463 15.8975 28.4456 15.9472 28.3514 16.0039Z" fill="white"/>
<path fill-rule="evenodd" clip-rule="evenodd" d="M28.5328 14.5275C28.3861 14.6048 28.2781 14.7899 28.2905 14.9377C28.303 15.0854 28.4068 15.2995 28.5217 15.4141C28.6352 15.5288 28.8498 15.6213 28.9966 15.6213C29.1433 15.6213 29.3648 15.5122 29.4894 15.3796C29.6999 15.1545 29.6888 15.1117 29.3261 14.7554C29.1115 14.5441 28.9052 14.3756 28.8678 14.3797C28.8291 14.3838 28.6795 14.4501 28.5328 14.5275ZM28.3514 16.0039C28.231 16.0743 28.2171 16.2276 28.303 16.519C28.3694 16.7469 28.4608 17.0424 28.5079 17.175C28.5563 17.3186 28.7322 17.4167 28.937 17.4167C29.1987 17.4167 29.3427 17.2938 29.5254 16.9154C29.7663 16.4154 29.7663 16.4113 29.4216 16.1489C29.2305 16.0039 28.9509 15.8892 28.7986 15.8934C28.6463 15.8975 28.4456 15.9472 28.3514 16.0039Z" fill="black"/>
<path fill-rule="evenodd" clip-rule="evenodd" d="M28.2448 13.0732C27.5886 13.2969 27.1041 13.5731 26.7455 13.9253C26.4534 14.2126 26.1585 14.5565 26.0879 14.6891C25.9813 14.8907 26.0699 14.9791 26.6181 15.2235C26.9795 15.3838 27.3214 15.5854 27.3768 15.6724C27.4336 15.758 27.4806 16.0149 27.4834 16.2428C27.4862 16.4707 27.4253 16.8587 27.3477 17.106C27.2702 17.3532 27.0819 17.617 26.9296 17.6929C26.7773 17.7689 26.4188 17.7882 26.1336 17.7371C25.656 17.6501 25.6241 17.6639 25.7376 17.9098C25.8041 18.0561 25.9605 18.969 26.0838 19.9372L26.3066 21.6994C27.0667 21.5586 27.2439 21.6401 27.7603 22.0944C28.2988 22.5681 28.3833 22.7159 28.3833 23.1841C28.3833 23.481 28.2891 23.8318 28.1756 23.9603C28.051 24.1012 27.7728 24.1937 27.4834 24.1909C27.2162 24.1868 26.812 24.1288 26.5835 24.0625L26.1682 23.9409C25.7183 26.0664 25.5535 26.4697 25.1548 26.9918C24.8751 27.3591 24.2397 27.9447 23.7455 28.2955C23.2512 28.6463 22.5036 29.0841 22.0841 29.2692C21.619 29.4749 20.9461 29.6324 20.3536 29.6752C19.8206 29.7139 18.9484 29.6711 18.4154 29.5799C17.8824 29.4901 17.0255 29.2802 16.5118 29.1131C15.9982 28.9474 15.5469 28.8576 15.5081 28.9142C15.4707 28.9709 15.6659 29.3755 15.9428 29.8119C16.2211 30.2484 16.7195 30.9168 17.0531 31.2966C17.3854 31.6764 17.7883 32.2675 17.9503 32.6086C18.1122 32.9498 18.4071 33.4442 18.6065 33.7052C18.8058 33.9662 18.9789 34.277 18.9913 34.3958C19.0038 34.5145 19.0661 34.7576 19.1298 34.9358C19.1976 35.1263 19.4883 35.3667 19.8345 35.5227C20.2996 35.7299 20.4228 35.8569 20.4228 36.1304C20.4228 36.321 20.3287 36.6925 20.2152 36.959L20.0075 37.4424C21.1344 37.7711 21.5858 37.9479 21.738 38.0473C21.8903 38.1468 22.1188 38.4713 22.2461 38.7669C22.3721 39.0638 22.5119 39.416 22.5576 39.5486C22.6019 39.6812 22.685 39.7668 22.7417 39.7392C22.7985 39.7102 22.9536 39.3221 23.0865 38.876C23.2194 38.4285 23.3897 37.412 23.4658 36.6138C23.5406 35.8155 23.6818 34.712 23.7773 34.1596C23.9268 33.3075 23.9947 33.1555 24.23 33.1555C24.3851 33.1542 25.0177 33.6265 25.6684 34.2273C26.3066 34.8184 27.1511 35.7672 27.5471 36.3376C27.9417 36.9079 28.404 37.7463 28.5729 38.202C28.7432 38.6578 29.0187 39.2323 29.1862 39.4781C29.3538 39.7254 29.5213 39.9284 29.56 39.9311C29.5988 39.9325 29.7386 39.6066 29.8715 39.2061C30.0044 38.8056 30.2107 38.1675 30.3312 37.7877C30.4502 37.4079 30.8656 36.3514 31.2518 35.4398C31.6394 34.5283 32.2998 33.1307 32.7207 32.3324C33.1416 31.5341 33.6607 30.6185 33.8753 30.2953C34.0913 29.9721 34.2519 29.6752 34.2325 29.6365C34.2131 29.5965 33.8711 29.689 33.471 29.8437C33.0709 29.997 32.448 30.1213 32.0866 30.1185C31.5079 30.1144 31.3709 30.0522 30.9445 29.5965C30.6399 29.2705 30.3962 28.8245 30.2882 28.3922C30.1941 28.0151 30.0169 26.9282 29.8965 25.9794C29.7566 24.8718 29.6943 23.5197 29.722 22.2049L29.7677 20.1568C30.5458 19.4787 31.1328 18.9704 31.5744 18.5906C32.016 18.2108 32.4604 17.6984 32.5601 17.4512C32.6612 17.204 32.7498 16.5825 32.7553 16.0701C32.7608 15.5578 32.6958 14.9515 32.6085 14.7236C32.5213 14.4957 32.2818 14.1325 32.0783 13.9157C31.8734 13.6988 31.4415 13.3425 31.1175 13.1215C30.662 12.8108 30.381 12.7238 29.8715 12.7321C29.5102 12.7376 28.7778 12.8923 28.2448 13.0732ZM28.5328 14.5275C28.3861 14.6048 28.2781 14.7899 28.2905 14.9377C28.303 15.0854 28.4068 15.2995 28.5217 15.4141C28.6352 15.5288 28.8498 15.6213 28.9966 15.6213C29.1433 15.6213 29.3648 15.5122 29.4894 15.3796C29.6999 15.1545 29.6888 15.1117 29.3261 14.7554C29.1115 14.5441 28.9052 14.3756 28.8678 14.3797C28.8291 14.3838 28.6795 14.4501 28.5328 14.5275ZM28.3514 16.0039C28.231 16.0743 28.2171 16.2276 28.303 16.519C28.3694 16.7469 28.4608 17.0424 28.5079 17.175C28.5563 17.3186 28.7322 17.4167 28.937 17.4167C29.1987 17.4167 29.3427 17.2938 29.5254 16.9154C29.7663 16.4154 29.7663 16.4113 29.4216 16.1489C29.2305 16.0039 28.9509 15.8892 28.7986 15.8934C28.6463 15.8975 28.4456 15.9472 28.3514 16.0039Z" fill="white"/>
<path fill-rule="evenodd" clip-rule="evenodd" d="M17.9821 7.68006C18.1828 7.30026 18.3545 6.86522 18.3628 6.7133C18.3725 6.56138 18.4445 6.71607 18.5234 7.05857C18.6328 7.5309 18.6245 7.7795 18.486 8.09439C18.3863 8.32227 18.2811 8.78769 18.2521 9.1302C18.2133 9.59424 18.2797 9.8898 18.5151 10.2945C18.7366 10.6756 19.0592 10.9532 19.5922 11.2239C20.0117 11.4352 21.0071 12.2073 21.8073 12.9392C22.6075 13.6712 23.5253 14.4488 23.8493 14.6697C24.1871 14.899 24.4529 15.1945 24.4723 15.3644C24.493 15.5398 24.7035 15.7663 24.9914 15.921C25.2586 16.0646 25.5189 16.258 25.5701 16.3505C25.6227 16.443 25.638 16.566 25.6047 16.6226C25.5729 16.6792 25.4677 16.7234 25.3722 16.7206C25.2766 16.7179 24.6384 16.1654 23.9531 15.4929C23.2678 14.8203 22.3333 14.0137 21.8765 13.6988C21.4196 13.3853 20.9683 13.1298 20.8728 13.1326C20.7772 13.134 20.6125 12.9641 20.5059 12.7555C20.4007 12.547 20.1806 12.2515 20.0186 12.0995C19.7611 11.8565 19.6877 11.8454 19.4164 12.0098C19.1409 12.1769 18.9886 12.1437 18.0001 11.7032C17.3909 11.4311 16.7832 11.2074 16.6503 11.206C16.5174 11.2032 16.2363 11.3441 16.0273 11.5181C15.8182 11.6921 15.4749 11.9407 15.2658 12.0705C15.0568 12.2003 14.7453 12.3026 14.5736 12.297C14.3203 12.2887 14.3064 12.2694 14.4989 12.1934C14.6304 12.1423 15.061 11.6023 15.4569 10.9947C15.8528 10.387 16.5008 9.54729 16.8981 9.1302C17.294 8.71311 17.7827 8.05986 17.9821 7.68006Z" fill="white"/>
<path fill-rule="evenodd" clip-rule="evenodd" d="M16.3042 7.17044C16.552 6.77545 16.941 6.33765 17.1694 6.19816C17.4865 6.00343 17.7315 5.96337 18.2078 6.02967C18.5497 6.078 18.8446 6.12772 18.8598 6.13877C18.8764 6.1512 18.9304 6.53376 18.9816 6.98952C19.0453 7.5751 19.0093 8.00047 18.8598 8.43966C18.7366 8.80288 18.6868 9.22549 18.7394 9.45752C18.7892 9.67573 18.8778 9.87875 18.9346 9.90637C18.9913 9.93537 19.3236 9.75721 19.6739 9.51C20.2055 9.13434 20.4588 9.05286 21.2313 9.01005C21.7574 8.98104 22.5687 9.05286 23.1225 9.17578C23.6555 9.29455 24.5277 9.46028 25.0607 9.54453C25.6892 9.64396 26.3219 9.86218 26.8604 10.166C27.3173 10.4229 28.0649 10.9974 28.5217 11.4421C29.2928 12.1934 29.4078 12.2556 30.1138 12.3177C30.7451 12.373 31.0178 12.4904 31.7059 13.0041C32.2458 13.406 32.6459 13.8397 32.8494 14.2416C33.1166 14.7719 33.1554 15.0412 33.1236 16.1047C33.0945 17.0079 33.01 17.4968 32.8107 17.8932C32.6501 18.215 32.1088 18.7895 31.4982 19.2881C30.8766 19.7949 30.381 20.3253 30.2619 20.6056C30.1055 20.9785 30.082 21.4964 30.1526 23.0791C30.2024 24.1799 30.3381 25.7805 30.4558 26.6354C30.5762 27.518 30.7866 28.4281 30.9445 28.7416C31.0968 29.0454 31.3612 29.3879 31.5329 29.5026C31.7045 29.6172 32.0312 29.7084 32.2597 29.7056C32.4881 29.7042 33.0488 29.5481 33.5057 29.3603C33.9625 29.1725 34.4138 29.0192 34.5094 29.0178C34.6049 29.0178 34.7129 29.1117 34.7516 29.225C34.7904 29.3382 34.5786 29.852 34.2837 30.3644C33.9888 30.8768 33.5209 31.7468 33.2454 32.2979C32.9699 32.8489 32.7442 33.4552 32.7442 33.6444C32.7442 33.8986 32.8439 34.0215 33.1249 34.1126C33.3478 34.1858 33.6053 34.1858 33.7479 34.1126C33.8808 34.045 34.2076 33.5547 34.4748 33.023C34.7419 32.4912 35.1157 31.9623 35.3054 31.849C35.5851 31.6819 35.6931 31.675 35.8689 31.8145C35.9879 31.9098 36.1416 32.204 36.2108 32.4705C36.2884 32.7675 36.2856 33.2743 36.2039 33.7826C36.1305 34.2383 35.945 35.0462 35.7913 35.578C35.6391 36.1097 35.3566 37.4466 35.1656 38.5473C34.9731 39.6494 34.789 40.6742 34.7544 40.8261C34.7212 40.978 34.5038 41.3039 34.2726 41.5511C33.9528 41.8923 33.7355 42 33.3672 42C33.0142 42 32.8314 41.9158 32.6916 41.6893C32.5864 41.518 32.4618 41.1769 32.4147 40.9297C32.3621 40.6521 32.4396 40.072 32.6196 39.4105C32.783 38.8069 32.8757 38.1592 32.8314 37.9258C32.7885 37.6979 32.6432 37.4107 32.5061 37.2864C32.3704 37.1621 32.0575 36.9604 31.8097 36.8375C31.5619 36.7146 31.3446 36.6124 31.3252 36.6096C31.3058 36.6069 31.1798 36.8403 31.0441 37.1275C30.9085 37.4148 30.6191 38.2407 30.4032 38.9616C30.1858 39.6839 29.9117 40.3358 29.7926 40.4118C29.6334 40.514 29.5005 40.478 29.2859 40.2736C29.1253 40.1217 28.7861 39.5928 28.5314 39.0997C28.2767 38.6067 28.0233 38.0473 27.9666 37.8567C27.9112 37.6675 27.5955 37.1068 27.2674 36.6138C26.9393 36.1207 26.1696 35.2189 25.5577 34.6112C24.9458 34.0035 24.4169 33.5367 24.3823 33.5754C24.3463 33.6141 24.2203 34.2963 24.0999 35.0946C23.9808 35.8928 23.8839 36.7312 23.8839 36.959C23.8853 37.1869 23.7551 37.8706 23.5959 38.4782C23.4353 39.0859 23.1861 39.8165 23.0408 40.101C22.8954 40.3855 22.6822 40.6189 22.5687 40.6189C22.4386 40.6189 22.307 40.3979 22.2171 40.032C22.1395 39.7088 21.9983 39.2337 21.9056 38.9768C21.8142 38.7185 21.583 38.3912 21.3919 38.2476C21.2023 38.104 20.6873 37.941 20.2484 37.8871C19.8095 37.8319 19.451 37.7407 19.4524 37.6841C19.4524 37.6275 19.6254 37.2656 19.8345 36.8817C20.1709 36.2644 20.1916 36.1608 20.0075 35.9881C19.894 35.8804 19.6129 35.7561 19.3845 35.7092C19.0592 35.6443 18.8418 35.7188 18.3808 36.0517C18.0569 36.2851 17.6831 36.6345 17.5502 36.8292C17.3466 37.1275 17.3356 37.2353 17.4809 37.5198C17.5765 37.7048 17.7634 37.8554 17.8963 37.854C18.0679 37.8526 18.1648 38.0031 18.2299 38.3719C18.2797 38.6592 18.2659 39.1412 18.1981 39.445C18.1302 39.7488 17.9779 40.0913 17.8603 40.2046C17.6692 40.3897 17.5903 40.3814 17.139 40.1355C16.8607 39.9836 16.3637 39.4864 16.0356 39.0307C15.7061 38.5749 15.1966 37.8609 14.9017 37.4424C14.6069 37.024 14.1915 36.3721 13.9783 35.9923C13.7651 35.6125 13.4066 35.1153 13.1809 34.8874C12.9552 34.6595 12.6299 34.1927 12.4582 33.8516C12.2866 33.5105 12.1011 32.9498 12.0457 32.6086C11.9917 32.2675 11.9848 31.8477 12.0318 31.6764C12.0789 31.5051 12.2257 31.3076 12.3586 31.2372C12.5136 31.1543 12.8196 31.1668 13.2127 31.2717C13.5935 31.3739 13.9313 31.5797 14.1126 31.82C14.2704 32.0313 14.557 32.4042 14.7467 32.6487C14.9377 32.8918 15.2492 33.3917 15.4389 33.7563C15.63 34.1223 15.8778 34.5131 15.9927 34.6264C16.174 34.8046 16.2626 34.8059 16.6849 34.6347C16.9507 34.527 17.3563 34.2466 18.0001 33.5851L17.6706 32.9235C17.4892 32.5603 17.1154 31.9899 16.8399 31.6543C16.5644 31.3201 15.9207 30.45 15.4084 29.7208C14.8962 28.9929 14.5224 28.348 14.5778 28.2886C14.6332 28.2292 15.1759 28.359 15.785 28.5786C16.3942 28.7996 17.5778 29.0869 18.4154 29.2194C19.2862 29.3576 20.2346 29.4266 20.6305 29.3824C21.0694 29.3313 21.7228 29.0855 22.4136 28.7112C23.0145 28.3867 23.8341 27.8094 24.2355 27.4296C24.637 27.0498 25.0939 26.4587 25.2517 26.1175C25.4095 25.7764 25.5867 25.0762 25.6463 24.5624C25.728 23.8512 25.7113 23.6288 25.5798 23.6302C25.4843 23.6316 25.1423 23.3471 24.8184 22.999C24.4944 22.651 23.8244 22.0641 23.3301 21.6953C22.8359 21.3266 22.2281 20.7562 21.9817 20.4288C21.7339 20.1015 21.3739 19.5532 21.1829 19.2121C20.9905 18.871 20.7468 18.4042 20.6416 18.1763C20.5377 17.9484 20.1972 17.1405 19.8857 16.3809C19.5756 15.6213 19.217 14.5965 19.0882 14.1021C18.9609 13.6077 18.864 13.0801 18.875 12.9282C18.8889 12.7252 18.6826 12.5373 18.1012 12.2211C17.6651 11.9835 17.1362 11.7501 16.9272 11.7032C16.6295 11.6355 16.4412 11.7059 16.0619 12.0305C15.7961 12.2584 15.3752 12.5456 15.1274 12.6685C14.8519 12.8066 14.5307 12.8591 14.2968 12.8066C13.9285 12.7238 13.9174 12.6948 13.9617 11.9269C13.9853 11.4905 14.132 10.8538 14.2857 10.5113C14.4393 10.1688 14.6484 9.67159 14.7495 9.40642C14.8519 9.14125 15.1413 8.68963 15.3946 8.40513C15.648 8.12063 16.0564 7.56405 16.3042 7.17044ZM17.0351 39.5486C16.8469 39.416 16.6904 39.2613 16.6863 39.2061C16.6807 39.1494 16.8981 39.2116 17.1653 39.3442C17.4449 39.4809 17.5945 39.6273 17.5155 39.6867C17.4394 39.7433 17.2234 39.6812 17.0351 39.5486ZM28.2448 13.0732C27.5886 13.2969 27.1041 13.5731 26.7455 13.9253C26.4534 14.2126 26.1585 14.5565 26.0879 14.6891C25.9813 14.8907 26.0699 14.9791 26.6181 15.2235C26.9795 15.3838 27.3214 15.5854 27.3768 15.6724C27.4336 15.758 27.4806 16.0149 27.4834 16.2428C27.4862 16.4707 27.4253 16.8587 27.3477 17.106C27.2702 17.3532 27.0819 17.617 26.9296 17.6929C26.7773 17.7689 26.4188 17.7882 26.1336 17.7371C25.656 17.6501 25.6241 17.6639 25.7376 17.9098C25.8041 18.0561 25.9605 18.969 26.0838 19.9372L26.3066 21.6994C27.0667 21.5586 27.2439 21.6401 27.7603 22.0944C28.2988 22.5681 28.3833 22.7159 28.3833 23.1841C28.3833 23.481 28.2891 23.8318 28.1756 23.9603C28.051 24.1012 27.7728 24.1937 27.4834 24.1909C27.2162 24.1868 26.812 24.1288 26.5835 24.0625L26.1682 23.9409C25.7183 26.0664 25.5535 26.4697 25.1548 26.9918C24.8751 27.3591 24.2397 27.9447 23.7455 28.2955C23.2512 28.6463 22.5036 29.0841 22.0841 29.2692C21.619 29.4749 20.9461 29.6324 20.3536 29.6752C19.8206 29.7139 18.9484 29.6711 18.4154 29.5799C17.8824 29.4901 17.0255 29.2802 16.5118 29.1131C15.9982 28.9474 15.5469 28.8576 15.5081 28.9142C15.4707 28.9709 15.6659 29.3755 15.9428 29.8119C16.2211 30.2484 16.7195 30.9168 17.0531 31.2966C17.3854 31.6764 17.7883 32.2675 17.9503 32.6086C18.1122 32.9498 18.4071 33.4442 18.6065 33.7052C18.8058 33.9662 18.9789 34.277 18.9913 34.3958C19.0038 34.5145 19.0661 34.7576 19.1298 34.9358C19.1976 35.1263 19.4883 35.3667 19.8345 35.5227C20.2996 35.7299 20.4228 35.8569 20.4228 36.1304C20.4228 36.321 20.3287 36.6925 20.2152 36.959L20.0075 37.4424C21.1344 37.7711 21.5858 37.9479 21.738 38.0473C21.8903 38.1468 22.1188 38.4713 22.2461 38.7669C22.3721 39.0638 22.5119 39.416 22.5576 39.5486C22.6019 39.6812 22.685 39.7668 22.7417 39.7392C22.7985 39.7102 22.9536 39.3221 23.0865 38.876C23.2194 38.4285 23.3897 37.412 23.4658 36.6138C23.5406 35.8155 23.6818 34.712 23.7773 34.1596C23.9268 33.3075 23.9947 33.1555 24.23 33.1555C24.3851 33.1542 25.0177 33.6265 25.6684 34.2273C26.3066 34.8184 27.1511 35.7672 27.5471 36.3376C27.9417 36.9079 28.404 37.7463 28.5729 38.202C28.7432 38.6578 29.0187 39.2323 29.1862 39.4781C29.3538 39.7254 29.5213 39.9284 29.56 39.9311C29.5988 39.9325 29.7386 39.6066 29.8715 39.2061C30.0044 38.8056 30.2107 38.1675 30.3312 37.7877C30.4502 37.4079 30.8656 36.3514 31.2518 35.4398C31.6394 34.5283 32.2998 33.1307 32.7207 32.3324C33.1416 31.5341 33.6607 30.6185 33.8753 30.2953C34.0913 29.9721 34.2519 29.6752 34.2325 29.6365C34.2131 29.5965 33.8711 29.689 33.471 29.8437C33.0709 29.997 32.448 30.1213 32.0866 30.1185C31.5079 30.1144 31.3709 30.0522 30.9445 29.5965C30.6399 29.2705 30.3962 28.8245 30.2882 28.3922C30.1941 28.0151 30.0169 26.9282 29.8965 25.9794C29.7566 24.8718 29.6943 23.5197 29.722 22.2049L29.7677 20.1568C30.5458 19.4787 31.1328 18.9704 31.5744 18.5906C32.016 18.2108 32.4604 17.6984 32.5601 17.4512C32.6612 17.204 32.7498 16.5825 32.7553 16.0701C32.7608 15.5578 32.6958 14.9515 32.6085 14.7236C32.5213 14.4957 32.2818 14.1325 32.0783 13.9157C31.8734 13.6988 31.4415 13.3425 31.1175 13.1215C30.662 12.8108 30.381 12.7238 29.8715 12.7321C29.5102 12.7376 28.7778 12.8923 28.2448 13.0732ZM21.5982 15.7594C21.5428 15.4183 21.3809 14.8424 21.2396 14.4819C21.0555 14.0123 21.0306 13.8273 21.1524 13.8314C21.2466 13.8342 21.6038 14.0469 21.9457 14.3037C22.2877 14.5606 23.1059 15.3188 23.7621 15.99C24.8308 17.0825 24.9873 17.3104 25.2642 18.1763C25.4331 18.708 25.613 19.6872 25.6629 20.3515C25.7127 21.0158 25.7058 21.56 25.649 21.56C25.5923 21.56 25.1008 21.1719 24.5581 20.6968C24.0154 20.2217 23.3066 19.4289 22.9813 18.9359C22.6559 18.4415 22.235 17.6653 22.0454 17.2095C21.8557 16.7538 21.6536 16.1005 21.5982 15.7594ZM21.5304 10.8704C21.0361 10.9795 20.6 11.1051 20.5613 11.148C20.5225 11.1908 20.679 11.3827 20.9074 11.5761C21.1358 11.7681 21.6038 12.1838 21.9457 12.4987C22.2877 12.8136 22.9425 13.395 23.3993 13.7914C23.8562 14.1863 24.2923 14.5123 24.3684 14.515C24.4446 14.5178 24.7035 14.7222 24.9444 14.968L25.3832 15.4141C25.5244 14.5081 25.728 14.2029 26.272 13.6795C26.6721 13.2956 27.1387 12.953 27.3104 12.9199C27.482 12.8867 27.6232 12.8122 27.6232 12.7555C27.6246 12.6989 27.2979 12.4572 26.8964 12.2183C26.4963 11.9794 25.7321 11.6465 25.1991 11.478C24.6661 11.3096 23.9185 11.09 23.5378 10.9891C23.1571 10.8897 22.7514 10.7765 22.6379 10.7392C22.5244 10.7019 22.0246 10.7613 21.5304 10.8704ZM18.3628 6.7133C18.3545 6.86522 18.1828 7.30026 17.9821 7.68006C17.7827 8.05986 17.294 8.71311 16.8981 9.1302C16.5008 9.54729 15.8528 10.387 15.4569 10.9947C15.061 11.6023 14.6304 12.1423 14.4989 12.1934C14.3064 12.2694 14.3203 12.2887 14.5736 12.297C14.7453 12.3026 15.0568 12.2003 15.2658 12.0705C15.4749 11.9407 15.8182 11.6921 16.0273 11.5181C16.2363 11.3441 16.5174 11.2032 16.6503 11.206C16.7832 11.2074 17.3909 11.4311 18.0001 11.7032C18.9886 12.1437 19.1409 12.1769 19.4164 12.0098C19.6877 11.8454 19.7611 11.8565 20.0186 12.0995C20.1806 12.2515 20.4007 12.547 20.5059 12.7555C20.6125 12.9641 20.7772 13.134 20.8728 13.1326C20.9683 13.1298 21.4196 13.3853 21.8765 13.6988C22.3333 14.0137 23.2678 14.8203 23.9531 15.4929C24.6384 16.1654 25.2766 16.7179 25.3722 16.7206C25.4677 16.7234 25.5729 16.6792 25.6047 16.6226C25.638 16.566 25.6227 16.443 25.5701 16.3505C25.5189 16.258 25.2586 16.0646 24.9914 15.921C24.7035 15.7663 24.493 15.5398 24.4723 15.3644C24.4529 15.1945 24.1871 14.899 23.8493 14.6697C23.5253 14.4488 22.6075 13.6712 21.8073 12.9392C21.0071 12.2073 20.0117 11.4352 19.5922 11.2239C19.0592 10.9532 18.7366 10.6756 18.5151 10.2945C18.2797 9.8898 18.2133 9.59424 18.2521 9.1302C18.2811 8.78769 18.3863 8.32227 18.486 8.09439C18.6245 7.7795 18.6328 7.5309 18.5234 7.05857C18.4445 6.71607 18.3725 6.56138 18.3628 6.7133Z" fill="black"/>
</svg>
